<?xml version="1.0" encoding="utf-8"?>
<!-- Generator: Adobe Illustrator 23.0.1, SVG Export Plug-In . SVG Version: 6.00 Build 0)  -->
<svg version="1.1" id="Layer_1" xmlns="http://www.w3.org/2000/svg" xmlns:xlink="http://www.w3.org/1999/xlink" x="0px" y="0px"
	 viewBox="0 0 223 61" style="enable-background:new 0 0 223 61;" xml:space="preserve">
<style type="text/css">
	.st0{fill:url(#SVGID_1_);}
	.st1{fill:#FFFFFF;}
	.st2{fill:#2A9845;}
</style>
<linearGradient id="SVGID_1_" gradientUnits="userSpaceOnUse" x1="0" y1="17.6474" x2="63.7181" y2="17.6474">
	<stop  offset="0" style="stop-color:#81BE40"/>
	<stop  offset="1" style="stop-color:#2A9845"/>
</linearGradient>
<path class="st0" d="M46,0c-2.4,0-4.7,0.5-6.8,1.4c-4.5,1.8-7.8,6.6-8.7,7.9c-0.6,0.9-11.5,16.4-11.5,16.4c-0.9,1.3-2,2.2-3.4,2.6
	c-0.1,0-0.1,0-0.2,0.1c-0.9,0.3-2,0.5-3.1,0.4c-3.2-0.3-5.8-2.9-6.2-6c-0.4-3.3,1.5-6.2,4.2-7.4c0,0,0,0,0,0.1
	c0.2-0.1,0.4-0.2,0.6-0.2c0.3-0.1,0.7-0.2,1-0.3c0.6-0.1,1.2-0.1,1.8-0.1l0.5,0L14,15.2c0,0-0.7,1-1.1,1.5c-0.6,0.8-1.4,2.1-2.3,3.4
	c-0.4,0.6-0.2,1.5,0.2,2.1L13,25c0.4,0.6,1.5,0.3,2-0.4l8.3-11.9L20.7,11c-1.5-1-3.1-1.7-4.8-2.1c-1.7-0.3-3.4-0.4-5.1,0
	c-1.7,0.3-3.2,0.9-4.7,1.9c-1.5,0.9-2.8,2.2-3.8,3.7c-1,1.5-1.7,3.1-2,4.8c-0.3,1.7-0.3,3.4,0,5c0.3,1.6,0.9,3.2,1.8,4.7
	c0.9,1.5,2.1,2.8,3.6,3.8c1.5,1,3.1,1.7,4.7,2c1.7,0.4,3.4,0.4,5.2,0.1c1.7-0.3,3.3-1,4.8-1.9c1.3-0.9,2.5-2,3.5-3.3l0,0l2.3-3.4
	c10.1-14.3,10-14.2,10.1-14.3c1.6-2.6,4-4.2,5.2-4.7C43,6.5,44.5,6.2,46,6.2c1.6,0,3.1,0.3,4.5,0.9c1.4,0.6,2.6,1.4,3.7,2.4
	c1,1,1.9,2.3,2.4,3.6c0.6,1.4,0.9,2.9,0.9,4.4c0,1.6-0.3,3.1-0.9,4.5c-0.6,1.4-1.4,2.6-2.4,3.7c-1,1-2.3,1.9-3.7,2.4
	c-1.4,0.6-2.9,0.9-4.5,0.9c-1.6,0-3.1-0.3-4.5-0.9c-1.4-0.6-2.6-1.4-3.7-2.4c-1-1-2.4-3.9-2.6-4.3c-0.2-0.4-0.9-0.4-1.3,0.2
	c-0.2,0.2-2.6,3.7-2.6,3.7c-0.4,0.6-0.4,1.3,0,1.9c0.6,1,1.4,2.1,2.2,2.9c1.6,1.6,3.5,2.9,5.6,3.8c2.1,0.9,4.4,1.4,6.8,1.4
	c2.5,0,4.8-0.5,6.9-1.4c0.8-0.3,1.6-0.8,2.3-1.2c3.9-2.4,6.8-6.3,7.9-10.7c0-0.1,0-0.2,0.1-0.3l0.1-0.3c0-0.1,0-0.2,0.1-0.3
	c0-0.1,0-0.2,0.1-0.4l0-0.3c0-0.1,0-0.2,0-0.2c0-0.1,0-0.2,0-0.3l0-0.2c0-0.1,0-0.2,0-0.3c0-0.1,0-0.1,0-0.2l0-0.2
	c0-0.2,0-0.4,0-0.5c0-0.1,0-0.4,0-0.4c0-0.2,0-0.3,0-0.5c0-2.4-0.5-4.8-1.4-6.9c-0.8-1.8-1.8-3.5-3.2-4.9l-0.1-0.1
	c-1.9-2.1-4.3-3.7-6.9-4.6c-1.3-0.5-2.6-0.8-4.1-1c0,0-0.2,0-0.2,0c-0.1,0-0.3,0-0.3,0c-0.2,0-0.4,0-0.6,0C46.6,0,46.4,0,46,0L46,0z
	"/>
<g>
	<g>
		<path class="st1" d="M80.5,16.1c-5.4,0-9.1,4-9.1,9.9c0,6.2,3.7,9.6,9.3,9.6c2.6,0,5.6-0.5,7.5-1.3v-3.6c-2,0.6-4.6,1-6.4,1
			c-3.8,0-5-1.4-5.4-4.2h12.9c0.1-0.6,0.2-1.4,0.2-2C89.5,19.9,85.9,16.1,80.5,16.1z M76.4,24.4c0.3-2.8,1.6-4.7,4.1-4.7
			c2.4,0,3.8,1.8,4.1,4.7H76.4z M105.7,9.1c-8.1,0-13.6,5.3-13.6,13.2c0,7.9,5.4,13.2,13.6,13.2c8.1,0,13.5-5.3,13.5-13.2
			C119.3,14.4,113.8,9.1,105.7,9.1z M105.7,31.4c-5,0-8.3-3.6-8.3-9c0-5.4,3.3-9,8.3-9c5,0,8.3,3.6,8.3,9
			C114.1,27.8,110.7,31.4,105.7,31.4z M123.1,16.2v19h4.9V21.5c1.6-0.5,3.5-0.8,6.1-0.8v-4.6c-2.4,0-4.5,0.4-6.5,1.3
			C126.3,16.6,124.9,16.2,123.1,16.2z M136.6,35.2h4.9V16.4h-4.9V35.2z M139.1,7.7c-1.7,0-2.9,1.2-2.9,2.9c0,1.7,1.2,2.9,2.9,2.9
			c1.7,0,2.9-1.2,2.9-2.9C142,8.9,140.8,7.7,139.1,7.7z M149.2,29.4c0-0.6,0.2-1.1,0.5-1.6c1.2,0.5,2.7,0.8,4.3,0.8
			c4.9,0,8.1-2.4,8.1-6.1c0-2.2-1.2-3.9-3.1-5.1l3.2-0.7l-1-3.3l-10.8,3.2c0,0-0.1,0-0.1,0c-2.9,0.9-4.6,3.1-4.6,5.8
			c0,1.6,0.6,2.9,1.6,3.9c-1.6,1.4-2.5,3.2-2.5,4.9c0,7.1,13.7,3.1,13.7,6.8c0,1.2-1.4,1.7-5,1.7c-3.1,0-5.8-0.3-7.8-1.1v3.3
			c1.7,0.8,4.7,1.3,7.3,1.3c7.3,0,10.2-1.7,10.2-5.9C163.4,29,149.2,33.5,149.2,29.4z M154.1,19.2c2,0,3.3,1.3,3.3,3.1
			s-1.4,3.1-3.3,3.1c-2,0-3.3-1.3-3.3-3.1S152.1,19.2,154.1,19.2z M165.9,35.2h4.9V16.4h-4.9V35.2z M168.3,7.7
			c-1.7,0-2.9,1.2-2.9,2.9c0,1.7,1.2,2.9,2.9,2.9c1.7,0,2.9-1.2,2.9-2.9C171.3,8.9,170,7.7,168.3,7.7z M186.5,16.1
			c-2.1,0-4.4,0.5-6.5,1.4c-1.2-0.8-2.8-1.3-4.7-1.3v19h4.9V21c1.5-0.7,2.8-1.1,4.3-1.1c2.7,0,4.2,1.3,4.2,3.9v11.4h4.9V23.4
			C193.6,18.4,191,16.1,186.5,16.1z M205.6,16.1c-2.7,0-5.4,0.5-7.3,1.2v3.5c2-0.6,4.4-0.9,6.3-0.9c2.7,0,4.2,1.3,4.2,3.6v1.1
			c-1.5-0.5-3.1-0.7-4.4-0.7c-4.8,0-7.7,2.2-7.7,5.8c0,3.7,2.6,5.8,6.9,5.8c2,0,4-0.4,5.8-1.2c1.2,0.6,2.7,1,4.2,1V23
			C213.7,18.6,210.7,16.1,205.6,16.1z M208.8,31.4c-1,0.4-2.2,0.6-3.2,0.6c-2.4,0-3.8-0.9-3.8-2.5c0-1.6,1.5-2.6,3.8-2.6
			c1,0,2.1,0.2,3.2,0.7V31.4z M218.1,9.1v26.1h4.9V7.7L218.1,9.1z"/>
	</g>
</g>
<g>
	<g>
		<path class="st2" d="M0.6,54h2.5v6.8h1.6V54h2.5v-1.3H0.6V54z M7.3,54.9v6h1.6v-4.3c0.5-0.2,1.1-0.3,2-0.3v-1.5
			c-0.8,0-1.4,0.1-2.1,0.4C8.3,55,7.8,54.9,7.3,54.9z M15.8,59.5c-0.4,0.2-0.8,0.3-1.2,0.3c-0.9,0-1.3-0.4-1.3-1.2v-3.6h-1.6v3.7
			c0,1.6,0.9,2.3,2.3,2.3c0.6,0,1.3-0.1,2-0.4c0.4,0.2,0.9,0.3,1.4,0.3v-6h-1.6V59.5z M21.5,57.2l-0.4-0.1c-0.5-0.1-0.9-0.3-0.9-0.6
			c0-0.3,0.3-0.6,1-0.6c0.4,0,1,0.1,1.6,0.3v-1.1c-0.5-0.2-1.2-0.4-1.9-0.4c-1.4,0-2.3,0.7-2.3,2c0,1.1,0.6,1.5,1.7,1.7l0.4,0.1
			c0.5,0.1,0.9,0.3,0.9,0.7c0,0.4-0.3,0.6-1,0.6c-0.5,0-1.2-0.1-1.8-0.4v1.1c0.6,0.3,1.4,0.4,2.1,0.4c1.4,0,2.3-0.7,2.3-1.9
			C23.2,57.9,22.5,57.4,21.5,57.2z M26.3,58.8V56h1.8v-1.1h-1.8v-1.7l-1.6,0.4v1.3h-0.9V56h0.9v3c0,1.2,0.8,2,2.1,2
			c0.4,0,0.9,0,1.3-0.1v-1.1c-0.3,0-0.6,0.1-0.8,0.1C26.7,59.8,26.3,59.4,26.3,58.8z M34,58.8V56h1.8v-1.1H34v-1.7l-1.6,0.4v1.3
			h-0.9V56h0.9v3c0,1.2,0.8,2,2.1,2c0.4,0,0.9,0,1.3-0.1v-1.1c-0.3,0-0.6,0.1-0.8,0.1C34.4,59.8,34,59.4,34,58.8z M40.5,54.8
			c-0.6,0-1.4,0.2-2,0.4v-3.1l-1.6,0.4v8.3h1.6v-4.5c0.5-0.2,0.9-0.4,1.4-0.4c0.9,0,1.3,0.4,1.3,1.2v3.6h1.6v-3.7
			C42.7,55.6,41.9,54.8,40.5,54.8z M46.9,54.8c-1.7,0-2.9,1.3-2.9,3.1c0,2,1.2,3,3,3c0.8,0,1.8-0.2,2.4-0.4v-1.1
			c-0.6,0.2-1.5,0.3-2,0.3c-1.2,0-1.6-0.5-1.7-1.3h4.2c0-0.2,0.1-0.4,0.1-0.6C49.8,56,48.6,54.8,46.9,54.8z M45.6,57.5
			c0.1-0.9,0.5-1.5,1.3-1.5c0.8,0,1.2,0.6,1.3,1.5H45.6z M57.2,52.6c-1.4,2.4-3,5.5-4.2,8.3h1.7c0.2-0.5,0.4-1,0.6-1.5h3.8
			c0.2,0.5,0.4,1,0.6,1.5h1.7c-1.3-2.8-2.8-5.8-4.2-8.3H57.2z M56,58.1c0.4-0.9,0.9-1.9,1.3-2.7c0.4,0.9,0.9,1.8,1.3,2.7H56z
			 M65,57.2l-0.4-0.1c-0.5-0.1-0.9-0.3-0.9-0.6c0-0.3,0.3-0.6,1-0.6c0.4,0,1,0.1,1.6,0.3v-1.1c-0.5-0.2-1.2-0.4-1.9-0.4
			c-1.4,0-2.3,0.7-2.3,2c0,1.1,0.6,1.5,1.7,1.7l0.4,0.1c0.5,0.1,0.9,0.3,0.9,0.7c0,0.4-0.3,0.6-1,0.6c-0.5,0-1.2-0.1-1.8-0.4v1.1
			c0.6,0.3,1.4,0.4,2.1,0.4c1.4,0,2.3-0.7,2.3-1.9C66.7,57.9,66,57.4,65,57.2z M70.4,57.2L70,57.1c-0.5-0.1-0.9-0.3-0.9-0.6
			c0-0.3,0.3-0.6,1-0.6c0.4,0,1,0.1,1.6,0.3v-1.1c-0.5-0.2-1.2-0.4-1.9-0.4c-1.4,0-2.3,0.7-2.3,2c0,1.1,0.6,1.5,1.7,1.7l0.4,0.1
			c0.5,0.1,0.9,0.3,0.9,0.7c0,0.4-0.3,0.6-1,0.6c-0.5,0-1.2-0.1-1.8-0.4v1.1c0.6,0.3,1.4,0.4,2.1,0.4c1.4,0,2.3-0.7,2.3-1.9
			C72.1,57.9,71.4,57.4,70.4,57.2z M75.9,54.8c-1.7,0-2.9,1.3-2.9,3.1c0,2,1.2,3,3,3c0.8,0,1.8-0.2,2.4-0.4v-1.1
			c-0.6,0.2-1.5,0.3-2,0.3c-1.2,0-1.6-0.5-1.7-1.3h4.1c0-0.2,0.1-0.4,0.1-0.6C78.9,56,77.7,54.8,75.9,54.8z M74.6,57.5
			c0.1-0.9,0.5-1.5,1.3-1.5c0.8,0,1.2,0.6,1.3,1.5H74.6z M81.9,58.8V56h1.8v-1.1h-1.8v-1.7l-1.6,0.4v1.3h-0.9V56h0.9v3
			c0,1.2,0.8,2,2.1,2c0.4,0,0.9,0,1.3-0.1v-1.1c-0.3,0-0.6,0.1-0.8,0.1C82.3,59.8,81.9,59.4,81.9,58.8z M85.8,59c-0.6,0-1,0.5-1,1
			s0.5,1,1,1c0.6,0,1-0.5,1-1S86.4,59,85.8,59z M93.3,54h2.5v6.8h1.6V54h2.5v-1.3h-6.7V54z M100,54.9v6h1.6v-4.3
			c0.5-0.2,1.1-0.3,2-0.3v-1.5c-0.8,0-1.4,0.1-2.1,0.4C101,55,100.6,54.9,100,54.9z M108.5,59.5c-0.4,0.2-0.8,0.3-1.2,0.3
			c-0.9,0-1.3-0.4-1.3-1.2v-3.6h-1.6v3.7c0,1.6,0.9,2.3,2.3,2.3c0.6,0,1.3-0.1,2-0.4c0.4,0.2,0.8,0.3,1.4,0.3v-6h-1.6V59.5z
			 M114.2,57.2l-0.4-0.1c-0.5-0.1-0.9-0.3-0.9-0.6c0-0.3,0.3-0.6,1-0.6c0.4,0,1,0.1,1.6,0.3v-1.1c-0.5-0.2-1.2-0.4-1.9-0.4
			c-1.4,0-2.3,0.7-2.3,2c0,1.1,0.6,1.5,1.7,1.7l0.4,0.1c0.5,0.1,0.9,0.3,0.9,0.7c0,0.4-0.3,0.6-1,0.6c-0.5,0-1.2-0.1-1.8-0.4v1.1
			c0.6,0.3,1.4,0.4,2.1,0.4c1.4,0,2.3-0.7,2.3-1.9C116,57.9,115.2,57.4,114.2,57.2z M119,58.8V56h1.8v-1.1H119v-1.7l-1.6,0.4v1.3
			h-0.9V56h0.9v3c0,1.2,0.8,2,2.1,2c0.4,0,0.9,0,1.3-0.1v-1.1c-0.3,0-0.6,0.1-0.8,0.1C119.4,59.8,119,59.4,119,58.8z M126.8,58.8V56
			h1.8v-1.1h-1.8v-1.7l-1.6,0.4v1.3h-0.9V56h0.9v3c0,1.2,0.8,2,2.1,2c0.4,0,0.9,0,1.3-0.1v-1.1c-0.3,0-0.6,0.1-0.8,0.1
			C127.2,59.8,126.8,59.4,126.8,58.8z M133.2,54.8c-0.6,0-1.4,0.2-2,0.4v-3.1l-1.6,0.4v8.3h1.6v-4.5c0.5-0.2,0.9-0.4,1.4-0.4
			c0.9,0,1.3,0.4,1.3,1.2v3.6h1.6v-3.7C135.5,55.6,134.6,54.8,133.2,54.8z M139.6,54.8c-1.7,0-2.9,1.3-2.9,3.1c0,2,1.2,3,3,3
			c0.8,0,1.8-0.2,2.4-0.4v-1.1c-0.6,0.2-1.5,0.3-2,0.3c-1.2,0-1.6-0.5-1.7-1.3h4.2c0-0.2,0.1-0.4,0.1-0.6
			C142.5,56,141.3,54.8,139.6,54.8z M138.3,57.5c0.1-0.9,0.5-1.5,1.3-1.5c0.8,0,1.2,0.6,1.3,1.5H138.3z M146,54h2.5v6.8h1.6V54h2.5
			v-1.3H146V54z M152.7,54.9v6h1.6v-4.3c0.5-0.2,1.1-0.3,2-0.3v-1.5c-0.8,0-1.4,0.1-2.1,0.4C153.7,55,153.2,54.9,152.7,54.9z
			 M159.5,54.8c-0.9,0-1.7,0.1-2.4,0.4v1.1c0.6-0.2,1.4-0.3,2-0.3c0.9,0,1.4,0.4,1.4,1.1v0.4c-0.5-0.2-1-0.2-1.4-0.2
			c-1.6,0-2.5,0.7-2.5,1.9c0,1.2,0.8,1.9,2.2,1.9c0.6,0,1.3-0.1,1.9-0.4c0.4,0.2,0.9,0.3,1.4,0.3V57
			C162.1,55.6,161.2,54.8,159.5,54.8z M160.6,59.7c-0.3,0.1-0.7,0.2-1,0.2c-0.8,0-1.2-0.3-1.2-0.8c0-0.5,0.5-0.8,1.2-0.8
			c0.3,0,0.7,0.1,1,0.2V59.7z M167.2,54.8c-0.7,0-1.4,0.2-2.1,0.5c-0.4-0.3-0.9-0.4-1.5-0.4v6h1.6v-4.5c0.5-0.2,0.9-0.4,1.4-0.4
			c0.9,0,1.3,0.4,1.3,1.2v3.6h1.6v-3.7C169.5,55.6,168.7,54.8,167.2,54.8z M173.6,57.2l-0.4-0.1c-0.5-0.1-0.9-0.3-0.9-0.6
			c0-0.3,0.3-0.6,1-0.6c0.4,0,1,0.1,1.6,0.3v-1.1c-0.5-0.2-1.2-0.4-1.9-0.4c-1.4,0-2.3,0.7-2.3,2c0,1.1,0.6,1.5,1.7,1.7l0.4,0.1
			c0.5,0.1,0.9,0.3,0.9,0.7c0,0.4-0.3,0.6-1,0.6c-0.5,0-1.2-0.1-1.8-0.4v1.1c0.6,0.3,1.4,0.4,2.1,0.4c1.4,0,2.3-0.7,2.3-1.9
			C175.3,57.9,174.6,57.4,173.6,57.2z M179.1,54.8c-0.9,0-1.7,0.1-2.4,0.4v1.1c0.6-0.2,1.4-0.3,2-0.3c0.9,0,1.4,0.4,1.4,1.1v0.4
			c-0.5-0.2-1-0.2-1.4-0.2c-1.6,0-2.5,0.7-2.5,1.9c0,1.2,0.8,1.9,2.2,1.9c0.6,0,1.3-0.1,1.9-0.4c0.4,0.2,0.9,0.3,1.4,0.3V57
			C181.7,55.6,180.7,54.8,179.1,54.8z M180.1,59.7c-0.3,0.1-0.7,0.2-1,0.2c-0.8,0-1.2-0.3-1.2-0.8c0-0.5,0.5-0.8,1.2-0.8
			c0.3,0,0.7,0.1,1,0.2V59.7z M184.5,57.9c0-1.1,0.8-1.9,2.1-1.9c0.4,0,1,0.1,1.4,0.3v-1.1c-0.5-0.2-1.3-0.4-1.9-0.4
			c-1.9,0-3.2,1.2-3.2,3.1c0,1.9,1.3,3.1,3.2,3.1c0.7,0,1.5-0.1,2-0.4v-1.1c-0.5,0.2-1.1,0.3-1.5,0.3
			C185.3,59.8,184.5,59,184.5,57.9z M191.3,58.8V56h1.8v-1.1h-1.8v-1.7l-1.6,0.4v1.3h-0.9V56h0.9v3c0,1.2,0.8,2,2.1,2
			c0.4,0,0.9,0,1.3-0.1v-1.1c-0.3,0-0.6,0.1-0.8,0.1C191.7,59.8,191.3,59.4,191.3,58.8z M194.1,60.9h1.6v-6h-1.6V60.9z M194.9,52.2
			c-0.5,0-0.9,0.4-0.9,0.9c0,0.5,0.4,0.9,0.9,0.9c0.5,0,0.9-0.4,0.9-0.9C195.8,52.6,195.4,52.2,194.9,52.2z M200.1,54.8
			c-1.9,0-3.2,1.2-3.2,3.1c0,1.9,1.3,3.1,3.2,3.1c1.9,0,3.2-1.2,3.2-3.1C203.4,56.1,202.1,54.8,200.1,54.8z M200.1,59.8
			c-1,0-1.6-0.7-1.6-1.9c0-1.1,0.6-1.9,1.6-1.9c1,0,1.6,0.7,1.6,1.9C201.7,59,201.1,59.8,200.1,59.8z M208.2,54.8
			c-0.7,0-1.4,0.2-2.1,0.5c-0.4-0.3-0.9-0.4-1.5-0.4v6h1.6v-4.5c0.5-0.2,0.9-0.4,1.4-0.4c0.9,0,1.3,0.4,1.3,1.2v3.6h1.6v-3.7
			C210.5,55.6,209.6,54.8,208.2,54.8z M212.9,59c-0.6,0-1,0.5-1,1s0.5,1,1,1c0.6,0,1-0.5,1-1S213.5,59,212.9,59z M220.6,54.5
			c-1-1.2-2.2-2.2-2.5-2.2v4.1h1.2l0-2c0.5,0.5,0.9,1.1,1.3,1.6h0c0.3-0.5,0.8-1.1,1.3-1.6l0,1.9h1.2v-4.1
			C222.7,52.2,221.6,53.3,220.6,54.5z M213.9,53.2h1.2v3.1h1.2v-3.1h1.2v-0.9h-3.6V53.2z"/>
	</g>
</g>
</svg>
