<?xml version="1.0" encoding="utf-8"?>
<!-- Generator: Adobe Illustrator 23.0.1, SVG Export Plug-In . SVG Version: 6.00 Build 0)  -->
<svg version="1.1" id="Layer_1" xmlns="http://www.w3.org/2000/svg" xmlns:xlink="http://www.w3.org/1999/xlink" x="0px" y="0px"
	 viewBox="0 0 182 47" style="enable-background:new 0 0 182 47;" xml:space="preserve">
<style type="text/css">
	.st0{fill:#5A5E5A;}
	.st1{fill:none;}
	.st2{enable-background:new    ;}
	.st3{fill:#80878F;}
	.st4{fill:url(#SVGID_1_);}
</style>
<g>
	<g>
		<path class="st0" d="M65.4,25.2c-4.4,0-7.3,3.2-7.3,7.9c0,5,3,7.7,7.5,7.7c2.1,0,4.5-0.4,6-1v-2.9c-1.6,0.5-3.7,0.8-5.1,0.8
			c-3,0-4.1-1.1-4.3-3.4h10.4c0.1-0.4,0.1-1.1,0.1-1.6C72.6,28.2,69.7,25.2,65.4,25.2z M62.1,31.9c0.2-2.3,1.3-3.7,3.3-3.7
			c1.9,0,3,1.5,3.3,3.7H62.1z M85.7,19.6c-6.5,0-10.9,4.3-10.9,10.6c0,6.4,4.4,10.6,10.9,10.6s10.9-4.3,10.9-10.6
			C96.6,23.8,92.2,19.6,85.7,19.6z M85.7,37.5c-4,0-6.7-2.9-6.7-7.3s2.7-7.3,6.7-7.3s6.7,2.9,6.7,7.3C92.4,34.6,89.7,37.5,85.7,37.5
			z M99.7,25.3v15.3h3.9v-11c1.3-0.4,2.9-0.7,4.9-0.7v-3.7c-2,0-3.6,0.3-5.2,1C102.3,25.6,101.1,25.3,99.7,25.3z M110.6,40.6h3.9
			V25.5h-3.9V40.6z M112.5,18.5c-1.3,0-2.3,1-2.3,2.3s1,2.3,2.3,2.3s2.4-1,2.4-2.3C114.9,19.4,113.9,18.5,112.5,18.5z M120.7,35.9
			c0-0.5,0.1-0.9,0.4-1.3c1,0.4,2.2,0.6,3.5,0.6c3.9,0,6.5-2,6.5-4.9c0-1.7-1-3.2-2.5-4.1l2.6-0.6l-0.8-2.7l-8.7,2.5h-0.1
			c-2.4,0.7-3.7,2.5-3.7,4.7c0,1.3,0.4,2.3,1.3,3.2c-1.3,1.1-2,2.6-2,3.9c0,5.7,11,2.5,11,5.5c0,1-1.1,1.4-4.1,1.4
			c-2.5,0-4.6-0.3-6.2-0.9V46c1.3,0.7,3.8,1,5.9,1c5.9,0,8.2-1.4,8.2-4.8C132,35.6,120.7,39.2,120.7,35.9z M124.6,27.7
			c1.6,0,2.7,1,2.7,2.5s-1.1,2.5-2.7,2.5s-2.7-1-2.7-2.5S123,27.7,124.6,27.7z M134.1,40.6h3.9V25.5h-3.9V40.6z M136.1,18.5
			c-1.3,0-2.3,1-2.3,2.3s1,2.3,2.3,2.3s2.4-1,2.4-2.3C138.4,19.4,137.4,18.5,136.1,18.5z M150.7,25.2c-1.7,0-3.6,0.4-5.3,1.1
			c-1-0.7-2.2-1-3.8-1v15.3h3.9V29.2c1.2-0.6,2.3-0.9,3.5-0.9c2.2,0,3.4,1.1,3.4,3.2v9.2h3.9v-9.5C156.4,27,154.3,25.2,150.7,25.2z
			 M166.1,25.2c-2.2,0-4.4,0.4-5.9,1V29c1.6-0.4,3.6-0.7,5.1-0.7c2.2,0,3.4,1.1,3.4,2.9V32c-1.2-0.4-2.5-0.6-3.6-0.6
			c-3.9,0-6.2,1.7-6.2,4.7s2.1,4.7,5.6,4.7c1.6,0,3.2-0.3,4.6-1c1,0.5,2.2,0.8,3.4,0.8v-9.9C172.6,27.2,170.2,25.2,166.1,25.2z
			 M168.7,37.5c-0.8,0.3-1.7,0.5-2.6,0.5c-1.9,0-3.1-0.7-3.1-2s1.2-2.1,3.1-2.1c0.8,0,1.7,0.1,2.6,0.5V37.5z M176.1,19.6v21h3.9
			V18.5L176.1,19.6z"/>
	</g>
</g>
<rect class="st1" width="99.4" height="11.6"/>
<g class="st2">
	<path class="st3" d="M4.7,2.2c0,0.6-0.2,1.1-0.6,1.4S3.2,4,2.4,4H1.9v2H0.7V0.4h1.8c0.7,0,1.2,0.1,1.6,0.4S4.7,1.6,4.7,2.2z
		 M1.9,3.1h0.4C2.7,3.1,3,3,3.2,2.8s0.3-0.4,0.3-0.6c0-0.3-0.1-0.5-0.2-0.6S2.8,1.4,2.5,1.4H1.9V3.1z"/>
	<path class="st3" d="M10.9,3.2c0,0.9-0.2,1.7-0.7,2.2s-1.1,0.8-2,0.8s-1.5-0.3-2-0.8S5.5,4.2,5.5,3.2S5.7,1.5,6.2,1s1.1-0.8,2-0.8
		s1.5,0.3,2,0.8S10.9,2.3,10.9,3.2z M6.8,3.2c0,0.6,0.1,1.1,0.4,1.4s0.6,0.5,1.1,0.5c1,0,1.4-0.6,1.4-1.9c0-1.3-0.5-1.9-1.4-1.9
		c-0.5,0-0.8,0.2-1.1,0.5S6.8,2.6,6.8,3.2z"/>
	<path class="st3" d="M17.7,6.1h-1.4l-0.8-3c0-0.1-0.1-0.3-0.1-0.7s-0.1-0.6-0.1-0.7c0,0.1-0.1,0.4-0.1,0.7S15,3,15,3.1l-0.8,3h-1.4
		l-1.5-5.7h1.2l0.7,3.1c0.1,0.6,0.2,1.1,0.3,1.5c0-0.1,0.1-0.4,0.1-0.7s0.1-0.6,0.2-0.7l0.8-3.2h1.1l0.8,3.2c0,0.1,0.1,0.4,0.1,0.7
		s0.1,0.5,0.1,0.8c0-0.2,0.1-0.5,0.1-0.8s0.1-0.5,0.2-0.7l0.7-3.1h1.2L17.7,6.1z"/>
	<path class="st3" d="M23.1,6.1h-3.3V0.4h3.3v1h-2.1v1.3H23v1h-1.9v1.5h2.1V6.1z"/>
	<path class="st3" d="M25.5,3.9v2.2h-1.2V0.4H26c0.8,0,1.4,0.1,1.7,0.4s0.6,0.7,0.6,1.3c0,0.3-0.1,0.6-0.3,0.9s-0.4,0.5-0.8,0.6
		c0.9,1.3,1.4,2.1,1.7,2.5h-1.3l-1.4-2.2H25.5z M25.5,2.9h0.4c0.4,0,0.7-0.1,0.8-0.2S27,2.4,27,2.1c0-0.3-0.1-0.5-0.3-0.6
		s-0.5-0.2-0.9-0.2h-0.4V2.9z"/>
	<path class="st3" d="M32.9,6.1h-3.3V0.4h3.3v1h-2.1v1.3h1.9v1h-1.9v1.5h2.1V6.1z"/>
	<path class="st3" d="M38.8,3.2c0,0.9-0.3,1.7-0.8,2.2s-1.3,0.8-2.3,0.8h-1.6V0.4h1.8c0.9,0,1.7,0.2,2.2,0.7S38.8,2.3,38.8,3.2z
		 M37.6,3.2c0-1.2-0.5-1.8-1.6-1.8h-0.6v3.7h0.5C37,5.1,37.6,4.5,37.6,3.2z"/>
	<path class="st3" d="M42.1,0.4h1.8c0.8,0,1.4,0.1,1.8,0.3s0.5,0.6,0.5,1.1c0,0.3-0.1,0.6-0.2,0.8S45.6,3,45.3,3v0
		c0.4,0.1,0.6,0.2,0.8,0.5s0.2,0.5,0.2,0.9c0,0.5-0.2,0.9-0.6,1.2s-0.9,0.4-1.5,0.4h-2.1V0.4z M43.3,2.6H44c0.3,0,0.6-0.1,0.7-0.2
		s0.2-0.3,0.2-0.5c0-0.2-0.1-0.4-0.2-0.5s-0.4-0.1-0.8-0.1h-0.6V2.6z M43.3,3.6v1.5h0.8c0.3,0,0.6-0.1,0.7-0.2s0.2-0.3,0.2-0.6
		c0-0.5-0.3-0.7-1-0.7H43.3z"/>
	<path class="st3" d="M49.2,2.7l1.2-2.4h1.3l-1.9,3.5v2.2h-1.2V3.9l-1.9-3.5h1.3L49.2,2.7z"/>
</g>
<linearGradient id="SVGID_1_" gradientUnits="userSpaceOnUse" x1="-1.238365e-02" y1="21.1" x2="51.1126" y2="21.1" gradientTransform="matrix(1 0 0 -1 0 48)">
	<stop  offset="0" style="stop-color:#81BE40"/>
	<stop  offset="1" style="stop-color:#2A9845"/>
</linearGradient>
<path class="st4" d="M37,12.7c-1.9,0-3.8,0.4-5.5,1.1c-3.6,1.4-6.2,5.3-7,6.4c-0.5,0.7-9.3,13.2-9.3,13.2c-0.7,1-1.6,1.7-2.7,2.1
	h-0.1c-0.8,0.3-1.6,0.4-2.5,0.3c-2.6-0.2-4.7-2.3-5-4.9s1.2-5,3.4-5.9l0,0c0.1,0.1,0.2,0,0.4,0c0.3-0.1,0.5-0.2,0.8-0.2
	c0.5-0.1,1-0.1,1.4-0.1h0.4L11.2,25c0,0-0.6,0.8-0.8,1.2c-0.5,0.7-1.1,1.7-1.8,2.7c-0.4,0.5-0.2,1.2,0.2,1.7l1.7,2.2
	c0.3,0.5,1.2,0.2,1.6-0.3l6.7-9.6l-2-1.4c-1.2-0.8-2.5-1.4-3.9-1.7c-1.4-0.3-2.7-0.3-4.1,0C7.5,20,6.2,20.5,5,21.3
	C3.8,22,2.8,23,2,24.2c-0.8,1.2-1.4,2.5-1.6,3.9c-0.3,1.4-0.3,2.7,0,4s0.7,2.6,1.5,3.8c0.7,1.2,1.7,2.2,2.9,3s2.5,1.4,3.8,1.6
	c1.4,0.3,2.8,0.3,4.1,0.1c1.4-0.3,2.7-0.8,3.9-1.5c1.1-0.7,2-1.6,2.8-2.7l0,0l1.9-2.7c8.1-11.5,8-11.4,8.1-11.5
	c1.3-2.1,3.2-3.4,4.2-3.8c1.1-0.5,2.3-0.7,3.6-0.7s2.5,0.2,3.6,0.7s2.1,1.1,2.9,2c0.8,0.8,1.5,1.8,2,2.9s0.7,2.3,0.7,3.6
	c0,1.3-0.2,2.5-0.7,3.6s-1.1,2.1-2,2.9c-0.8,0.8-1.8,1.5-2.9,2c-1.1,0.5-2.3,0.7-3.6,0.7s-2.5-0.2-3.6-0.7s-2.1-1.1-2.9-2
	c-0.8-0.8-1.9-3.1-2.1-3.4s-0.8-0.3-1.1,0.1c-0.1,0.2-2.1,3-2.1,3c-0.3,0.5-0.3,1,0,1.5c0.5,0.8,1.1,1.7,1.8,2.3
	c1.3,1.3,2.8,2.3,4.5,3.1c1.7,0.7,3.6,1.1,5.5,1.1c2,0,3.8-0.4,5.5-1.1c0.6-0.3,1.3-0.6,1.9-1c3.2-1.9,5.5-5.1,6.4-8.6
	c0-0.1,0-0.1,0-0.2l0.1-0.2c0-0.1,0-0.2,0.1-0.3c0-0.1,0-0.2,0.1-0.3v-0.2c0-0.1,0-0.1,0-0.2s0-0.2,0-0.2v-0.2c0-0.1,0-0.2,0-0.3
	v-0.1v-0.1c0-0.1,0-0.3,0-0.4v-0.3c0-0.1,0-0.3,0-0.4c0-2-0.4-3.8-1.1-5.5c-0.6-1.5-1.5-2.8-2.5-3.9l-0.1-0.1
	c-1.5-1.7-3.5-3-5.6-3.7c-1-0.4-2.1-0.6-3.3-0.8h-0.2h-0.3c-0.2,0-0.3,0-0.5,0C37.5,12.7,37.2,12.7,37,12.7L37,12.7z"/>
</svg>
