<?xml version="1.0" encoding="utf-8"?>
<!-- Generator: Adobe Illustrator 23.0.1, SVG Export Plug-In . SVG Version: 6.00 Build 0)  -->
<svg version="1.1" id="Layer_1" xmlns="http://www.w3.org/2000/svg" xmlns:xlink="http://www.w3.org/1999/xlink" x="0px" y="0px"
	 viewBox="0 0 50 32" style="enable-background:new 0 0 50 32;" xml:space="preserve">
<style type="text/css">
	.st0{fill-rule:evenodd;clip-rule:evenodd;fill:#FFFFFF;}
</style>
<g>
	<g>
		<path class="st0" d="M12.9,15.4c0,0,0.9,0.8,2.1,0.8c1.3,0,2-0.7,2-0.7l2.3-2.2l4.7,5.2c0.1-0.8,0.3-1.6,0.5-2.4l-3.7-4.3L28,4.6
			v5.5c0.6-0.6,1.3-1.2,2-1.7v-5c0-1.7-1.2-3-2.9-3H3c-1.7,0-3,1.4-3,3.1v17.1c0,1.7,1.3,2.9,3,2.9h21.3c-0.2-0.7-0.3-1.3-0.4-2H4
			c-0.2,0-0.3,0-0.5-0.1l7.2-8.2L12.9,15.4z M4,2.5h22c0.3,0,0.6,0.1,0.9,0.3L16.2,13.4c0,0-0.3,0.3-1.1,0.4
			c-0.7,0.1-1.2-0.3-1.2-0.3L3.1,2.7C3.4,2.6,3.7,2.5,4,2.5z M2.2,20.1c-0.1-0.2-0.1-0.4-0.1-0.6v-15c0,0,0,0,0,0l7.2,7.3L2.2,20.1z
			 M38,8c-6.6,0-12,5.4-12,12c0,6.6,5.4,12,12,12s12-5.4,12-12C50,13.4,44.6,8,38,8z M38,30c-5.5,0-10-4.5-10-10c0-5.5,4.5-10,10-10
			c5.5,0,10,4.5,10,10C48,25.5,43.5,30,38,30z M36,22.1l-3.2-3.2l-1.6,1.7l4.8,4.8l8.4-8.5l-1.6-1.7L36,22.1z"/>
	</g>
</g>
</svg>
