<?xml version="1.0" encoding="utf-8"?>
<!-- Generator: Adobe Illustrator 23.0.1, SVG Export Plug-In . SVG Version: 6.00 Build 0)  -->
<svg version="1.1" id="Layer_1" xmlns="http://www.w3.org/2000/svg" xmlns:xlink="http://www.w3.org/1999/xlink" x="0px" y="0px"
	 viewBox="0 0 212 31" style="enable-background:new 0 0 212 31;" xml:space="preserve">
<style type="text/css">
	.st0{fill:none;}
	.st1{enable-background:new    ;}
	.st2{fill:#2A9845;}
	.st3{fill:#81BE40;}
</style>
<rect class="st0" width="109.9" height="31"/>
<g class="st1">
	<path class="st2" d="M14.1,4.8c-4.9,0-8.2,3.1-8.2,7.8s3.3,7.8,8.3,7.8c1.4,0,3.8-0.3,5-0.8V23c-1.7,0.6-4.3,1-6.4,1
		C6,24,1.4,19.4,1.4,12.6S5.9,1.2,12.7,1.2c2,0,4.6,0.4,6.3,1v3.4C17.6,5.1,15.4,4.8,14.1,4.8z"/>
	<path class="st2" d="M22.6,1.2L26.8,0v23.7h-4.2V1.2z"/>
	<path class="st2" d="M30.2,15.6c0-5,3.5-8.4,8.7-8.4c5.2,0,8.7,3.4,8.7,8.4S44,24,38.9,24C33.7,24,30.2,20.6,30.2,15.6z M43.2,15.6
		c0-3.1-1.8-5.1-4.3-5.1c-2.6,0-4.4,2-4.4,5.1s1.7,5.1,4.4,5.1C41.4,20.7,43.2,18.7,43.2,15.6z"/>
	<path class="st2" d="M55.7,17.4l-1.1-0.3c-2.7-0.6-4.5-1.6-4.5-4.6c0-3.4,2.3-5.4,6.2-5.4c1.8,0,3.8,0.4,5.1,1v3
		c-1.6-0.6-3.2-0.8-4.2-0.8c-1.9,0-2.8,0.6-2.8,1.5c0,0.9,0.9,1.3,2.3,1.6l1.1,0.3c2.7,0.6,4.6,1.9,4.6,5c0,3.3-2.3,5.2-6.1,5.2
		c-1.7,0-4-0.4-5.5-1.2v-3c1.6,0.7,3.4,1,4.7,1c1.8,0,2.6-0.5,2.6-1.6C58.1,18.3,57.2,17.8,55.7,17.4z"/>
	<path class="st2" d="M65.4,2.5c0-1.4,1.1-2.5,2.5-2.5c1.4,0,2.5,1.1,2.5,2.5S69.3,5,67.9,5C66.4,5,65.4,3.9,65.4,2.5z M70,7.5v16.2
		h-4.2V7.5H70z"/>
	<path class="st2" d="M90.1,13.5v10.2h-4.2v-9.8c0-2.2-1.3-3.4-3.6-3.4c-1.3,0-2.5,0.4-3.8,1v12.2h-4.2V7.4c1.6,0,3,0.4,4,1.1
		c1.8-0.8,3.8-1.2,5.6-1.2C87.8,7.2,90.1,9.2,90.1,13.5z"/>
	<path class="st2" d="M109.1,25.5c0,3.6-2.5,5.1-8.8,5.1c-2.2,0-4.9-0.4-6.3-1.1v-2.8c1.7,0.6,4,0.9,6.7,0.9c3.1,0,4.4-0.4,4.4-1.5
		c0-3.2-11.8,0.2-11.8-5.9c0-1.5,0.8-3,2.2-4.2c-0.9-0.9-1.3-2-1.3-3.4c0-2.4,1.4-4.3,4-5c0,0,0.1,0,0.1,0l9.3-2.7l0.9,2.9l-2.8,0.6
		c1.6,1,2.6,2.5,2.6,4.4c0,3.2-2.8,5.3-7,5.3c-1.4,0-2.7-0.2-3.7-0.7c-0.3,0.4-0.5,0.9-0.5,1.4C97,22.2,109.1,18.4,109.1,25.5z
		 M104,12.6c0-1.6-1.2-2.7-2.9-2.7s-2.9,1.1-2.9,2.7s1.1,2.7,2.9,2.7C102.8,15.3,104,14.2,104,12.6z"/>
</g>
<g class="st1">
	<path class="st3" d="M126.9,4.7c-4.9,0-8.2,3.1-8.2,7.8s3.3,7.8,8.3,7.8c1.4,0,3.8-0.3,5-0.8v3.4c-1.7,0.6-4.3,1-6.4,1
		c-6.9,0-11.4-4.6-11.4-11.4s4.5-11.4,11.2-11.4c2,0,4.6,0.4,6.3,1v3.4C130.5,5,128.3,4.7,126.9,4.7z"/>
	<path class="st3" d="M149.5,17h-11.1c0.3,2.4,1.4,3.6,4.7,3.6c1.6,0,3.8-0.4,5.5-0.9v3.1c-1.6,0.7-4.2,1.1-6.5,1.1
		c-4.8,0-8-2.9-8-8.3c0-5.1,3.2-8.5,7.8-8.5c4.6,0,7.8,3.3,7.8,8.2C149.7,15.9,149.6,16.5,149.5,17z M138.4,14.3h7
		c-0.3-2.5-1.4-4-3.5-4C139.8,10.3,138.6,11.9,138.4,14.3z"/>
	<path class="st3" d="M168.8,13.5v10.2h-4.2v-9.8c0-2.2-1.3-3.4-3.6-3.4c-1.3,0-2.5,0.4-3.7,1v12.2H153V7.3c1.6,0,3,0.4,4,1.1
		c1.8-0.8,3.8-1.2,5.6-1.2C166.5,7.1,168.8,9.1,168.8,13.5z"/>
	<path class="st3" d="M182.9,20.5v3.1c-1.3,0.2-2.5,0.4-3.6,0.4c-3.3,0-5.5-2.2-5.5-5.4v-8.1h-2.3v-3h2.3V3.9l4.2-1.2v4.7h4.8v3
		h-4.8v7.4c0,1.7,1.1,2.8,2.7,2.8C181.4,20.6,182.1,20.6,182.9,20.5z"/>
	<path class="st3" d="M200.2,17H189c0.3,2.4,1.4,3.6,4.7,3.6c1.6,0,3.8-0.4,5.5-0.9v3.1c-1.6,0.7-4.2,1.1-6.4,1.1
		c-4.8,0-8-2.9-8-8.3c0-5.1,3.1-8.5,7.8-8.5c4.7,0,7.8,3.3,7.8,8.2C200.3,15.9,200.2,16.5,200.2,17z M189,14.3h7
		c-0.3-2.5-1.4-4-3.5-4C190.4,10.3,189.3,11.9,189,14.3z"/>
	<path class="st3" d="M213.1,11.1c-2.2,0-3.9,0.3-5.2,0.7v11.8h-4.2V7.3c1.5,0,2.8,0.3,3.8,1c1.7-0.8,3.5-1.1,5.6-1.1V11.1z"/>
</g>
</svg>
