<?xml version="1.0" encoding="utf-8"?>
<!-- Generator: Adobe Illustrator 23.0.1, SVG Export Plug-In . SVG Version: 6.00 Build 0)  -->
<svg version="1.1" id="Layer_1" xmlns="http://www.w3.org/2000/svg" xmlns:xlink="http://www.w3.org/1999/xlink" x="0px" y="0px"
	 viewBox="0 0 48 32" style="enable-background:new 0 0 48 32;" xml:space="preserve">
<style type="text/css">
	.st0{fill-rule:evenodd;clip-rule:evenodd;fill:#FFFFFF;}
</style>
<g>
	<g>
		<path class="st0" d="M30,0c-3.3,0-6,2.7-6,6c0,3.3,2.7,6,6,6s6-2.7,6-6C36,2.7,33.3,0,30,0z M6,0C2.7,0,0,2.7,0,6c0,3.3,2.7,6,6,6
			s6-2.7,6-6C12,2.7,9.3,0,6,0z M42,20c-3.3,0-6,2.7-6,6c0,3.3,2.7,6,6,6s6-2.7,6-6C48,22.7,45.3,20,42,20z M18,20c-3.3,0-6,2.7-6,6
			c0,3.3,2.7,6,6,6s6-2.7,6-6C24,22.7,21.3,20,18,20z"/>
	</g>
</g>
</svg>
