<?xml version="1.0" encoding="utf-8"?>
<!-- Generator: Adobe Illustrator 23.0.1, SVG Export Plug-In . SVG Version: 6.00 Build 0)  -->
<svg version="1.1" id="Layer_1" xmlns="http://www.w3.org/2000/svg" xmlns:xlink="http://www.w3.org/1999/xlink" x="0px" y="0px"
	 viewBox="0 0 29 26" style="enable-background:new 0 0 29 26;" xml:space="preserve">
<style type="text/css">
	.st0{fill-rule:evenodd;clip-rule:evenodd;fill:#8D939A;}
	.st1{fill-rule:evenodd;clip-rule:evenodd;fill:url(#SVGID_1_);}
</style>
<g>
	<g>
		<path class="st0" d="M25,9c0.1,1.3-0.5,2.5-1.7,3.7c-0.1,0.1-0.6,0.5-0.6,0.5l-4-4l-0.1,0l5.4,5.4c0,0,0.5-0.5,0.6-0.6
			c1.5-1.4,2.1-3.1,2-4.8L29,7.1L22,0l-2.5,2.5c-1.7,0-3.4,0.6-4.8,2.1c0,0,0,0-0.1,0.1l0,0c0,0-0.1,0.1-0.3,0.3l-0.4-0.4
			c0,0-1.6-1.5-4-1.4L10,3L7.6,0.7L0.5,7.8l2.2,2.1c-0.3,2.6,1.6,4.4,1.6,4.4l1,1l0,0c0,0-2.3,1.9-0.6,3.5c0.7,0.7,1.9,0.5,1.9,0.5
			S6.3,20.3,7,21.1c1,1.2,2.3,0.3,2.3,0.3s-0.5,0.7,0.4,1.6c0.8,0.7,2.1,0.3,2.1,0.3s-0.2,0.8,0.8,1.6c1.2,1,2.8-0.2,3.2-0.3
			c0.2-0.1,1.3-1.4,1.8-2l0.2,0.2c0,0,1.5,0.9,2.5-0.3c0.7-0.8,0.6-2,0.6-2s1.3,0.5,2-0.3c0.6-0.6,0.3-1.4,0.3-1.4s0.9,0.8,2-0.6
			c0.9-1,0.2-2.3-0.9-3.3l-5.6-5.6L17.1,10l3.8,3.8l0,0l2.7,2.6c0.3,0.3,0.1,0.8-0.1,1.1c-0.3,0.3-0.7,0.2-1,0l-2.7-2.5l-0.9,0.9
			l2.7,2.6c0.4,0.4,0.4,1,0.2,1.3c-0.3,0.3-0.8,0.2-1.2-0.2l-2.8-2.6l-0.4,0.4l-0.5,0.6c0.1,0,0.3,0.1,0.4,0.2l2,2
			c0.3,0.3,0.5,0.8,0.1,1.2c-0.3,0.4-0.9,0.1-1.1-0.1l-0.4-0.4c-0.1-0.3-0.3-0.6-0.6-1c-0.3-0.3-0.6-0.4-0.9-0.5l0,0
			c-0.1-0.1-0.2-0.3-0.2-0.4l-0.2,0.2c0.2-0.3,0.5-1-0.2-1.8c-0.7-0.8-1.6-0.4-1.6-0.4s0.7-0.9-0.3-2c-1.2-1.4-2.8,0.2-2.8,0.2
			s-0.3-0.8-0.7-1.2c-1.4-1.2-2.5-0.2-2.5-0.2l-0.6,0.6l-0.9-0.9c-1.2-1-1.6-2.4-1.4-3.8L2.8,7.7L7.6,3l2,1.8C11,4.6,12.3,5,13,5.8
			l0.2,0.2c-0.8,0.8-1.7,1.7-1.7,1.7s-0.7,1,0,1.8c0.8,1,2.6,1.6,4.1,0.6c0.5-0.4,0.3-1.3,1.6-1.6c0.6-0.2,0.3-0.2,1.5,0.1
			C20,9,21.3,8.4,21.3,8.3l-0.6-1.6c-0.5,0.3-1.1,0.9-3,0.1c-0.6-0.2-1.1,0.2-2.2,1.3c-1.3,1.3-1.8,1.5-2.2,1c-0.3-0.4-0.1-1-0.1-1
			s0.5-0.5,1.1-1.1l0.1,0.1l1.1-1L15.3,6c0,0,0,0,0,0l0.1,0.1l0.3-0.2l0,0c0.1-0.1,0.2-0.2,0.3-0.3c1.3-1.4,2.7-1.9,4.2-1.6L22,2.3
			L27,6.9l-1.9,2.2L25,9z M16.1,20.6c0,0,0.5,0.7,0.1,1.1l-1.8,2c-0.4,0.4-0.9,0.4-1.4,0c-0.5-0.4,0-1,0.2-1.2l1.9-2
			C15.3,20.2,15.8,20.4,16.1,20.6z M14.3,17.9c0.7,0.6,0.3,1.3-0.2,1.7L12,21.9c-0.4,0.4-1.1,0.1-1.4-0.2s-0.1-0.9,0.1-1.1l2.1-2.1
			C13,18.3,13.8,17.5,14.3,17.9z M11.3,15.6c0.2-0.2,0.8-0.3,1.2,0.1c0.3,0.3,0.4,0.7,0,1.2l-2.9,3.1c-0.5,0.5-1,0.5-1.4,0.2
			c-0.4-0.3-0.2-1,0-1.3L11.3,15.6z M6,16.7l1.9-1.9c0.2-0.2,0.8-0.4,1.2,0l0,0c0.5,0.4,0.3,0.9,0.1,1.1l-1.8,1.9
			c-0.4,0.4-1,0.7-1.5,0.2S5.8,16.9,6,16.7z"/>
	</g>
</g>
</svg>
