<?xml version="1.0" encoding="utf-8"?>
<!-- Generator: Adobe Illustrator 23.0.1, SVG Export Plug-In . SVG Version: 6.00 Build 0)  -->
<svg version="1.1" id="Layer_1" xmlns="http://www.w3.org/2000/svg" xmlns:xlink="http://www.w3.org/1999/xlink" x="0px" y="0px"
	 viewBox="0 0 32 22" style="enable-background:new 0 0 32 22;" xml:space="preserve">
<style type="text/css">
	.st0{fill-rule:evenodd;clip-rule:evenodd;fill:#5A5E5A;}
	.st1{fill-rule:evenodd;clip-rule:evenodd;fill:#8D939A;}
	.st2{fill-rule:evenodd;clip-rule:evenodd;fill:#5B5F5B;}
	.st3{fill-rule:evenodd;clip-rule:evenodd;fill:#F52022;}
</style>
<g>
	<g>
		<path class="st3" d="M16,5c-1.2,0-1.2,1-1.2,1l0.5,7.6h1.5L17.3,6C17.3,6,17.2,5,16,5z M16,0C9.9,0,5,4.9,5,11c0,6.1,4.9,11,11,11
			c6.1,0,11-4.9,11-11C27,4.9,22.1,0,16,0z M16,20c-5,0-9-4-9-9c0-5,4-9,9-9c5,0,9,4,9,9C25,16,21,20,16,20z M16,14.8
			c-0.6,0-1.1,0.5-1.1,1.1c0,0.6,0.5,1.1,1.1,1.1s1.1-0.5,1.1-1.1C17.1,15.3,16.6,14.8,16,14.8z"/>
	</g>
</g>
</svg>
