<?xml version="1.0" encoding="utf-8"?>
<!-- Generator: Adobe Illustrator 23.0.1, SVG Export Plug-In . SVG Version: 6.00 Build 0)  -->
<svg version="1.1" id="Layer_1" xmlns="http://www.w3.org/2000/svg" xmlns:xlink="http://www.w3.org/1999/xlink" x="0px" y="0px"
	 viewBox="0 0 18 18" style="enable-background:new 0 0 18 18;" xml:space="preserve">
<style type="text/css">
	.st0{fill-rule:evenodd;clip-rule:evenodd;fill:#8D939A;}
	.st1{fill:#8D939A;}
</style>
<g>
	<g>
		<path class="st0" d="M15.5,3h-13C1.7,3,1,3.7,1,4.5v9.1C1,14.4,1.7,15,2.5,15h13c0.8,0,1.5-0.6,1.5-1.4v-9C17,3.7,16.3,3,15.5,3z
			 M14.3,4.6L9.8,9.1c0,0-0.6,0.7-0.8,0.7c-0.1,0-0.9-0.7-0.9-0.7L3.5,4.6c0,0,0,0,0,0H14.3z M2.5,12.5V5.9l3.4,3.2l-3.3,3.5
			C2.6,12.6,2.5,12.5,2.5,12.5z M3.6,13.5c0,0-0.1,0-0.1,0L6.9,10l0.6,0.6c0,0,0.8,0.9,1.5,0.9c0.6,0,1.3-0.9,1.3-0.9l0.8-0.8
			l3.2,3.6H3.6z M15.5,12.5c0,0.1,0,0.1,0,0.2L12,9l3.4-3.6c0,0,0,0.1,0,0.1V12.5z"/>
	</g>
</g>
</svg>
