<?xml version="1.0" encoding="utf-8"?>
<!-- Generator: Adobe Illustrator 23.0.1, SVG Export Plug-In . SVG Version: 6.00 Build 0)  -->
<svg version="1.1" id="Layer_1" xmlns="http://www.w3.org/2000/svg" xmlns:xlink="http://www.w3.org/1999/xlink" x="0px" y="0px"
	 viewBox="0 0 23 27" style="enable-background:new 0 0 23 27;" xml:space="preserve">
<style type="text/css">
	.st0{fill-rule:evenodd;clip-rule:evenodd;fill:#5A5E5A;}
</style>
<g>
	<g>
		<path class="st0" d="M11.9,14.9c0,0,0.8,0.2,1.1,0c0.5-0.3,0.4-1,0.4-1l-1.3-4.3l3.3-3.5c0,0,0.2-0.4,0.2-0.8
			C15.7,5,15.1,5,15.1,5h-4.2L8.8,1c0,0-0.2-0.5-0.7-0.5S7.3,1,7.3,1L5.5,5H0.9c0,0-0.4,0.1-0.4,0.5c0,0.3,0.2,0.7,0.2,0.7l3.4,3.4
			L2.8,14c0,0-0.2,0.7,0.2,1c0.3,0.2,1.3,0,1.3,0l3.8-2.3L11.9,14.9z M3.8,7h3l1.3-3l1.3,3l3,0.1l-2.5,2l1.1,3.3l-3-1.9l-3,1.9
			L6.1,9L3.8,7z M15,17h-5v1h5V17z M20,12v13H9v2h13V12H20z M19,9h-3.8v2H17v11H8v-6H6v8h13V9z M10,20h5v-1h-5V20z"/>
	</g>
</g>
</svg>
