<?xml version="1.0" encoding="utf-8"?>
<!-- Generator: Adobe Illustrator 23.0.1, SVG Export Plug-In . SVG Version: 6.00 Build 0)  -->
<svg version="1.1" id="Layer_1" xmlns="http://www.w3.org/2000/svg" xmlns:xlink="http://www.w3.org/1999/xlink" x="0px" y="0px"
	 viewBox="0 0 18 18" style="enable-background:new 0 0 18 18;" xml:space="preserve">
<style type="text/css">
	.st0{fill-rule:evenodd;clip-rule:evenodd;fill:#8D939A;}
	.st1{fill:#8D939A;}
</style>
<g>
	<g>
		<path class="st0" d="M9.1,1.1c-4.4,0-8,3.6-8,8c0,4.4,3.6,8,8,8c4.4,0,8-3.6,8-8C17.1,4.7,13.5,1.1,9.1,1.1z M14.6,5.6H12
			c-0.4-1.3-1-2.4-1.2-2.7C12.4,3.3,13.8,4.3,14.6,5.6z M9.1,2.7c0.2,0.4,0.7,1.5,1.2,2.9H8C8.4,4.2,8.9,3.1,9.1,2.7z M7.2,3
			c-0.2,0.5-0.7,1.5-1,2.6H3.7C4.6,4.4,5.8,3.5,7.2,3z M2.9,11c-0.2-0.6-0.3-1.2-0.3-1.8c0-0.6,0.1-1.3,0.3-1.8h2.8
			C5.6,7.9,5.6,8.5,5.6,9.1c0,0.6,0.1,1.3,0.2,1.9L2.9,11z M3.7,12.8h2.5C6.6,14,7.1,15,7.3,15.4C5.8,15,4.6,14,3.7,12.8z M7.4,9.2
			c0-0.6,0.1-1.2,0.2-1.8h3.2c0.1,0.6,0.2,1.2,0.2,1.8c0,0.6-0.1,1.2-0.2,1.8l-3.2,0C7.4,10.4,7.4,9.8,7.4,9.2z M7.9,12.8h2.4
			c-0.4,1.4-0.9,2.5-1.2,3c-0.1,0-0.1,0-0.2,0C8.8,15.2,8.3,14.1,7.9,12.8z M11.1,15.4c0.2-0.5,0.6-1.5,1-2.7h2.6
			C13.8,14,12.6,15,11.1,15.4z M12.5,11c0.1-0.6,0.2-1.3,0.2-1.9c0-0.6-0.1-1.1-0.2-1.7h2.9c0.2,0.6,0.3,1.2,0.3,1.8
			c0,0.6-0.1,1.3-0.3,1.8L12.5,11z"/>
	</g>
</g>
</svg>
