<?xml version="1.0" encoding="utf-8"?>
<!-- Generator: Adobe Illustrator 23.0.1, SVG Export Plug-In . SVG Version: 6.00 Build 0)  -->
<svg version="1.1" id="Layer_1" xmlns="http://www.w3.org/2000/svg" xmlns:xlink="http://www.w3.org/1999/xlink" x="0px" y="0px"
	 viewBox="0 0 100 30" style="enable-background:new 0 0 100 30;" xml:space="preserve">
<style type="text/css">
	.st0{fill:#5A5E5A;}
	.st1{fill:none;}
	.st2{enable-background:new    ;}
	.st3{fill:#80878F;}
	.st4{fill:url(#SVGID_1_);}
</style>
<g>
	<g>
		<path class="st0" d="M36.9,17.2c-2.4,0-4,1.8-4,4.4c0,2.8,1.6,4.2,4.1,4.2c1.2,0,2.5-0.2,3.3-0.6v-1.6c-0.9,0.3-2,0.5-2.8,0.5
			c-1.7,0-2.2-0.6-2.4-1.8h5.7c0-0.2,0.1-0.6,0.1-0.9C40.9,18.9,39.3,17.2,36.9,17.2z M35.1,20.9c0.1-1.2,0.7-2.1,1.8-2.1
			s1.7,0.8,1.8,2.1H35.1z M48.1,14.2c-3.6,0-6,2.3-6,5.9c0,3.5,2.4,5.9,6,5.9s6-2.3,6-5.9S51.7,14.2,48.1,14.2z M48.1,24
			c-2.2,0-3.7-1.6-3.7-4s1.5-4,3.7-4s3.7,1.6,3.7,4S50.3,24,48.1,24z M55.8,17.3v8.4H58v-6.1c0.7-0.2,1.6-0.4,2.7-0.4v-2
			c-1.1,0-2,0.2-2.9,0.6C57.2,17.5,56.6,17.3,55.8,17.3z M61.8,25.7H64v-8.3h-2.2V25.7z M62.8,13.5c-0.7,0-1.3,0.5-1.3,1.3
			c0,0.7,0.5,1.3,1.3,1.3c0.7,0,1.3-0.5,1.3-1.3C64.1,14.1,63.6,13.5,62.8,13.5z M67.3,23.1c0-0.3,0.1-0.5,0.2-0.7
			c0.5,0.2,1.2,0.4,1.9,0.4c2.2,0,3.6-1.1,3.6-2.7c0-1-0.5-1.7-1.4-2.2l1.4-0.3L72.7,16L68,17.4l0,0c-1.3,0.4-2,1.4-2,2.6
			c0,0.7,0.2,1.3,0.7,1.7c-0.7,0.6-1.1,1.4-1.1,2.2c0,3.1,6.1,1.4,6.1,3c0,0.5-0.6,0.8-2.2,0.8c-1.4,0-2.6-0.2-3.4-0.5v1.4
			c0.7,0.4,2.1,0.6,3.2,0.6c3.2,0,4.5-0.8,4.5-2.6C73.6,23,67.3,25,67.3,23.1z M69.5,18.6c0.9,0,1.5,0.6,1.5,1.4s-0.6,1.4-1.5,1.4
			S68,20.8,68,20S68.6,18.6,69.5,18.6z M74.7,25.7h2.2v-8.3h-2.2V25.7z M75.8,13.5c-0.7,0-1.3,0.5-1.3,1.3c0,0.7,0.5,1.3,1.3,1.3
			c0.7,0,1.3-0.5,1.3-1.3C77.1,14.1,76.5,13.5,75.8,13.5z M83.9,17.2c-0.9,0-2,0.2-2.9,0.6c-0.5-0.4-1.2-0.6-2.1-0.6v8.4H81v-6.3
			c0.7-0.3,1.2-0.5,1.9-0.5c1.2,0,1.8,0.6,1.8,1.7v5H87v-5.2C87,18.3,85.8,17.2,83.9,17.2z M92.3,17.2c-1.2,0-2.4,0.2-3.2,0.5v1.6
			c0.9-0.2,2-0.4,2.8-0.4c1.2,0,1.9,0.6,1.9,1.6V21c-0.7-0.2-1.4-0.3-2-0.3c-2.1,0-3.4,1-3.4,2.6s1.2,2.6,3.1,2.6
			c0.9,0,1.8-0.2,2.6-0.5c0.5,0.3,1.2,0.4,1.9,0.4v-5.5C95.9,18.4,94.6,17.2,92.3,17.2z M93.7,24c-0.5,0.2-1,0.3-1.4,0.3
			c-1,0-1.7-0.4-1.7-1.1s0.6-1.1,1.7-1.1c0.4,0,0.9,0.1,1.4,0.3V24z M97.8,14.2v11.5h2.2V13.5L97.8,14.2z"/>
	</g>
</g>
<rect class="st1" width="63" height="9"/>
<g class="st2">
	<path class="st3" d="M4.7,2.2c0,0.6-0.2,1.1-0.6,1.4S3.2,4,2.4,4H1.9v2H0.7V0.4h1.8c0.7,0,1.2,0.1,1.6,0.4S4.7,1.6,4.7,2.2z
		 M1.9,3.1h0.4C2.7,3.1,3,3,3.2,2.8s0.3-0.4,0.3-0.6c0-0.3-0.1-0.5-0.2-0.6S2.8,1.4,2.5,1.4H1.9V3.1z"/>
	<path class="st3" d="M10.9,3.2c0,0.9-0.2,1.7-0.7,2.2s-1.1,0.8-2,0.8s-1.5-0.3-2-0.8S5.5,4.2,5.5,3.2S5.7,1.5,6.2,1s1.1-0.8,2-0.8
		s1.5,0.3,2,0.8S10.9,2.3,10.9,3.2z M6.8,3.2c0,0.6,0.1,1.1,0.4,1.4s0.6,0.5,1.1,0.5c1,0,1.4-0.6,1.4-1.9c0-1.3-0.5-1.9-1.4-1.9
		c-0.5,0-0.8,0.2-1.1,0.5S6.8,2.6,6.8,3.2z"/>
	<path class="st3" d="M17.7,6.1h-1.4l-0.8-3c0-0.1-0.1-0.3-0.1-0.7s-0.1-0.6-0.1-0.7c0,0.1-0.1,0.4-0.1,0.7S15,3,15,3.1l-0.8,3h-1.4
		l-1.5-5.7h1.2l0.7,3.1c0.1,0.6,0.2,1.1,0.3,1.5c0-0.1,0.1-0.4,0.1-0.7s0.1-0.6,0.2-0.7l0.8-3.2h1.1l0.8,3.2c0,0.1,0.1,0.4,0.1,0.7
		s0.1,0.5,0.1,0.8c0-0.2,0.1-0.5,0.1-0.8s0.1-0.5,0.2-0.7l0.7-3.1h1.2L17.7,6.1z"/>
	<path class="st3" d="M23.1,6.1h-3.3V0.4h3.3v1h-2.1v1.3H23v1h-1.9v1.5h2.1V6.1z"/>
	<path class="st3" d="M25.5,3.9v2.2h-1.2V0.4H26c0.8,0,1.4,0.1,1.7,0.4s0.6,0.7,0.6,1.3c0,0.3-0.1,0.6-0.3,0.9s-0.4,0.5-0.8,0.6
		c0.9,1.3,1.4,2.1,1.7,2.5h-1.3l-1.4-2.2H25.5z M25.5,2.9h0.4c0.4,0,0.7-0.1,0.8-0.2S27,2.4,27,2.1c0-0.3-0.1-0.5-0.3-0.6
		s-0.5-0.2-0.9-0.2h-0.4V2.9z"/>
	<path class="st3" d="M32.9,6.1h-3.3V0.4h3.3v1h-2.1v1.3h1.9v1h-1.9v1.5h2.1V6.1z"/>
	<path class="st3" d="M38.8,3.2c0,0.9-0.3,1.7-0.8,2.2s-1.3,0.8-2.3,0.8h-1.6V0.4h1.8c0.9,0,1.7,0.2,2.2,0.7S38.8,2.3,38.8,3.2z
		 M37.6,3.2c0-1.2-0.5-1.8-1.6-1.8h-0.6v3.7h0.5C37,5.1,37.6,4.5,37.6,3.2z"/>
	<path class="st3" d="M42.1,0.4h1.8c0.8,0,1.4,0.1,1.8,0.3s0.5,0.6,0.5,1.1c0,0.3-0.1,0.6-0.2,0.8S45.6,3,45.3,3v0
		c0.4,0.1,0.6,0.2,0.8,0.5s0.2,0.5,0.2,0.9c0,0.5-0.2,0.9-0.6,1.2s-0.9,0.4-1.5,0.4h-2.1V0.4z M43.3,2.6H44c0.3,0,0.6-0.1,0.7-0.2
		s0.2-0.3,0.2-0.5c0-0.2-0.1-0.4-0.2-0.5s-0.4-0.1-0.8-0.1h-0.6V2.6z M43.3,3.6v1.5h0.8c0.3,0,0.6-0.1,0.7-0.2s0.2-0.3,0.2-0.6
		c0-0.5-0.3-0.7-1-0.7H43.3z"/>
	<path class="st3" d="M49.2,2.7l1.2-2.4h1.3l-1.9,3.5v2.2h-1.2V3.9l-1.9-3.5h1.3L49.2,2.7z"/>
</g>
<linearGradient id="SVGID_1_" gradientUnits="userSpaceOnUse" x1="2.499931e-02" y1="11.8" x2="28.275" y2="11.8" gradientTransform="matrix(1 0 0 -1 0 30)">
	<stop  offset="0" style="stop-color:#81BB3F"/>
	<stop  offset="1" style="stop-color:#299343"/>
</linearGradient>
<path class="st4" d="M20.4,10.4c-1.1,0-2.1,0.2-3,0.6c-2,0.8-3.4,2.9-3.9,3.5c-0.3,0.4-5.1,7.3-5.1,7.3c-0.4,0.6-0.9,1-1.5,1.2
	c0,0,0,0-0.1,0c-0.4,0.2-0.9,0.2-1.4,0.2C4,23,2.9,21.9,2.7,20.5c-0.2-1.5,0.6-2.7,1.9-3.3l0,0c0.1,0,0.2-0.1,0.3-0.1
	C5,17.1,5.2,17,5.3,17c0.2,0,0.5,0,0.7,0h0.2l-0.1,0.1c0,0-0.3,0.4-0.5,0.7c-0.3,0.4-0.6,0.9-1,1.5c-0.2,0.3-0.1,0.7,0.1,0.9
	l0.9,1.2c0.2,0.3,0.7,0.1,0.9-0.2l3.7-5.3l-1.1-0.8c-0.7-0.5-1.4-0.8-2.1-0.9c-0.8-0.1-1.5-0.2-2.2,0c-0.7,0.1-1.4,0.4-2.1,0.8
	C2,15.4,1.5,16,1,16.6c-0.5,0.7-0.8,1.4-0.9,2.1s-0.1,1.5,0,2.2s0.4,1.4,0.8,2.1s0.9,1.2,1.6,1.7c0.6,0.4,1.4,0.7,2.1,0.9
	c0.8,0.2,1.5,0.2,2.3,0C7.7,25.7,8.4,25.4,9,25s1.1-0.9,1.5-1.5l0,0l1-1.5c4.5-6.3,4.4-6.3,4.5-6.4c0.7-1.1,1.8-1.9,2.3-2.1
	c0.6-0.3,1.3-0.4,2-0.4s1.4,0.1,2,0.4c0.6,0.3,1.2,0.6,1.6,1.1c0.5,0.5,0.8,1,1.1,1.6c0.3,0.6,0.4,1.3,0.4,2s-0.1,1.4-0.4,2
	s-0.6,1.2-1.1,1.6c-0.5,0.5-1,0.8-1.6,1.1c-0.6,0.3-1.3,0.4-2,0.4s-1.4-0.1-2-0.4s-1.2-0.6-1.6-1.1c-0.5-0.5-1.1-1.7-1.2-1.9
	c-0.1-0.2-0.4-0.2-0.6,0.1c-0.1,0.1-1.1,1.6-1.1,1.6c-0.2,0.2-0.2,0.6,0,0.8c0.3,0.4,0.6,0.9,1,1.3c0.7,0.7,1.5,1.3,2.5,1.7
	c0.9,0.4,2,0.6,3,0.6c1.1,0,2.1-0.2,3-0.6c0.4-0.2,0.7-0.3,1-0.5c1.7-1.1,3-2.8,3.5-4.8V20v-0.1v-0.1c0-0.1,0-0.1,0-0.2v-0.1v-0.1
	v-0.1v-0.1v-0.1V19v-0.1c0-0.1,0-0.2,0-0.2v-0.2c0-0.1,0-0.1,0-0.2c0-1.1-0.2-2.1-0.6-3c-0.3-0.8-0.8-1.5-1.4-2.2V13
	c-0.8-0.9-1.9-1.6-3.1-2.1c-0.6-0.2-1.2-0.4-1.8-0.4h-0.1h-0.1C20.6,10.5,20.5,10.5,20.4,10.4C20.7,10.4,20.6,10.4,20.4,10.4
	L20.4,10.4z"/>
</svg>
