<?xml version="1.0" encoding="utf-8"?>
<!-- Generator: Adobe Illustrator 23.0.1, SVG Export Plug-In . SVG Version: 6.00 Build 0)  -->
<svg version="1.1" id="Layer_1" xmlns="http://www.w3.org/2000/svg" xmlns:xlink="http://www.w3.org/1999/xlink" x="0px" y="0px"
	 viewBox="0 0 15 16" style="enable-background:new 0 0 15 16;" xml:space="preserve">
<style type="text/css">
	.st0{fill-rule:evenodd;clip-rule:evenodd;fill:url(#SVGID_1_);}
</style>
<g>
	<g>
		<linearGradient id="SVGID_1_" gradientUnits="userSpaceOnUse" x1="7.5" y1="0" x2="7.5" y2="16">
			<stop  offset="0" style="stop-color:#81C241"/>
			<stop  offset="1" style="stop-color:#2EA049"/>
		</linearGradient>
		<path class="st0" d="M4,5h7V4H4V5z M11.5,0H3.4C1.2,0,0,1.2,0,3.4v5.2C0,10.8,1.3,12,3.5,12H5l4.2,4H11v-4h0.9
			c2.2,0,3.1-1,3.1-3.2V3.2C15,1,13.7,0,11.5,0z M13,8.4c0,1.1-0.5,1.6-1.6,1.6H9v3.1L6,10H3.7C2.6,10,2,9.6,2,8.5v-5
			C2,2.4,2.5,2,3.6,2h7.6C12.4,2,13,2.6,13,3.8V8.4z M4,7h7V6H4V7z"/>
	</g>
</g>
</svg>
