<?xml version="1.0" encoding="utf-8"?>
<!-- Generator: Adobe Illustrator 23.0.1, SVG Export Plug-In . SVG Version: 6.00 Build 0)  -->
<svg version="1.1" id="Layer_1" xmlns="http://www.w3.org/2000/svg" xmlns:xlink="http://www.w3.org/1999/xlink" x="0px" y="0px"
	 viewBox="0 0 18 18" style="enable-background:new 0 0 18 18;" xml:space="preserve">
<style type="text/css">
	.st0{fill-rule:evenodd;clip-rule:evenodd;fill:#8D939A;}
	.st1{fill:#8D939A;}
</style>
<g>
	<g>
		<path class="st0" d="M9,0.4c-3.6,0-6.5,2.9-6.5,6.5c0,1.5,0.5,2.9,1.4,4l4.7,6.7h0.8l4.6-6.4c1-1.1,1.6-2.6,1.6-4.2
			C15.5,3.3,12.6,0.4,9,0.4z M12.8,9.6L9,15L5.2,9.6h0c-0.6-0.8-1-1.8-1-2.9C4.2,4.1,6.4,2,9,2c2.6,0,4.8,2.1,4.8,4.8
			C13.7,7.8,13.4,8.8,12.8,9.6L12.8,9.6z M9,5.3C8.2,5.3,7.5,6,7.5,6.9S8.2,8.5,9,8.5c0.9,0,1.5-0.7,1.5-1.6S9.9,5.3,9,5.3z"/>
	</g>
</g>
</svg>
