<?xml version="1.0" encoding="utf-8"?>
<!-- Generator: Adobe Illustrator 23.0.1, SVG Export Plug-In . SVG Version: 6.00 Build 0)  -->
<svg version="1.1" id="Layer_1" xmlns="http://www.w3.org/2000/svg" xmlns:xlink="http://www.w3.org/1999/xlink" x="0px" y="0px"
	 viewBox="0 0 320 31" style="enable-background:new 0 0 320 31;" xml:space="preserve">
<style type="text/css">
	.st0{fill:none;}
	.st1{enable-background:new    ;}
	.st2{fill:#6AAA44;}
</style>
<rect x="56.5" class="st0" width="109.9" height="31"/>
<g class="st1">
	<path class="st2" d="M22.5,12.7c0,6.7-4.4,11.1-10.9,11.1H2.7V1.6h8.8C18.1,1.6,22.5,6,22.5,12.7z M18,12.7c0-4.5-2.6-7.5-6.4-7.5
		H7.1v15h4.4C15.4,20.2,18,17.2,18,12.7z"/>
	<path class="st2" d="M25.4,2.6c0-1.4,1-2.5,2.5-2.5s2.5,1.1,2.5,2.5s-1.1,2.5-2.5,2.5S25.4,4,25.4,2.6z M30,7.6v16.2h-4.2V7.6H30z"
		/>
	<path class="st2" d="M49.3,25.6c0,3.6-2.5,5.1-8.8,5.1c-2.2,0-4.9-0.4-6.3-1.1v-2.8c1.7,0.6,4,0.9,6.7,0.9c3.1,0,4.3-0.4,4.3-1.5
		c0-3.2-11.8,0.2-11.8-5.9c0-1.5,0.8-3,2.2-4.2c-0.9-0.9-1.4-2-1.4-3.4c0-2.4,1.4-4.3,4-5c0,0,0.1,0,0.1,0l9.3-2.7l0.9,2.9l-2.8,0.6
		c1.6,1,2.6,2.5,2.6,4.4c0,3.2-2.8,5.3-7,5.3c-1.4,0-2.7-0.2-3.8-0.7c-0.3,0.4-0.4,0.9-0.4,1.4C37.1,22.3,49.3,18.5,49.3,25.6z
		 M44.1,12.7c0-1.6-1.2-2.7-2.9-2.7c-1.7,0-2.9,1.1-2.9,2.7s1.1,2.7,2.9,2.7C43,15.4,44.1,14.3,44.1,12.7z"/>
	<path class="st2" d="M51.7,2.6c0-1.4,1.1-2.5,2.5-2.5c1.4,0,2.5,1.1,2.5,2.5s-1.1,2.5-2.5,2.5C52.8,5.1,51.7,4,51.7,2.6z M56.3,7.6
		v16.2h-4.2V7.6H56.3z"/>
	<path class="st2" d="M70.8,20.7v3.1c-1.3,0.2-2.5,0.4-3.6,0.4c-3.3,0-5.5-2.2-5.5-5.4v-8.1h-2.3v-3h2.3V4.1l4.2-1.2v4.7h4.8v3h-4.8
		V18c0,1.7,1.1,2.8,2.7,2.8C69.3,20.8,70,20.7,70.8,20.7z"/>
	<path class="st2" d="M87.1,24c-1.3,0-2.6-0.3-3.7-0.9c-1.5,0.7-3.3,1-5,1c-3.7,0-6-1.9-6-5c0-3.2,2.4-5,6.6-5
		c1.2,0,2.5,0.2,3.8,0.6v-1c0-2-1.3-3.1-3.6-3.1c-1.7,0-3.7,0.3-5.5,0.8V8.3c1.6-0.6,4-1,6.3-1c4.4,0,7,2.2,7,6V24z M80.2,21.1
		c0.9,0,1.9-0.2,2.8-0.5v-3.2c-1-0.4-1.9-0.6-2.8-0.6c-2,0-3.3,0.8-3.3,2.2C76.9,20.3,78.1,21.1,80.2,21.1z"/>
	<path class="st2" d="M91.3,1.3l4.2-1.2v23.7h-4.2V1.3z"/>
	<path class="st2" d="M119.4,4.9c-4.9,0-8.2,3.1-8.2,7.8c0,4.7,3.3,7.8,8.3,7.8c1.4,0,3.8-0.3,5-0.8V23c-1.7,0.6-4.3,1-6.4,1
		c-6.9,0-11.4-4.6-11.4-11.4c0-6.8,4.5-11.4,11.2-11.4c2,0,4.6,0.4,6.3,1v3.4C122.9,5.2,120.7,4.9,119.4,4.9z"/>
	<path class="st2" d="M127.9,1.3l4.2-1.2v23.7h-4.2V1.3z"/>
	<path class="st2" d="M135.5,15.7c0-5,3.5-8.4,8.7-8.4c5.2,0,8.7,3.4,8.7,8.4c0,5-3.5,8.4-8.7,8.4C139,24.1,135.5,20.7,135.5,15.7z
		 M148.5,15.7c0-3.1-1.8-5.1-4.3-5.1c-2.6,0-4.3,2-4.3,5.1c0,3.1,1.7,5.1,4.3,5.1C146.7,20.8,148.5,18.8,148.5,15.7z"/>
	<path class="st2" d="M161,17.5l-1.1-0.3c-2.7-0.6-4.5-1.6-4.5-4.6c0-3.4,2.3-5.4,6.2-5.4c1.8,0,3.8,0.4,5.1,1v3
		c-1.6-0.6-3.2-0.8-4.2-0.8c-1.9,0-2.8,0.6-2.8,1.5c0,0.9,0.9,1.3,2.3,1.6l1.1,0.3c2.7,0.6,4.6,1.9,4.6,5c0,3.3-2.3,5.2-6.1,5.2
		c-1.7,0-4-0.4-5.5-1.2v-3c1.6,0.7,3.4,1,4.7,1c1.8,0,2.6-0.5,2.6-1.6C163.4,18.4,162.5,17.9,161,17.5z"/>
	<path class="st2" d="M170.7,2.6c0-1.4,1.1-2.5,2.5-2.5c1.4,0,2.5,1.1,2.5,2.5s-1.1,2.5-2.5,2.5C171.7,5.1,170.7,4,170.7,2.6z
		 M175.3,7.6v16.2h-4.2V7.6H175.3z"/>
	<path class="st2" d="M195.4,13.6v10.2h-4.2V14c0-2.2-1.3-3.4-3.6-3.4c-1.3,0-2.5,0.4-3.8,1v12.2h-4.2V7.5c1.6,0,3,0.4,4,1.1
		c1.8-0.8,3.8-1.2,5.6-1.2C193.1,7.3,195.4,9.3,195.4,13.6z"/>
	<path class="st2" d="M214.4,25.6c0,3.6-2.5,5.1-8.8,5.1c-2.2,0-4.9-0.4-6.3-1.1v-2.8c1.7,0.6,4,0.9,6.7,0.9c3.1,0,4.4-0.4,4.4-1.5
		c0-3.2-11.8,0.2-11.8-5.9c0-1.5,0.8-3,2.2-4.2c-0.9-0.9-1.3-2-1.3-3.4c0-2.4,1.4-4.3,4-5c0,0,0.1,0,0.1,0l9.3-2.7l0.9,2.9l-2.8,0.6
		c1.6,1,2.6,2.5,2.6,4.4c0,3.2-2.8,5.3-7,5.3c-1.4,0-2.7-0.2-3.8-0.7c-0.3,0.4-0.5,0.9-0.5,1.4C202.3,22.3,214.4,18.5,214.4,25.6z
		 M209.3,12.7c0-1.6-1.2-2.7-2.9-2.7s-2.9,1.1-2.9,2.7s1.1,2.7,2.9,2.7C208.1,15.4,209.3,14.3,209.3,12.7z"/>
	<path class="st2" d="M242.4,9c0,4.7-3.2,7.7-8,7.7h-4.5v7h-4.4V1.6h9.1C239.2,1.6,242.4,4.6,242.4,9z M237.9,9.2c0-2.4-1.5-4-3.8-4
		h-4.2v7.9h4.2C236.4,13.2,237.9,11.6,237.9,9.2z"/>
	<path class="st2" d="M244,15.7c0-5,3.5-8.4,8.7-8.4c5.2,0,8.7,3.4,8.7,8.4c0,5-3.5,8.4-8.7,8.4C247.5,24.1,244,20.7,244,15.7z
		 M257.1,15.7c0-3.1-1.8-5.1-4.3-5.1c-2.6,0-4.3,2-4.3,5.1c0,3.1,1.7,5.1,4.3,5.1C255.3,20.8,257.1,18.8,257.1,15.7z"/>
	<path class="st2" d="M274.3,11.3c-2.2,0-3.9,0.3-5.2,0.7v11.8h-4.2V7.5c1.5,0,2.8,0.3,3.8,1c1.7-0.8,3.5-1.1,5.6-1.1V11.3z"/>
	<path class="st2" d="M287.1,20.7v3.1c-1.3,0.2-2.5,0.4-3.6,0.4c-3.3,0-5.5-2.2-5.5-5.4v-8.1h-2.3v-3h2.3V4.1l4.2-1.2v4.7h4.8v3
		h-4.8V18c0,1.7,1.1,2.8,2.7,2.8C285.6,20.8,286.3,20.7,287.1,20.7z"/>
	<path class="st2" d="M303.5,24c-1.3,0-2.6-0.3-3.7-0.9c-1.5,0.7-3.3,1-5,1c-3.7,0-6-1.9-6-5c0-3.2,2.4-5,6.6-5
		c1.2,0,2.5,0.2,3.8,0.6v-1c0-2-1.3-3.1-3.6-3.1c-1.7,0-3.7,0.3-5.5,0.8V8.3c1.6-0.6,4-1,6.3-1c4.4,0,7,2.2,7,6V24z M296.5,21.1
		c0.9,0,1.9-0.2,2.8-0.5v-3.2c-1-0.4-1.9-0.6-2.8-0.6c-2,0-3.3,0.8-3.3,2.2C293.2,20.3,294.5,21.1,296.5,21.1z"/>
	<path class="st2" d="M307.6,1.3l4.2-1.2v23.7h-4.2V1.3z"/>
</g>
</svg>
