<?xml version="1.0" encoding="utf-8"?>
<!-- Generator: Adobe Illustrator 23.0.1, SVG Export Plug-In . SVG Version: 6.00 Build 0)  -->
<svg version="1.1" id="Layer_1" xmlns="http://www.w3.org/2000/svg" xmlns:xlink="http://www.w3.org/1999/xlink" x="0px" y="0px"
	 viewBox="0 0 21 21" style="enable-background:new 0 0 21 21;" xml:space="preserve">
<style type="text/css">
	.st0{fill-rule:evenodd;clip-rule:evenodd;fill:#8D939A;}
	.st1{fill-rule:evenodd;clip-rule:evenodd;fill:url(#SVGID_1_);}
</style>
<g>
	<g>
		<path class="st0" d="M9,17H4V3h4c0,0,1,0.1,1-1c0-0.9-1-1-1-1H4C2.9,1,2,1.9,2,3v14c0,1.1,0.9,2,2,2h5c0,0,1,0,1-1
			C10,17.1,9,17,9,17z M19.2,10l-5-5.1c0,0-0.9-0.9-1.6-0.2c-0.7,0.7,0.2,1.5,0.2,1.5L15.4,9H8c0,0-1.3,0-1.2,1c0,1,1.2,1,1.2,1h7.4
			l-2.7,2.7c0,0-0.9,0.9-0.2,1.5c0.7,0.7,1.6-0.2,1.6-0.2L19.2,10L19.2,10L19.2,10z"/>
	</g>
</g>
</svg>
