<?xml version="1.0" encoding="utf-8"?>
<!-- Generator: Adobe Illustrator 23.0.1, SVG Export Plug-In . SVG Version: 6.00 Build 0)  -->
<svg version="1.1" id="Layer_1" xmlns="http://www.w3.org/2000/svg" xmlns:xlink="http://www.w3.org/1999/xlink" x="0px" y="0px"
	 viewBox="0 0 20 18" style="enable-background:new 0 0 20 18;" xml:space="preserve">
<style type="text/css">
	.st0{fill-rule:evenodd;clip-rule:evenodd;}
</style>
<g>
	<g>
		<path class="st0" d="M10,4.9c-2.5,0-4.5,2-4.5,4.5s2,4.5,4.5,4.5s4.5-2,4.5-4.5C14.5,7,12.5,4.9,10,4.9z M9.9,11.9
			c-1.4,0-2.5-1.1-2.5-2.5s1.1-2.5,2.5-2.5s2.5,1.1,2.5,2.5S11.3,11.9,9.9,11.9z M9.9,2.9C2.4,2.9,0,8.7,0,9.1c0,0.3,2.3,6.8,10,6.9
			c7.9,0.1,10-6.7,10-6.9C20,8.7,17.3,2.8,9.9,2.9z M10.1,14.2c-5.8,0-8-4.6-8-4.8c0-0.3,3.1-4.5,8.1-4.5c5.7,0,7.8,4.4,7.9,4.5
			S15.7,14.2,10.1,14.2z"/>
	</g>
</g>
</svg>
