<?xml version="1.0" encoding="utf-8"?>
<!-- Generator: Adobe Illustrator 23.0.1, SVG Export Plug-In . SVG Version: 6.00 Build 0)  -->
<svg version="1.1" id="Layer_1" xmlns="http://www.w3.org/2000/svg" xmlns:xlink="http://www.w3.org/1999/xlink" x="0px" y="0px"
	 viewBox="0 0 34 36" style="enable-background:new 0 0 34 36;" xml:space="preserve">
<style type="text/css">
	.st0{fill-rule:evenodd;clip-rule:evenodd;fill:url(#SVGID_1_);}
	.st1{fill-rule:evenodd;clip-rule:evenodd;fill:url(#SVGID_2_);}
	.st2{fill-rule:evenodd;clip-rule:evenodd;fill:url(#SVGID_3_);}
	.st3{fill-rule:evenodd;clip-rule:evenodd;fill:#80878F;}
	.st4{fill-rule:evenodd;clip-rule:evenodd;fill:#BFC6C7;}
</style>
<g>
	<g>
		<linearGradient id="SVGID_1_" gradientUnits="userSpaceOnUse" x1="17.416" y1="33.9673" x2="17.416" y2="0.8294">
			<stop  offset="0.3479" style="stop-color:#50A020"/>
			<stop  offset="0.7607" style="stop-color:#73BE1E"/>
		</linearGradient>
		<path class="st0" d="M31.2,14.9c-1.1,0-2,0.9-2,2s0.9,2,2,2c1.1,0,2-0.9,2-2S32.3,14.9,31.2,14.9z M16.8,31
			c-7.2,0-13.1-5.9-13-13.2c0-7.2,5.8-13,12.8-13.1l0-2.7C7.9,2.1,0.9,9.2,0.8,17.9c0,8.8,7.1,16,15.9,16c2.4,0,4.6-0.5,6.6-1.4
			c-0.5-0.6-1-1.4-1.5-2.6C20.3,30.6,18.6,31,16.8,31z M30.1,21.6c-1.1,0-2,0.9-2,2s0.9,2,2,2c1.1,0,2-0.9,2-2S31.2,21.6,30.1,21.6z
			 M25.6,16.5l3.3-4.6c0,0,0.7-1.3,0.7-2.1c-0.1-1-0.9-1.7-0.9-1.7l-0.8-0.6c0.5-0.9,1.5-3.3-0.7-4.9c-2.9-2.1-5.2,1.2-5.2,1.2
			L12.9,17l0,6.2l5.7-2.2l8.2-11.8l1.1,0.7L24,15.4L25.6,16.5z M16.8,20.1l-2.1,0.3l-0.2-2.2l2.4,1.8L16.8,20.1z M18.1,18.2
			l-2.5-1.7l6.9-10L25,8.2L18.1,18.2z M26.1,6.6l-2.5-1.8C24,4.3,24.8,3.4,26,4.2C27.1,5.1,26.5,6.1,26.1,6.6z M26.5,27.1
			c-1.1,0-2,0.9-2,2c0,1.1,0.9,2,2,2c1.1,0,2-0.9,2-2C28.5,28,27.6,27.1,26.5,27.1z"/>
	</g>
</g>
</svg>
