<?xml version="1.0" encoding="utf-8"?>
<!-- Generator: Adobe Illustrator 23.0.1, SVG Export Plug-In . SVG Version: 6.00 Build 0)  -->
<svg version="1.1" id="Layer_1" xmlns="http://www.w3.org/2000/svg" xmlns:xlink="http://www.w3.org/1999/xlink" x="0px" y="0px"
	 viewBox="0 0 16 16" style="enable-background:new 0 0 16 16;" xml:space="preserve">
<style type="text/css">
	.st0{fill-rule:evenodd;clip-rule:evenodd;fill:#81BE40;}
	.st1{fill-rule:evenodd;clip-rule:evenodd;fill:#2A9845;}
</style>
<g>
	<g>
		<path class="st0" d="M8,6c0.6,0,1-0.4,1-1c0-0.6-0.5-1-1-1c-0.6,0-1,0.4-1,1C6.9,5.5,7.4,6,8,6z M8,0C3.6,0,0,3.6,0,8
			c0,4.4,3.6,8,8,8s8-3.6,8-8C16,3.6,12.4,0,8,0z M8,14c-3.3,0-6-2.7-6-6c0-3.3,2.7-6,6-6s6,2.7,6,6C14,11.3,11.3,14,8,14z M9,7
			L6.2,7v1H7v3H6.2v1h3.5v-1H9V7z"/>
	</g>
</g>
</svg>
