<?xml version="1.0" encoding="utf-8"?>
<!-- Generator: Adobe Illustrator 23.0.1, SVG Export Plug-In . SVG Version: 6.00 Build 0)  -->
<svg version="1.1" id="Layer_1" xmlns="http://www.w3.org/2000/svg" xmlns:xlink="http://www.w3.org/1999/xlink" x="0px" y="0px"
	 viewBox="0 0 32 22" style="enable-background:new 0 0 32 22;" xml:space="preserve">
<style type="text/css">
	.st0{fill-rule:evenodd;clip-rule:evenodd;fill:#5A5E5A;}
	.st1{fill-rule:evenodd;clip-rule:evenodd;fill:#8D939A;}
	.st2{fill-rule:evenodd;clip-rule:evenodd;fill:#5B5F5B;}
	.st3{fill-rule:evenodd;clip-rule:evenodd;fill:#F52022;}
</style>
<g>
	<g>
		<path class="st2" d="M30.5,9h-1.8c-0.8-2.3-3-4-5.7-4c-1.3,0-2.6,0.4-3.6,1.2C18.9,5.7,17.7,5,16,5c-1.8-0.1-3,0.6-3.6,1
			c-1-0.7-2.1-1.1-3.4-1.1c-2.6,0-4.9,1.7-5.7,4H1.5c-0.6,0-1,0.4-1,1v0c0,0.6,0.4,1,1,1h1.6c0.1,3.3,2.7,5.9,6,5.9c3.3,0,6-2.7,6-6
			c0-1.3-0.4-2.5-1.1-3.4C14.5,7.2,15.3,7,16,7c0.8,0,1.5,0.2,2.1,0.5c-0.7,1-1.1,2.1-1.1,3.4c0,3.3,2.7,6,6,6c3.3,0,5.9-2.6,6-5.9
			h1.4c0.6,0,1-0.4,1-1v0C31.5,9.4,31.1,9,30.5,9z M9.1,15c-2.2,0-4-1.8-4-4c0-2.2,1.8-4,4-4s4,1.8,4,4C13.1,13.2,11.3,15,9.1,15z
			 M23.1,15c-2.2,0-4-1.8-4-4c0-2.2,1.8-4,4-4c2.2,0,4,1.8,4,4C27.1,13.2,25.3,15,23.1,15z"/>
	</g>
</g>
</svg>
