<?xml version="1.0" encoding="utf-8"?>
<!-- Generator: Adobe Illustrator 23.0.1, SVG Export Plug-In . SVG Version: 6.00 Build 0)  -->
<svg version="1.1" id="Layer_1" xmlns="http://www.w3.org/2000/svg" xmlns:xlink="http://www.w3.org/1999/xlink" x="0px" y="0px"
	 viewBox="0 0 63 53" style="enable-background:new 0 0 63 53;" xml:space="preserve">
<style type="text/css">
	.st0{fill-rule:evenodd;clip-rule:evenodd;fill:#A8D968;}
</style>
<g>
	<g>
		<path class="st0" d="M56.4,18.5l4.8-4.9L47.8,0.1l-4.5,4.6C38.6,4.1,33.8,5.6,30,9c-0.1,0.1-0.6,0.6-0.9,1
			c-0.2,0.2-0.5,0.5-0.8,0.8L27,9.5c0,0-3.7-4.1-8.9-4l-4.8-4.8L0,14.2l4.6,4.7l0.1-0.1c-0.4,5.7,3.8,9.8,3.8,9.8l3.7,3.8l-2.4,2.5
			c0,0-2.1,1.9,0.5,5.4c0.9,1.2,2.1,1.5,2.1,1.5s-0.9,1.4,1.4,3.6c1.8,1.8,4.3,0.9,4.3,0.9s-0.3,1,1.5,2.8c1.7,1.7,3.6,1,3.6,1
			s-0.6,1.2,1.8,2.5C26.2,53,28,53,29,52.1l1.5-1.5l0.7,0.7c3.7,3.7,7.3-1.1,6.3-2.7l1.2,0.7c0,0,1.5,0.3,3.6-1.7
			c1.2-1.1,1.2-3,1.2-3s2.2,0.8,3.9-1c1.3-1.4,1.3-2.9,1.3-2.9s1.6,0.8,3.6-1.1c2.2-2.1,0.3-4.7-1.2-6.2l-0.7-0.7
			c0.3-0.3,1.4-1.3,1.7-1.6C55.4,27.6,56.9,23,56.4,18.5z M11.3,38.7L11.3,38.7c-0.9-0.9-1-2.2-0.2-2.9l5.2-5.3
			c0.7-0.7,2-0.7,2.8,0.1l0.1,0.1c0.8,0.8,0.9,2.1,0.2,2.8l-5.2,5.3C13.3,39.6,12.1,39.5,11.3,38.7z M17.8,43.8
			c-0.7,0.8-2,0.7-2.8-0.1l-0.1-0.1c-0.8-0.8-0.9-2.1-0.1-2.8l8.5-8.7c0.7-0.7,2-0.7,2.8,0.1l0.1,0.1c0.8,0.8,0.9,2.1,0.1,2.8
			L17.8,43.8z M23,47.1c-0.7,0.8-2,0.7-2.9-0.2l-0.1-0.1c-0.8-0.9-0.9-2.1-0.2-2.9l5.8-5.9c0.7-0.8,2.4-0.9,3.2-0.1l0.2,0.1
			c0.8,0.9,0.4,2.4-0.3,3.1L23,47.1z M28,50.5c-0.7,0.8-2.2,0.5-2.8-0.1l-0.4-0.4c-0.9-0.9-0.8-1.9,0-2.7l4.4-4.5
			c0.7-0.8,2-0.7,2.9,0.2l0.3,0.4c0.9,0.9,0.7,1.9,0,2.6L28,50.5z M35.4,50.3c-0.8,0.8-2.1,0.9-2.9,0.1l-0.9-0.9l2.8-3.1l1,1
			C36.2,48.2,36.2,49.5,35.4,50.3z M49,31.4L43.6,26l-7.2-7.2l-1.9,0.8l7.7,7.8c0,0,0.1,0.1,0.1,0.1l8.2,8.2c0.8,0.8,0.9,2.3,0.1,3
			c-0.8,0.8-2.3,0.7-3.1-0.1l-8-8.1l-1.2,1.1l7.6,7.6c0.8,0.8,0.7,2.1-0.1,3c-0.9,0.9-2.2,0.9-3,0.2l-7.7-7.7c0,0-0.1-0.1-0.1-0.1
			l-0.5,0.5l-0.7,0.7l7.3,7.2c0.8,0.8,0.7,2.6-0.1,3.4c-0.8,0.8-2.1,0.9-2.9,0.1l-6.4-6.2c0,0,0-0.1-0.1-0.1c0.1-0.7,0-1.7-0.9-2.6
			c-1.5-1.5-2.8-1.6-2.8-1.6s1.8-2.5,0.2-4.4c-3.3-3.8-6-0.9-6.4-0.4c0,0.1-0.1,0.1-0.1,0.1s0,0,0.1-0.1c0-0.1-0.1-0.5-1.3-1.6
			c-3.5-3.2-5.7,0.2-5.7,0.2L13.5,31l-3.3-3.3c-3-3-3.9-6.2-3.5-9.2l-4.2-4.3l10.9-11l4.2,4.2c2.8-0.2,5.7,0.8,8.6,3.8l1,1
			c-2.1,2.2-4.7,5-4.7,5s-1.4,0.7-0.6,2.9c1,2.7,5.7,3.6,9.1,0.8c1.4-1.2,2.2-3,4.9-3.9c1.9-0.6,2.4,1.3,5.2,1.4
			c3.9,0.2,6.3-1.3,6.3-1.3l-1-1.7c-2.4,1.2-4.1,2-8.1,0.1c-1.8-0.8-4.4-0.6-6.7,2.2c-3.6,4.3-6.8,3.5-7.8,1.8
			c-0.7-1.2,0.5-1.9,0.5-1.9s6.5-6.4,6.5-6.4l0,0l0.6-0.6l0,0c0,0,0,0,0,0c3.3-3.3,8-4.9,12.5-4l3.9-3.9l10.9,10.9l-4.2,4.3
			c0.6,4.4-0.8,8.9-3.9,12.1C50.3,30.1,49,31.4,49,31.4z"/>
	</g>
</g>
</svg>
