<?xml version="1.0" encoding="utf-8"?>
<!-- Generator: Adobe Illustrator 23.0.1, SVG Export Plug-In . SVG Version: 6.00 Build 0)  -->
<svg version="1.1" id="Layer_1" xmlns="http://www.w3.org/2000/svg" xmlns:xlink="http://www.w3.org/1999/xlink" x="0px" y="0px"
	 viewBox="0 0 32 24" style="enable-background:new 0 0 32 24;" xml:space="preserve">
<style type="text/css">
	.st0{fill-rule:evenodd;clip-rule:evenodd;fill:#FFFFFF;}
</style>
<g>
	<g>
		<path class="st0" d="M29,0H3C1.4,0,0,1.4,0,3v18c0,1.7,1.4,3,3.1,3H29c1.7,0,3-1.3,3-3V3C32,1.3,30.7,0,29,0z M28,2
			c0.4,0,0.7,0.1,1,0.3L16,15.1L3,2.3C3.3,2.1,3.6,2,4,2H28z M2,20.3c0-0.1,0-0.2,0-0.3V4.2l8.4,8.3L2,20.3z M28,22H4
			c-0.3,0-0.5-0.1-0.7-0.1l8.6-7.8l2.7,2.7c0,0,0.6,0.7,1.4,0.7c0.7,0,1.3-0.7,1.3-0.7l2.8-2.8l8.6,7.9C28.5,21.9,28.3,22,28,22z
			 M30,20.3l-8.4-7.7L30,4.1V20C30,20.1,30,20.2,30,20.3z"/>
	</g>
</g>
</svg>
