<?xml version="1.0" encoding="utf-8"?>
<!-- Generator: Adobe Illustrator 23.0.1, SVG Export Plug-In . SVG Version: 6.00 Build 0)  -->
<svg version="1.1" id="Layer_1" xmlns="http://www.w3.org/2000/svg" xmlns:xlink="http://www.w3.org/1999/xlink" x="0px" y="0px"
	 viewBox="0 0 34 36" style="enable-background:new 0 0 34 36;" xml:space="preserve">
<style type="text/css">
	.st0{fill-rule:evenodd;clip-rule:evenodd;fill:url(#SVGID_1_);}
	.st1{fill-rule:evenodd;clip-rule:evenodd;fill:url(#SVGID_2_);}
	.st2{fill-rule:evenodd;clip-rule:evenodd;fill:url(#SVGID_3_);}
	.st3{fill-rule:evenodd;clip-rule:evenodd;fill:#80878F;}
	.st4{fill-rule:evenodd;clip-rule:evenodd;fill:#BFC6C7;}
</style>
<g>
	<g>
		<linearGradient id="SVGID_1_" gradientUnits="userSpaceOnUse" x1="16.4944" y1="35.9288" x2="16.4944" y2="7.115077e-02">
			<stop  offset="0.3479" style="stop-color:#50A020"/>
			<stop  offset="0.7607" style="stop-color:#73BE1E"/>
		</linearGradient>
		<path class="st0" d="M2.9,19.8c0-6.4,4.6-11.7,10.7-12.8l0.9,4.3l4.3-6.7l-6.8-4.2L13,4.3C5.6,5.7,0,12.1,0,19.9c0,0.4,0,0.7,0,1
			l2.9,0C2.9,20.5,2.9,20.2,2.9,19.8z M30.4,26.8c1-2.1,1.5-4.4,1.6-6.8c0-6.5-3.9-12.2-9.5-14.7l-0.9,2.6c4.4,2.1,7.5,6.7,7.5,11.9
			c0,2-0.5,3.8-1.2,5.5l-3.7-2l2.2,7.7l7.7-2.3L30.4,26.8z M16,33c-4.1,0-7.7-1.9-10.1-4.8L9,25H1v8l2.8-2.8
			c2.9,3.5,7.3,5.7,12.2,5.7c2.8,0,5.4-0.7,7.7-2l-1.6-2.5C20.3,32.4,18.2,33,16,33z"/>
	</g>
</g>
</svg>
