<?xml version="1.0" encoding="utf-8"?>
<!-- Generator: Adobe Illustrator 23.0.1, SVG Export Plug-In . SVG Version: 6.00 Build 0)  -->
<svg version="1.1" id="Layer_1" xmlns="http://www.w3.org/2000/svg" xmlns:xlink="http://www.w3.org/1999/xlink" x="0px" y="0px"
	 viewBox="0 0 27 22" style="enable-background:new 0 0 27 22;" xml:space="preserve">
<style type="text/css">
	.st0{fill-rule:evenodd;clip-rule:evenodd;fill:#5A5E5A;}
	.st1{fill-rule:evenodd;clip-rule:evenodd;fill:#F67F23;}
</style>
<g>
	<g>
		<path class="st0" d="M26.1,9.2l-0.5-0.4c0,0,2.3-3.2-0.5-5.3c-2.9-2.1-5.2,1.2-5.2,1.2l-7.6,11l0,6.2l5.7-2.2l6.4-9.3l0.8,0.6
			l-3.8,5.5l1.6,1.2l3.3-4.6c0,0,0.7-1.3,0.7-2.1C26.9,9.9,26.1,9.2,26.1,9.2z M16.2,18.9l-2.1,0.3L14,17l2.4,1.8L16.2,18.9z
			 M17.5,17l-2.5-1.7l5.3-7.7l2.5,1.7L17.5,17z M24,7.7l-2.5-1.8c0.2-0.4,1.1-1.8,2.4-0.8C25.3,6.1,24.2,7.4,24,7.7z M10.4,17.7
			C8.9,17.6,8.8,20,7.1,20c-0.7,0,2.1-4.8,0.2-4.8c-2.5,0-6.4,5.1-6.4,5.1L2,22c0,0,3.8-4.8,4.4-4.4C7.1,18,3.5,21.9,6.4,22
			c1.3,0,2.9-1.6,3.4-1.6c0.6,0-0.2,1.5-0.2,1.5l1.8,0C11.4,21.9,11.7,17.8,10.4,17.7z"/>
	</g>
</g>
<g>
	<g>
		<polygon class="st1" points="10,4 6.9,4 9,1.9 8.1,1 6,3.1 6,0 5,0 5,3.1 2.9,1 2,1.9 4.1,4 1,4 1,5 4.1,5 2,7.1 2.9,8 5,5.9 5,9 
			6,9 6,5.9 8.1,8 9,7.1 6.9,5 10,5 		"/>
	</g>
</g>
</svg>
