<?xml version="1.0" encoding="utf-8"?>
<!-- Generator: Adobe Illustrator 23.0.1, SVG Export Plug-In . SVG Version: 6.00 Build 0)  -->
<svg version="1.1" id="Layer_1" xmlns="http://www.w3.org/2000/svg" xmlns:xlink="http://www.w3.org/1999/xlink" x="0px" y="0px"
	 viewBox="0 0 34 36" style="enable-background:new 0 0 34 36;" xml:space="preserve">
<style type="text/css">
	.st0{fill-rule:evenodd;clip-rule:evenodd;fill:url(#SVGID_1_);}
	.st1{fill-rule:evenodd;clip-rule:evenodd;fill:url(#SVGID_2_);}
	.st2{fill-rule:evenodd;clip-rule:evenodd;fill:url(#SVGID_3_);}
	.st3{fill-rule:evenodd;clip-rule:evenodd;fill:#80878F;}
	.st4{fill-rule:evenodd;clip-rule:evenodd;fill:#BFC6C7;}
</style>
<g>
	<g>
		<linearGradient id="SVGID_1_" gradientUnits="userSpaceOnUse" x1="19.7156" y1="34.25" x2="19.7156" y2="2.25">
			<stop  offset="0.3479" style="stop-color:#50A020"/>
			<stop  offset="0.7607" style="stop-color:#73BE1E"/>
		</linearGradient>
		<path class="st0" d="M30.2,17c0,0.4,0.1,0.8,0.1,1.3c0,7.2-5.8,13-13,13s-13-5.8-13-13s5.8-13,13-13c3.2,0,6.1,1.2,8.4,3.1
			l2.1-2.1c-2.8-2.4-6.5-3.9-10.5-3.9c-8.8,0-16,7.2-16,16s7.2,16,16,16s16-7.2,16-16c0-1-0.1-2-0.3-3L30.2,17z M11.7,15.7L9.7,18
			l7.5,7.4L33.3,8.9l-1.9-2.4L17.3,21.3L11.7,15.7z"/>
	</g>
</g>
</svg>
