<?xml version="1.0" encoding="utf-8"?>
<!-- Generator: Adobe Illustrator 23.0.1, SVG Export Plug-In . SVG Version: 6.00 Build 0)  -->
<svg version="1.1" id="Layer_1" xmlns="http://www.w3.org/2000/svg" xmlns:xlink="http://www.w3.org/1999/xlink" x="0px" y="0px"
	 viewBox="0 0 34 36" style="enable-background:new 0 0 34 36;" xml:space="preserve">
<style type="text/css">
	.st0{fill-rule:evenodd;clip-rule:evenodd;fill:url(#SVGID_1_);}
	.st1{fill-rule:evenodd;clip-rule:evenodd;fill:url(#SVGID_2_);}
	.st2{fill-rule:evenodd;clip-rule:evenodd;fill:url(#SVGID_3_);}
	.st3{fill-rule:evenodd;clip-rule:evenodd;fill:#80878F;}
	.st4{fill-rule:evenodd;clip-rule:evenodd;fill:#BFC6C7;}
</style>
<g>
	<g>
		<path class="st3" d="M19,25h3V11h-3V25z M17.1,2C8.2,2,1.1,9.1,1,17.9c0,8.8,7.1,16,15.9,16c8.8,0,16-7.1,16-15.9
			C33,9.2,25.9,2,17.1,2z M17,31.2C9.8,31.1,3.9,25.2,4,18C4,10.7,9.9,4.8,17.1,4.9c7.2,0,13.1,5.9,13,13.2
			C30.1,25.3,24.2,31.2,17,31.2z M12,25h3V11h-3V25z"/>
	</g>
</g>
</svg>
