<?xml version="1.0" encoding="utf-8"?>
<!-- Generator: Adobe Illustrator 23.0.1, SVG Export Plug-In . SVG Version: 6.00 Build 0)  -->
<svg version="1.1" id="Layer_1" xmlns="http://www.w3.org/2000/svg" xmlns:xlink="http://www.w3.org/1999/xlink" x="0px" y="0px"
	 viewBox="0 0 16 16" style="enable-background:new 0 0 16 16;" xml:space="preserve">
<style type="text/css">
	.st0{fill-rule:evenodd;clip-rule:evenodd;fill:#5A5E5A;}
</style>
<g>
	<g>
		<path class="st0" d="M14.8,3.3c0,0-1.9-1.9-2.1-2.1c-1.2-1.1-2.9,0-2.9,0L0,11.1V16h5l9.8-9.7C14.8,6.3,15.8,4.4,14.8,3.3z
			 M4.9,14.4l-3.3-0.1V11h0.3l3.3,3.1L4.9,14.4z M6.1,13.1L2.9,10l5.4-5.2l2.9,2.9L6.1,13.1z M13.1,5.8l-0.7,0.7L9.5,3.7L10.2,3
			c0,0,1-1.1,2.1,0c0.1,0.1,0.8,0.8,0.9,0.9C14,4.9,13.1,5.8,13.1,5.8z M5,12.1l5.3-5.3l-1-1L4,11.1L5,12.1z"/>
	</g>
</g>
</svg>
