<?xml version="1.0" encoding="utf-8"?>
<!-- Generator: Adobe Illustrator 23.0.1, SVG Export Plug-In . SVG Version: 6.00 Build 0)  -->
<svg version="1.1" id="Layer_1" xmlns="http://www.w3.org/2000/svg" xmlns:xlink="http://www.w3.org/1999/xlink" x="0px" y="0px"
	 viewBox="0 0 32 22" style="enable-background:new 0 0 32 22;" xml:space="preserve">
<style type="text/css">
	.st0{fill-rule:evenodd;clip-rule:evenodd;fill:#5A5E5A;}
	.st1{fill-rule:evenodd;clip-rule:evenodd;fill:#8D939A;}
	.st2{fill-rule:evenodd;clip-rule:evenodd;fill:#5B5F5B;}
	.st3{fill-rule:evenodd;clip-rule:evenodd;fill:#F52022;}
</style>
<g>
	<g>
		<path class="st1" d="M16,0C9.9,0,5,4.9,5,11c0,6.1,4.9,11,11,11c6.1,0,11-4.9,11-11C27,4.9,22.1,0,16,0z M16,20c-5,0-9-4-9-9
			c0-5,4-9,9-9c5,0,9,4,9,9C25,16,21,20,16,20z M14.8,12.8l-2.7-2.3l-1.2,1.6l4.3,3.5l6-7.4l-1.6-1.3L14.8,12.8z"/>
	</g>
</g>
</svg>
