<?xml version="1.0" encoding="utf-8"?>
<!-- Generator: Adobe Illustrator 23.0.1, SVG Export Plug-In . SVG Version: 6.00 Build 0)  -->
<svg version="1.1" id="Layer_1" xmlns="http://www.w3.org/2000/svg" xmlns:xlink="http://www.w3.org/1999/xlink" x="0px" y="0px"
	 viewBox="0 0 20 18" style="enable-background:new 0 0 20 18;" xml:space="preserve">
<style type="text/css">
	.st0{fill-rule:evenodd;clip-rule:evenodd;}
</style>
<g>
	<g>
		<path class="st0" d="M9.9,6.9c0.1,0,0.1,0,0.2,0l1.6-1.6C11.2,5.1,10.6,5,10,5C7.5,5,5.5,7,5.5,9.5c0,0.6,0.1,1.2,0.3,1.7l1.6-1.6
			c0-0.1,0-0.1,0-0.2C7.5,8.1,8.6,6.9,9.9,6.9z M3.3,13.8l1.3-1.3c-1.8-1.3-2.6-3-2.6-3C2,9.2,5.1,5,10.1,5c0.7,0,1.3,0.1,1.8,0.2
			l1.6-1.6C12.4,3.3,11.2,3,9.7,3.1C2.4,3,0,8.8,0,9.2C0,9.4,0.9,11.9,3.3,13.8z M16.8,5.1l-1.4,1.4c1.8,1.3,2.6,2.8,2.7,2.9
			c0.1,0.1-2.4,4.8-8,4.8c-0.7,0-1.4-0.1-2.1-0.2l-1.5,1.5c1,0.3,2.2,0.5,3.5,0.6c7.9,0.1,10-6.7,10-6.9C20,8.9,19.1,6.8,16.8,5.1z
			 M10.1,11.9l-1.7,1.8c0.5,0.2,1,0.3,1.6,0.3c2.5,0,4.5-2,4.5-4.5c0-0.6-0.1-1.1-0.3-1.7l-1.7,1.8C12.3,10.9,11.3,11.9,10.1,11.9z
			 M16.9,1.4l-15,15.1l1,1.2l15-15.1L16.9,1.4z"/>
	</g>
</g>
</svg>
