<?xml version="1.0" encoding="utf-8"?>
<!-- Generator: Adobe Illustrator 23.0.1, SVG Export Plug-In . SVG Version: 6.00 Build 0)  -->
<svg version="1.1" id="Layer_1" xmlns="http://www.w3.org/2000/svg" xmlns:xlink="http://www.w3.org/1999/xlink" x="0px" y="0px"
	 viewBox="0 0 18 18" style="enable-background:new 0 0 18 18;" xml:space="preserve">
<style type="text/css">
	.st0{fill-rule:evenodd;clip-rule:evenodd;fill:#8D939A;}
	.st1{fill:#8D939A;}
</style>
<path class="st1" d="M4.7,2c0.5,0,0.7,0.3,0.7,0.3L6.2,3c0,0,0.8,0.4,0.8,1.2c0.1,0.8-0.8,1.4-0.8,1.4S5.6,6.3,5.5,6.4
	C5.1,6.9,6.6,9,7.9,10.2c1.1,1.1,2.7,2.4,3.5,2.4c0.1,0,0.2,0,0.3-0.1c0.2-0.2,0.7-0.7,0.7-0.7s0.6-0.8,1.3-0.8c0,0,0,0,0,0
	c0.7,0,1.1,0.6,1.1,0.6l0.9,0.9c0,0,0.3,0.1,0.3,0.8c0,0.6-0.9,1.3-0.9,1.3s-0.6,0.7-1,0.9c-0.4,0.3-0.9,0.4-1.5,0.4
	c-1.6,0-3.8-1.1-6.6-4c-3.8-3.9-5-6.4-3.5-8.2c0.3-0.3,0.7-0.9,0.7-0.9S4,2.1,4.6,2C4.6,2,4.7,2,4.7,2 M4.7,0.5c-0.1,0-0.2,0-0.3,0
	C3.3,0.7,2.5,1.6,2.2,2C2.1,2.1,1.7,2.6,1.5,2.9C-1,6,1.7,9.6,5,13.1c2.8,2.9,5.4,4.4,7.6,4.4c0.8,0,1.6-0.2,2.2-0.6
	c0.5-0.3,1.1-0.9,1.3-1.1c0.4-0.3,1.3-1.3,1.3-2.4c0-1-0.4-1.6-0.9-2l-0.7-0.7c-0.4-0.5-1.2-1.1-2.2-1.1c0,0,0,0,0,0
	c-1.2,0-2.1,0.9-2.4,1.3c0,0-0.1,0.1-0.2,0.2c-0.5-0.3-1.3-0.9-2.2-1.8C8.1,8.3,7.4,7.4,7.1,6.9c0,0,0.1-0.1,0.1-0.1
	c0.7-0.5,1.4-1.5,1.3-2.7C8.4,3.1,7.7,2.3,7.1,1.9L6.6,1.4C6.2,0.9,5.6,0.5,4.7,0.5L4.7,0.5z"/>
</svg>
