<?xml version="1.0" encoding="utf-8"?>
<!-- Generator: Adobe Illustrator 23.0.1, SVG Export Plug-In . SVG Version: 6.00 Build 0)  -->
<svg version="1.1" id="Layer_1" xmlns="http://www.w3.org/2000/svg" xmlns:xlink="http://www.w3.org/1999/xlink" x="0px" y="0px"
	 viewBox="0 0 28 28" style="enable-background:new 0 0 28 28;" xml:space="preserve">
<style type="text/css">
	.st0{fill-rule:evenodd;clip-rule:evenodd;fill:url(#SVGID_1_);}
</style>
<g>
	<g>
		<linearGradient id="SVGID_1_" gradientUnits="userSpaceOnUse" x1="14.9775" y1="29.9795" x2="14.9775" y2="-9.094947e-13">
			<stop  offset="0" style="stop-color:#2A9845"/>
			<stop  offset="1" style="stop-color:#81BE40"/>
		</linearGradient>
		<path class="st0" d="M2,21l0-4.8c0,0,3.8-4.2,7.5-4.3c1.3,0,2.5,0.4,3.6,1c0.4-0.4,0.9-0.8,1.4-1.1c-0.6-0.3-1.2-0.6-1.8-0.8
			C14,9.7,14.9,8,14.9,6c0-3.3-2.5-6-5.5-6C6.4,0,4,2.7,4,6c0,2,0.8,3.8,2.2,4.8C2.8,12.1,0,15,0,16.2C0,16.6,0,23,0,23l10.4,0
			c-0.2-0.6-0.3-1.3-0.4-2L2,21z M6,6c0-2.2,1.6-4,3.6-4c2,0,3.6,1.8,3.6,4c0,2.2-1.7,4-3.7,4C7.5,10,6,8.2,6,6z M21,16h-2v3h-3v2h3
			v3h2v-3h3v-2h-3V16z M20,12c-4.4,0-8,3.6-8,8c0,4.4,3.6,8,8,8c4.4,0,8-3.6,8-8C28,15.6,24.4,12,20,12z M20,26c-3.3,0-6-2.7-6-6
			c0-3.3,2.7-6,6-6c3.3,0,6,2.7,6,6C26,23.3,23.3,26,20,26z"/>
	</g>
</g>
</svg>
