<?xml version="1.0" encoding="utf-8"?>
<!-- Generator: Adobe Illustrator 23.0.1, SVG Export Plug-In . SVG Version: 6.00 Build 0)  -->
<svg version="1.1" id="Layer_1" xmlns="http://www.w3.org/2000/svg" xmlns:xlink="http://www.w3.org/1999/xlink" x="0px" y="0px"
	 viewBox="0 0 32 32" style="enable-background:new 0 0 32 32;" xml:space="preserve">
<style type="text/css">
	.st0{fill-rule:evenodd;clip-rule:evenodd;fill:#CA0000;}
</style>
<g>
	<g>
		<path class="st0" d="M14.9,20h2l0.9-13.5c0,0,0-2-1.8-2c-2,0-1.9,2-1.9,2L14.9,20z M16,0C7.2,0,0,7.2,0,16s7.2,16,16,16
			s16-7.2,16-16S24.8,0,16,0z M16,30C8.3,30,2,23.7,2,16S8.3,2,16,2s14,6.3,14,14S23.7,30,16,30z M16,22c-1.1,0-2,0.9-2,2s0.9,2,2,2
			s2-0.9,2-2S17.1,22,16,22z"/>
	</g>
</g>
</svg>
