<?xml version="1.0" encoding="utf-8"?>
<!-- Generator: Adobe Illustrator 23.0.1, SVG Export Plug-In . SVG Version: 6.00 Build 0)  -->
<svg version="1.1" id="Layer_1" xmlns="http://www.w3.org/2000/svg" xmlns:xlink="http://www.w3.org/1999/xlink" x="0px" y="0px"
	 viewBox="0 0 25 18" style="enable-background:new 0 0 25 18;" xml:space="preserve">
<style type="text/css">
	.st0{fill-rule:evenodd;clip-rule:evenodd;fill:#5A5E5A;}
	.st1{fill-rule:evenodd;clip-rule:evenodd;fill:url(#SVGID_1_);}
</style>
<g>
	<g>
		<linearGradient id="SVGID_1_" gradientUnits="userSpaceOnUse" x1="12.5" y1="18" x2="12.5" y2="-9.094947e-13">
			<stop  offset="0" style="stop-color:#2A9845"/>
			<stop  offset="1" style="stop-color:#81BE40"/>
		</linearGradient>
		<path class="st1" d="M10,14h2v-2h-2V14z M13,11h2V9h-2V11z M13,14h2v-2h-2V14z M22,2h-2V1c0-0.5-0.5-1-1-1h0c-0.5,0-1,0.5-1,1v1
			h-5V1c0-0.6-0.5-1-1-1c-0.5,0-1,0.4-1,1v1H9C8.7,2,8.3,2.1,8,2.2v1.9C8,4,8,4,8.1,4H11c0,0.6,0.5,1,1,1c0.5,0,1-0.4,1-1h5
			c0,0.5,0.5,1,1,1s1-0.5,1-1h2c0.6,0,1,0.5,1,1.1v9.8c0,0.6-0.5,1.1-1.1,1.1H9c-0.5,0-1-0.4-1-1v-5H6v5c0,1.7,1.4,3,3,3h13
			c1.7,0,3-1.3,3-3V5C25,3.3,23.7,2,22,2z M8,6H5V3L3,3v3H0v2h3v3h2V8h3V6z M12,9h-2v2h2V9z M16,14h2v-2h-2V14z M19,11h2V9h-2V11z
			 M21,6h-2v2h2V6z M18,6h-2v2h2V6z M16,11h2V9h-2V11z M15,6h-2v2h2V6z"/>
	</g>
</g>
</svg>
