<?xml version="1.0" encoding="utf-8"?>
<!-- Generator: Adobe Illustrator 23.0.1, SVG Export Plug-In . SVG Version: 6.00 Build 0)  -->
<svg version="1.1" id="Layer_1" xmlns="http://www.w3.org/2000/svg" xmlns:xlink="http://www.w3.org/1999/xlink" x="0px" y="0px"
	 viewBox="0 0 34 36" style="enable-background:new 0 0 34 36;" xml:space="preserve">
<style type="text/css">
	.st0{fill-rule:evenodd;clip-rule:evenodd;fill:url(#SVGID_1_);}
	.st1{fill-rule:evenodd;clip-rule:evenodd;fill:url(#SVGID_2_);}
	.st2{fill-rule:evenodd;clip-rule:evenodd;fill:url(#SVGID_3_);}
	.st3{fill-rule:evenodd;clip-rule:evenodd;fill:#80878F;}
	.st4{fill-rule:evenodd;clip-rule:evenodd;fill:#BFC6C7;}
</style>
<g>
	<g>
		<path class="st4" d="M17.3,2c-5.3,0-10,2.6-12.9,6.6l2.4,1.8C9.1,7.1,12.9,5,17.3,5c7.2,0,13,5.8,13,13c0,7.2-5.8,13-13,13
			c-4.1,0-7.7-1.9-10.1-4.8l-2.4,1.8c2.9,3.6,7.4,5.9,12.4,5.9c8.8,0,16-7.2,16-16C33.3,9.2,26.1,2,17.3,2z M13.6,11l-7.5,7.5
			l7.5,7.7l1.8-2.1L11.3,20h12v-3h-12l4.1-4.1L13.6,11z"/>
	</g>
</g>
</svg>
