<?xml version="1.0" encoding="utf-8"?>
<!-- Generator: Adobe Illustrator 23.0.1, SVG Export Plug-In . SVG Version: 6.00 Build 0)  -->
<svg version="1.1" id="Layer_1" xmlns="http://www.w3.org/2000/svg" xmlns:xlink="http://www.w3.org/1999/xlink" x="0px" y="0px"
	 viewBox="0 0 112 21" style="enable-background:new 0 0 112 21;" xml:space="preserve">
<style type="text/css">
	.st0{fill-rule:evenodd;clip-rule:evenodd;fill:#8D939A;}
	.st1{fill:#8D939A;}
</style>
<g>
	<g>
		<path class="st0" d="M10,12h9v-2h-9V12z M15,0L0,8.2L0.2,10H3l0,11h23l0-11h2.8l0.4-1.7L15,0z M24,19H5V8l9.9-5.4l0,0L24,8V19z
			 M10,16h9v-2h-9V16z"/>
	</g>
</g>
<g>
	<g>
		<path class="st1" d="M34.8,11.8h-2.7V21h9.6v-1.6h-6.8V11.8z M46.3,16.9h6.8v-1.6h-6.8v-2.1h7.3v-1.6H43.6V21h10.3v-1.6h-7.6V16.9
			z M64.5,17.9l-5.6-6.2h-2.7V21h2.5v-6.1l5.5,6.1h2.8v-9.3h-2.5V17.9z M79.6,12.7c-0.6-0.4-1.3-0.7-2-0.9c-0.6-0.1-1.5-0.2-2.6-0.2
			h-5V21h5.2c1,0,1.8-0.1,2.4-0.2c0.8-0.2,1.5-0.4,1.9-0.7c0.6-0.4,1.1-1,1.5-1.6c0.3-0.6,0.4-1.2,0.4-2c0-0.9-0.1-1.6-0.4-2.2
			C80.6,13.6,80.2,13.1,79.6,12.7z M78.2,18.1c-0.2,0.4-0.4,0.7-0.7,0.9c-0.3,0.2-0.7,0.3-1.1,0.4c-0.3,0.1-0.9,0.1-1.7,0.1h-2v-6.2
			h1.2c1.1,0,1.9,0,2.3,0.1c0.5,0.1,0.9,0.2,1.3,0.4c0.3,0.2,0.6,0.5,0.8,0.9c0.2,0.4,0.3,0.9,0.3,1.7
			C78.5,17.1,78.4,17.6,78.2,18.1z M86.4,16.9h6.8v-1.6h-6.8v-2.1h7.3v-1.6H83.7V21H94v-1.6h-7.6V16.9z M106.9,19.2
			c-0.7-0.7-1.2-1.2-1.6-1.5c-0.4-0.3-0.9-0.5-1.5-0.8c1.2-0.1,2.1-0.4,2.7-0.9c0.6-0.5,0.9-1,0.9-1.7c0-0.6-0.2-1-0.6-1.5
			c-0.4-0.4-0.9-0.7-1.6-0.9c-0.7-0.2-1.7-0.3-3.2-0.3h-5.8V21h2.7v-3.9h0.6c0.6,0,1.1,0,1.4,0.1c0.3,0.1,0.6,0.2,0.8,0.4
			c0.3,0.2,0.7,0.6,1.4,1.4l2,2h3.3L106.9,19.2z M101.1,15.6h-2v-2.4h2.1c1.1,0,1.8,0,2,0c0.4,0.1,0.8,0.2,1,0.4
			c0.2,0.2,0.4,0.4,0.4,0.8c0,0.3-0.1,0.5-0.3,0.7c-0.2,0.2-0.4,0.3-0.8,0.4C103.2,15.6,102.4,15.6,101.1,15.6z M37.1,7.1h-3.6V5
			h3.2V3.7h-3.2V1.9h3.5V0.6h-4.8v7.9h4.9V7.1z M44.4,8.1c-0.4-0.2-0.7-0.4-1-0.7c0.3-0.4,0.5-0.8,0.6-1.3c0.1-0.5,0.2-1,0.2-1.7
			c0-1.3-0.3-2.3-0.9-3c-0.6-0.7-1.3-1-2.3-1c-0.9,0-1.7,0.3-2.3,1c-0.6,0.7-0.9,1.7-0.9,3c0,1.3,0.3,2.3,0.9,3c0.6,0.7,1.3,1,2.3,1
			c0.5,0,1-0.1,1.5-0.3c0.5,0.4,0.8,0.7,0.9,0.7c0.2,0.1,0.4,0.2,0.6,0.3L44.4,8.1z M42.3,6.6c-0.4-0.4-0.8-0.6-1.2-0.8l-0.4,0.9
			c0.3,0.1,0.5,0.3,0.8,0.5c-0.2,0.1-0.3,0.1-0.5,0.1c-0.5,0-0.9-0.2-1.2-0.7c-0.3-0.4-0.5-1.1-0.5-2.1c0-0.9,0.2-1.6,0.5-2
			C40.1,2,40.5,1.8,41,1.8c0.5,0,1,0.2,1.3,0.7c0.3,0.4,0.5,1.1,0.5,2.1C42.8,5.4,42.6,6.1,42.3,6.6z M46.2,8.2
			c0.4,0.2,0.9,0.4,1.6,0.4c0.6,0,1.2-0.1,1.6-0.4C49.8,7.9,50,7.5,50.1,7c0.1-0.5,0.2-1.2,0.2-2.3V0.6H49v4.4c0,0.8,0,1.3-0.1,1.5
			c-0.1,0.2-0.2,0.4-0.4,0.6c-0.2,0.1-0.4,0.2-0.7,0.2c-0.4,0-0.6-0.1-0.9-0.3c-0.2-0.2-0.4-0.5-0.4-0.8c0-0.2,0-0.6,0-1.3V0.6h-1.3
			v4.2c0,1.2,0.1,2,0.3,2.4C45.6,7.6,45.9,8,46.2,8.2z M54.9,0.6h-1.4L51,8.4h1.4l0.5-1.8h2.6l0.6,1.8h1.4L54.9,0.6z M53.3,5.3
			l0.9-2.9l0.9,2.9H53.3z M62.8,7.1h-3.2V0.6h-1.3v7.8h4.5V7.1z M71.2,8.4V0.6h-1.3v3.1h-2.6V0.6h-1.3v7.9h1.3V5h2.6v3.4H71.2z
			 M75.4,8.6c0.9,0,1.7-0.3,2.2-1c0.6-0.7,0.9-1.8,0.9-3.1c0-1.3-0.3-2.3-0.9-3c-0.6-0.7-1.3-1.1-2.3-1.1c-0.6,0-1.2,0.1-1.6,0.4
			c-0.4,0.3-0.8,0.7-1.1,1.4c-0.3,0.6-0.4,1.4-0.4,2.3c0,1.3,0.3,2.3,0.9,3.1C73.8,8.3,74.5,8.6,75.4,8.6z M74.1,2.5
			c0.3-0.4,0.8-0.7,1.3-0.7c0.5,0,1,0.2,1.3,0.7c0.3,0.4,0.5,1.1,0.5,2c0,0.9-0.2,1.6-0.5,2.1C76.4,7,76,7.2,75.4,7.2
			c-0.5,0-0.9-0.2-1.3-0.7c-0.3-0.5-0.5-1.1-0.5-2C73.6,3.6,73.8,2.9,74.1,2.5z M84.6,7c0.1-0.5,0.2-1.2,0.2-2.3V0.6h-1.3v4.4
			c0,0.8,0,1.3-0.1,1.5c-0.1,0.2-0.2,0.4-0.4,0.6c-0.2,0.1-0.4,0.2-0.7,0.2c-0.4,0-0.6-0.1-0.9-0.3c-0.2-0.2-0.4-0.5-0.4-0.8
			c0-0.2,0-0.6,0-1.3V0.6h-1.3v4.2c0,1.2,0.1,2,0.3,2.4c0.2,0.4,0.4,0.8,0.8,1s0.9,0.4,1.6,0.4c0.6,0,1.2-0.1,1.6-0.4
			C84.2,7.9,84.4,7.5,84.6,7z M88.4,7.2c-0.8,0-1.3-0.5-1.4-1.5l-1.3,0.2c0.2,1.8,1.1,2.7,2.6,2.7c0.9,0,1.6-0.2,2-0.7
			c0.4-0.5,0.6-1,0.6-1.7c0-0.5-0.1-0.9-0.2-1.2c-0.2-0.3-0.4-0.6-0.7-0.8c-0.3-0.2-0.8-0.4-1.4-0.6c-0.6-0.2-1-0.3-1.2-0.5
			s-0.3-0.3-0.3-0.5c0-0.2,0.1-0.4,0.3-0.5c0.2-0.1,0.5-0.2,0.8-0.2S89,1.8,89.2,2c0.2,0.2,0.3,0.5,0.4,0.9l1.3-0.1
			c0-0.8-0.3-1.4-0.7-1.8c-0.4-0.4-1-0.6-1.8-0.6c-0.5,0-0.9,0.1-1.3,0.3c-0.3,0.2-0.6,0.4-0.8,0.8C86.1,1.8,86,2.2,86,2.6
			c0,0.4,0.1,0.7,0.2,1c0.2,0.3,0.4,0.6,0.6,0.8c0.3,0.2,0.7,0.4,1.2,0.5c0.6,0.2,1,0.3,1.2,0.4c0.2,0.1,0.3,0.2,0.4,0.3
			c0.1,0.1,0.1,0.3,0.1,0.5c0,0.3-0.1,0.6-0.3,0.8C89.2,7.1,88.8,7.2,88.4,7.2z M93.4,0.6h-1.3v7.9h1.3V0.6z M99.8,8.4V0.6h-1.2v5.3
			l-2.6-5.3h-1.3v7.9h1.2V3.3l2.6,5.1H99.8z M102.5,8.1c0.5,0.3,1,0.5,1.7,0.5c0.5,0,1-0.1,1.6-0.4c0.5-0.2,0.9-0.5,1.2-0.9V4.2
			h-2.8v1.3h1.5v1c-0.2,0.2-0.5,0.4-0.7,0.5c-0.3,0.1-0.5,0.2-0.8,0.2c-0.5,0-1-0.2-1.3-0.6c-0.4-0.5-0.6-1.2-0.6-2.2
			c0-0.9,0.2-1.5,0.5-2c0.3-0.4,0.8-0.6,1.3-0.6c0.4,0,0.7,0.1,0.9,0.3c0.3,0.2,0.4,0.5,0.5,0.9l1.3-0.3C106.7,2,106.4,1.4,106,1
			c-0.5-0.4-1.1-0.6-1.9-0.6c-0.6,0-1.2,0.2-1.7,0.5c-0.5,0.3-0.8,0.8-1.1,1.4c-0.3,0.6-0.4,1.4-0.4,2.2c0,0.8,0.1,1.6,0.4,2.2
			C101.6,7.3,102,7.8,102.5,8.1z"/>
	</g>
</g>
</svg>
