<?xml version="1.0" encoding="utf-8"?>
<!-- Generator: Adobe Illustrator 23.0.1, SVG Export Plug-In . SVG Version: 6.00 Build 0)  -->
<svg version="1.1" xmlns="http://www.w3.org/2000/svg" xmlns:xlink="http://www.w3.org/1999/xlink" x="0px" y="0px"
	 viewBox="0 0 2016 72" style="enable-background:new 0 0 2016 72;" xml:space="preserve">
<style type="text/css">
	.st0{display:none;}
	.st1{display:inline;fill-rule:evenodd;clip-rule:evenodd;fill:#353937;}
	.st2{opacity:0.2;}
	.st3{fill-rule:evenodd;clip-rule:evenodd;fill:#FFFFFF;}
	.st4{fill-rule:evenodd;clip-rule:evenodd;fill:#81BD49;}
</style>
<g id="dark_bgd" class="st0">
	<rect class="st1" width="2016" height="72"/>
</g>
<g id="Dots_168_" class="st2">
	<g id="Dots_1_">
		<g>
			<path class="st3" d="M30,0c-3.3,0-6,2.7-6,6c0,3.3,2.7,6,6,6c3.3,0,6-2.7,6-6C36,2.7,33.3,0,30,0z M6,0C2.7,0,0,2.7,0,6
				c0,3.3,2.7,6,6,6c3.3,0,6-2.7,6-6C12,2.7,9.3,0,6,0z M42,20c-3.3,0-6,2.7-6,6c0,3.3,2.7,6,6,6c3.3,0,6-2.7,6-6
				C48,22.7,45.3,20,42,20z M18,20c-3.3,0-6,2.7-6,6c0,3.3,2.7,6,6,6c3.3,0,6-2.7,6-6C24,22.7,21.3,20,18,20z"/>
		</g>
	</g>
	<g id="Dots">
		<g>
			<path class="st3" d="M30,40c-3.3,0-6,2.7-6,6c0,3.3,2.7,6,6,6s6-2.7,6-6C36,42.7,33.3,40,30,40z M6,40c-3.3,0-6,2.7-6,6
				c0,3.3,2.7,6,6,6s6-2.7,6-6C12,42.7,9.3,40,6,40z M42,60c-3.3,0-6,2.7-6,6c0,3.3,2.7,6,6,6s6-2.7,6-6C48,62.7,45.3,60,42,60z
				 M18,60c-3.3,0-6,2.7-6,6c0,3.3,2.7,6,6,6s6-2.7,6-6C24,62.7,21.3,60,18,60z"/>
		</g>
	</g>
	<g id="Dots_6_">
		<g>
			<path class="st3" d="M78,0c-3.3,0-6,2.7-6,6s2.7,6,6,6c3.3,0,6-2.7,6-6S81.3,0,78,0z M54,0c-3.3,0-6,2.7-6,6s2.7,6,6,6
				c3.3,0,6-2.7,6-6S57.3,0,54,0z M90,20c-3.3,0-6,2.7-6,6c0,3.3,2.7,6,6,6c3.3,0,6-2.7,6-6C96,22.7,93.3,20,90,20z M66,20
				c-3.3,0-6,2.7-6,6c0,3.3,2.7,6,6,6c3.3,0,6-2.7,6-6C72,22.7,69.3,20,66,20z"/>
		</g>
	</g>
	<g id="Dots_4_">
		<g>
			<path class="st3" d="M78,40c-3.3,0-6,2.7-6,6c0,3.3,2.7,6,6,6c3.3,0,6-2.7,6-6C84,42.7,81.3,40,78,40z M54,40c-3.3,0-6,2.7-6,6
				c0,3.3,2.7,6,6,6c3.3,0,6-2.7,6-6C60,42.7,57.3,40,54,40z M90,60c-3.3,0-6,2.7-6,6c0,3.3,2.7,6,6,6c3.3,0,6-2.7,6-6
				C96,62.7,93.3,60,90,60z M66,60c-3.3,0-6,2.7-6,6c0,3.3,2.7,6,6,6c3.3,0,6-2.7,6-6C72,62.7,69.3,60,66,60z"/>
		</g>
	</g>
	<g id="Dots_14_">
		<g>
			<path class="st3" d="M126,0c-3.3,0-6,2.7-6,6s2.7,6,6,6c3.3,0,6-2.7,6-6S129.3,0,126,0z M102,0c-3.3,0-6,2.7-6,6s2.7,6,6,6
				c3.3,0,6-2.7,6-6S105.3,0,102,0z M138,20c-3.3,0-6,2.7-6,6c0,3.3,2.7,6,6,6c3.3,0,6-2.7,6-6C144,22.7,141.3,20,138,20z M114,20
				c-3.3,0-6,2.7-6,6c0,3.3,2.7,6,6,6c3.3,0,6-2.7,6-6C120,22.7,117.3,20,114,20z"/>
		</g>
	</g>
	<g id="Dots_12_">
		<g>
			<path class="st3" d="M126,40c-3.3,0-6,2.7-6,6c0,3.3,2.7,6,6,6c3.3,0,6-2.7,6-6C132,42.7,129.3,40,126,40z M102,40
				c-3.3,0-6,2.7-6,6c0,3.3,2.7,6,6,6c3.3,0,6-2.7,6-6C108,42.7,105.3,40,102,40z M138,60c-3.3,0-6,2.7-6,6c0,3.3,2.7,6,6,6
				c3.3,0,6-2.7,6-6C144,62.7,141.3,60,138,60z M114,60c-3.3,0-6,2.7-6,6c0,3.3,2.7,6,6,6c3.3,0,6-2.7,6-6C120,62.7,117.3,60,114,60
				z"/>
		</g>
	</g>
	<g id="Dots_10_">
		<g>
			<path class="st3" d="M174,0c-3.3,0-6,2.7-6,6s2.7,6,6,6c3.3,0,6-2.7,6-6S177.3,0,174,0z M150,0c-3.3,0-6,2.7-6,6s2.7,6,6,6
				c3.3,0,6-2.7,6-6S153.3,0,150,0z M186,20c-3.3,0-6,2.7-6,6c0,3.3,2.7,6,6,6c3.3,0,6-2.7,6-6C192,22.7,189.3,20,186,20z M162,20
				c-3.3,0-6,2.7-6,6c0,3.3,2.7,6,6,6c3.3,0,6-2.7,6-6C168,22.7,165.3,20,162,20z"/>
		</g>
	</g>
	<g id="Dots_8_">
		<g>
			<path class="st3" d="M174,40c-3.3,0-6,2.7-6,6c0,3.3,2.7,6,6,6c3.3,0,6-2.7,6-6C180,42.7,177.3,40,174,40z M150,40
				c-3.3,0-6,2.7-6,6c0,3.3,2.7,6,6,6c3.3,0,6-2.7,6-6C156,42.7,153.3,40,150,40z M186,60c-3.3,0-6,2.7-6,6c0,3.3,2.7,6,6,6
				c3.3,0,6-2.7,6-6C192,62.7,189.3,60,186,60z M162,60c-3.3,0-6,2.7-6,6c0,3.3,2.7,6,6,6c3.3,0,6-2.7,6-6C168,62.7,165.3,60,162,60
				z"/>
		</g>
	</g>
	<g id="Dots_22_">
		<g>
			<path class="st3" d="M222,0c-3.3,0-6,2.7-6,6c0,3.3,2.7,6,6,6c3.3,0,6-2.7,6-6C228,2.7,225.3,0,222,0z M198,0c-3.3,0-6,2.7-6,6
				c0,3.3,2.7,6,6,6c3.3,0,6-2.7,6-6C204,2.7,201.3,0,198,0z M234,20c-3.3,0-6,2.7-6,6c0,3.3,2.7,6,6,6c3.3,0,6-2.7,6-6
				C240,22.7,237.3,20,234,20z M210,20c-3.3,0-6,2.7-6,6c0,3.3,2.7,6,6,6c3.3,0,6-2.7,6-6C216,22.7,213.3,20,210,20z"/>
		</g>
	</g>
	<g id="Dots_20_">
		<g>
			<path class="st3" d="M222,40c-3.3,0-6,2.7-6,6c0,3.3,2.7,6,6,6c3.3,0,6-2.7,6-6C228,42.7,225.3,40,222,40z M198,40
				c-3.3,0-6,2.7-6,6c0,3.3,2.7,6,6,6c3.3,0,6-2.7,6-6C204,42.7,201.3,40,198,40z M234,60c-3.3,0-6,2.7-6,6c0,3.3,2.7,6,6,6
				c3.3,0,6-2.7,6-6C240,62.7,237.3,60,234,60z M210,60c-3.3,0-6,2.7-6,6c0,3.3,2.7,6,6,6c3.3,0,6-2.7,6-6C216,62.7,213.3,60,210,60
				z"/>
		</g>
	</g>
	<g id="Dots_18_">
		<g>
			<path class="st3" d="M270,0c-3.3,0-6,2.7-6,6c0,3.3,2.7,6,6,6c3.3,0,6-2.7,6-6C276,2.7,273.3,0,270,0z M246,0c-3.3,0-6,2.7-6,6
				c0,3.3,2.7,6,6,6c3.3,0,6-2.7,6-6C252,2.7,249.3,0,246,0z M282,20c-3.3,0-6,2.7-6,6c0,3.3,2.7,6,6,6c3.3,0,6-2.7,6-6
				C288,22.7,285.3,20,282,20z M258,20c-3.3,0-6,2.7-6,6c0,3.3,2.7,6,6,6c3.3,0,6-2.7,6-6C264,22.7,261.3,20,258,20z"/>
		</g>
	</g>
	<g id="Dots_16_">
		<g>
			<path class="st3" d="M270,40c-3.3,0-6,2.7-6,6c0,3.3,2.7,6,6,6c3.3,0,6-2.7,6-6C276,42.7,273.3,40,270,40z M246,40
				c-3.3,0-6,2.7-6,6c0,3.3,2.7,6,6,6c3.3,0,6-2.7,6-6C252,42.7,249.3,40,246,40z M282,60c-3.3,0-6,2.7-6,6c0,3.3,2.7,6,6,6
				c3.3,0,6-2.7,6-6C288,62.7,285.3,60,282,60z M258,60c-3.3,0-6,2.7-6,6c0,3.3,2.7,6,6,6c3.3,0,6-2.7,6-6C264,62.7,261.3,60,258,60
				z"/>
		</g>
	</g>
	<g id="Dots_30_">
		<g>
			<path class="st3" d="M318,0c-3.3,0-6,2.7-6,6c0,3.3,2.7,6,6,6c3.3,0,6-2.7,6-6C324,2.7,321.3,0,318,0z M294,0c-3.3,0-6,2.7-6,6
				c0,3.3,2.7,6,6,6c3.3,0,6-2.7,6-6C300,2.7,297.3,0,294,0z M330,20c-3.3,0-6,2.7-6,6c0,3.3,2.7,6,6,6c3.3,0,6-2.7,6-6
				C336,22.7,333.3,20,330,20z M306,20c-3.3,0-6,2.7-6,6c0,3.3,2.7,6,6,6c3.3,0,6-2.7,6-6C312,22.7,309.3,20,306,20z"/>
		</g>
	</g>
	<g id="Dots_28_">
		<g>
			<path class="st3" d="M318,40c-3.3,0-6,2.7-6,6c0,3.3,2.7,6,6,6c3.3,0,6-2.7,6-6C324,42.7,321.3,40,318,40z M294,40
				c-3.3,0-6,2.7-6,6c0,3.3,2.7,6,6,6c3.3,0,6-2.7,6-6C300,42.7,297.3,40,294,40z M330,60c-3.3,0-6,2.7-6,6c0,3.3,2.7,6,6,6
				c3.3,0,6-2.7,6-6C336,62.7,333.3,60,330,60z M306,60c-3.3,0-6,2.7-6,6c0,3.3,2.7,6,6,6c3.3,0,6-2.7,6-6C312,62.7,309.3,60,306,60
				z"/>
		</g>
	</g>
	<g id="Dots_26_">
		<g>
			<path class="st3" d="M366,0c-3.3,0-6,2.7-6,6c0,3.3,2.7,6,6,6c3.3,0,6-2.7,6-6C372,2.7,369.3,0,366,0z M342,0c-3.3,0-6,2.7-6,6
				c0,3.3,2.7,6,6,6c3.3,0,6-2.7,6-6C348,2.7,345.3,0,342,0z M378,20c-3.3,0-6,2.7-6,6c0,3.3,2.7,6,6,6c3.3,0,6-2.7,6-6
				C384,22.7,381.3,20,378,20z M354,20c-3.3,0-6,2.7-6,6c0,3.3,2.7,6,6,6c3.3,0,6-2.7,6-6C360,22.7,357.3,20,354,20z"/>
		</g>
	</g>
	<g id="Dots_24_">
		<g>
			<path class="st3" d="M366,40c-3.3,0-6,2.7-6,6c0,3.3,2.7,6,6,6c3.3,0,6-2.7,6-6C372,42.7,369.3,40,366,40z M342,40
				c-3.3,0-6,2.7-6,6c0,3.3,2.7,6,6,6c3.3,0,6-2.7,6-6C348,42.7,345.3,40,342,40z M378,60c-3.3,0-6,2.7-6,6c0,3.3,2.7,6,6,6
				c3.3,0,6-2.7,6-6C384,62.7,381.3,60,378,60z M354,60c-3.3,0-6,2.7-6,6c0,3.3,2.7,6,6,6c3.3,0,6-2.7,6-6C360,62.7,357.3,60,354,60
				z"/>
		</g>
	</g>
	<g id="Dots_38_">
		<g>
			<path class="st3" d="M414,0c-3.3,0-6,2.7-6,6c0,3.3,2.7,6,6,6c3.3,0,6-2.7,6-6C420,2.7,417.3,0,414,0z M390,0c-3.3,0-6,2.7-6,6
				c0,3.3,2.7,6,6,6c3.3,0,6-2.7,6-6C396,2.7,393.3,0,390,0z M426,20c-3.3,0-6,2.7-6,6c0,3.3,2.7,6,6,6c3.3,0,6-2.7,6-6
				C432,22.7,429.3,20,426,20z M402,20c-3.3,0-6,2.7-6,6c0,3.3,2.7,6,6,6c3.3,0,6-2.7,6-6C408,22.7,405.3,20,402,20z"/>
		</g>
	</g>
	<g id="Dots_36_">
		<g>
			<path class="st3" d="M414,40c-3.3,0-6,2.7-6,6c0,3.3,2.7,6,6,6c3.3,0,6-2.7,6-6C420,42.7,417.3,40,414,40z M390,40
				c-3.3,0-6,2.7-6,6c0,3.3,2.7,6,6,6c3.3,0,6-2.7,6-6C396,42.7,393.3,40,390,40z M426,60c-3.3,0-6,2.7-6,6c0,3.3,2.7,6,6,6
				c3.3,0,6-2.7,6-6C432,62.7,429.3,60,426,60z M402,60c-3.3,0-6,2.7-6,6c0,3.3,2.7,6,6,6c3.3,0,6-2.7,6-6C408,62.7,405.3,60,402,60
				z"/>
		</g>
	</g>
	<g id="Dots_34_">
		<g>
			<path class="st3" d="M462,0c-3.3,0-6,2.7-6,6c0,3.3,2.7,6,6,6c3.3,0,6-2.7,6-6C468,2.7,465.3,0,462,0z M438,0c-3.3,0-6,2.7-6,6
				c0,3.3,2.7,6,6,6c3.3,0,6-2.7,6-6C444,2.7,441.3,0,438,0z M474,20c-3.3,0-6,2.7-6,6c0,3.3,2.7,6,6,6c3.3,0,6-2.7,6-6
				C480,22.7,477.3,20,474,20z M450,20c-3.3,0-6,2.7-6,6c0,3.3,2.7,6,6,6c3.3,0,6-2.7,6-6C456,22.7,453.3,20,450,20z"/>
		</g>
	</g>
	<g id="Dots_32_">
		<g>
			<path class="st3" d="M462,40c-3.3,0-6,2.7-6,6c0,3.3,2.7,6,6,6c3.3,0,6-2.7,6-6C468,42.7,465.3,40,462,40z M438,40
				c-3.3,0-6,2.7-6,6c0,3.3,2.7,6,6,6c3.3,0,6-2.7,6-6C444,42.7,441.3,40,438,40z M474,60c-3.3,0-6,2.7-6,6c0,3.3,2.7,6,6,6
				c3.3,0,6-2.7,6-6C480,62.7,477.3,60,474,60z M450,60c-3.3,0-6,2.7-6,6c0,3.3,2.7,6,6,6c3.3,0,6-2.7,6-6C456,62.7,453.3,60,450,60
				z"/>
		</g>
	</g>
	<g id="Dots_46_">
		<g>
			<path class="st3" d="M510,0c-3.3,0-6,2.7-6,6c0,3.3,2.7,6,6,6c3.3,0,6-2.7,6-6C516,2.7,513.3,0,510,0z M486,0c-3.3,0-6,2.7-6,6
				c0,3.3,2.7,6,6,6c3.3,0,6-2.7,6-6C492,2.7,489.3,0,486,0z M522,20c-3.3,0-6,2.7-6,6c0,3.3,2.7,6,6,6c3.3,0,6-2.7,6-6
				C528,22.7,525.3,20,522,20z M498,20c-3.3,0-6,2.7-6,6c0,3.3,2.7,6,6,6c3.3,0,6-2.7,6-6C504,22.7,501.3,20,498,20z"/>
		</g>
	</g>
	<g id="Dots_44_">
		<g>
			<path class="st3" d="M510,40c-3.3,0-6,2.7-6,6c0,3.3,2.7,6,6,6c3.3,0,6-2.7,6-6C516,42.7,513.3,40,510,40z M486,40
				c-3.3,0-6,2.7-6,6c0,3.3,2.7,6,6,6c3.3,0,6-2.7,6-6C492,42.7,489.3,40,486,40z M522,60c-3.3,0-6,2.7-6,6c0,3.3,2.7,6,6,6
				c3.3,0,6-2.7,6-6C528,62.7,525.3,60,522,60z M498,60c-3.3,0-6,2.7-6,6c0,3.3,2.7,6,6,6c3.3,0,6-2.7,6-6C504,62.7,501.3,60,498,60
				z"/>
		</g>
	</g>
	<g id="Dots_42_">
		<g>
			<path class="st3" d="M558,0c-3.3,0-6,2.7-6,6c0,3.3,2.7,6,6,6c3.3,0,6-2.7,6-6C564,2.7,561.3,0,558,0z M534,0c-3.3,0-6,2.7-6,6
				c0,3.3,2.7,6,6,6c3.3,0,6-2.7,6-6C540,2.7,537.3,0,534,0z M570,20c-3.3,0-6,2.7-6,6c0,3.3,2.7,6,6,6c3.3,0,6-2.7,6-6
				C576,22.7,573.3,20,570,20z M546,20c-3.3,0-6,2.7-6,6c0,3.3,2.7,6,6,6c3.3,0,6-2.7,6-6C552,22.7,549.3,20,546,20z"/>
		</g>
	</g>
	<g id="Dots_40_">
		<g>
			<path class="st3" d="M558,40c-3.3,0-6,2.7-6,6c0,3.3,2.7,6,6,6c3.3,0,6-2.7,6-6C564,42.7,561.3,40,558,40z M534,40
				c-3.3,0-6,2.7-6,6c0,3.3,2.7,6,6,6c3.3,0,6-2.7,6-6C540,42.7,537.3,40,534,40z M570,60c-3.3,0-6,2.7-6,6c0,3.3,2.7,6,6,6
				c3.3,0,6-2.7,6-6C576,62.7,573.3,60,570,60z M546,60c-3.3,0-6,2.7-6,6c0,3.3,2.7,6,6,6c3.3,0,6-2.7,6-6C552,62.7,549.3,60,546,60
				z"/>
		</g>
	</g>
	<g id="Dots_54_">
		<g>
			<path class="st3" d="M606,0c-3.3,0-6,2.7-6,6c0,3.3,2.7,6,6,6c3.3,0,6-2.7,6-6C612,2.7,609.3,0,606,0z M582,0c-3.3,0-6,2.7-6,6
				c0,3.3,2.7,6,6,6c3.3,0,6-2.7,6-6C588,2.7,585.3,0,582,0z M618,20c-3.3,0-6,2.7-6,6c0,3.3,2.7,6,6,6c3.3,0,6-2.7,6-6
				C624,22.7,621.3,20,618,20z M594,20c-3.3,0-6,2.7-6,6c0,3.3,2.7,6,6,6c3.3,0,6-2.7,6-6C600,22.7,597.3,20,594,20z"/>
		</g>
	</g>
	<g id="Dots_52_">
		<g>
			<path class="st3" d="M606,40c-3.3,0-6,2.7-6,6c0,3.3,2.7,6,6,6c3.3,0,6-2.7,6-6C612,42.7,609.3,40,606,40z M582,40
				c-3.3,0-6,2.7-6,6c0,3.3,2.7,6,6,6c3.3,0,6-2.7,6-6C588,42.7,585.3,40,582,40z M618,60c-3.3,0-6,2.7-6,6c0,3.3,2.7,6,6,6
				c3.3,0,6-2.7,6-6C624,62.7,621.3,60,618,60z M594,60c-3.3,0-6,2.7-6,6c0,3.3,2.7,6,6,6c3.3,0,6-2.7,6-6C600,62.7,597.3,60,594,60
				z"/>
		</g>
	</g>
	<g id="Dots_50_">
		<g>
			<path class="st3" d="M654,0c-3.3,0-6,2.7-6,6c0,3.3,2.7,6,6,6c3.3,0,6-2.7,6-6C660,2.7,657.3,0,654,0z M630,0c-3.3,0-6,2.7-6,6
				c0,3.3,2.7,6,6,6c3.3,0,6-2.7,6-6C636,2.7,633.3,0,630,0z M666,20c-3.3,0-6,2.7-6,6c0,3.3,2.7,6,6,6c3.3,0,6-2.7,6-6
				C672,22.7,669.3,20,666,20z M642,20c-3.3,0-6,2.7-6,6c0,3.3,2.7,6,6,6c3.3,0,6-2.7,6-6C648,22.7,645.3,20,642,20z"/>
		</g>
	</g>
	<g id="Dots_48_">
		<g>
			<path class="st3" d="M654,40c-3.3,0-6,2.7-6,6c0,3.3,2.7,6,6,6c3.3,0,6-2.7,6-6C660,42.7,657.3,40,654,40z M630,40
				c-3.3,0-6,2.7-6,6c0,3.3,2.7,6,6,6c3.3,0,6-2.7,6-6C636,42.7,633.3,40,630,40z M666,60c-3.3,0-6,2.7-6,6c0,3.3,2.7,6,6,6
				c3.3,0,6-2.7,6-6C672,62.7,669.3,60,666,60z M642,60c-3.3,0-6,2.7-6,6c0,3.3,2.7,6,6,6c3.3,0,6-2.7,6-6C648,62.7,645.3,60,642,60
				z"/>
		</g>
	</g>
	<g id="Dots_62_">
		<g>
			<path class="st3" d="M702,0c-3.3,0-6,2.7-6,6c0,3.3,2.7,6,6,6c3.3,0,6-2.7,6-6C708,2.7,705.3,0,702,0z M678,0c-3.3,0-6,2.7-6,6
				c0,3.3,2.7,6,6,6c3.3,0,6-2.7,6-6C684,2.7,681.3,0,678,0z M714,20c-3.3,0-6,2.7-6,6c0,3.3,2.7,6,6,6c3.3,0,6-2.7,6-6
				C720,22.7,717.3,20,714,20z M690,20c-3.3,0-6,2.7-6,6c0,3.3,2.7,6,6,6c3.3,0,6-2.7,6-6C696,22.7,693.3,20,690,20z"/>
		</g>
	</g>
	<g id="Dots_60_">
		<g>
			<path class="st3" d="M702,40c-3.3,0-6,2.7-6,6c0,3.3,2.7,6,6,6c3.3,0,6-2.7,6-6C708,42.7,705.3,40,702,40z M678,40
				c-3.3,0-6,2.7-6,6c0,3.3,2.7,6,6,6c3.3,0,6-2.7,6-6C684,42.7,681.3,40,678,40z M714,60c-3.3,0-6,2.7-6,6c0,3.3,2.7,6,6,6
				c3.3,0,6-2.7,6-6C720,62.7,717.3,60,714,60z M690,60c-3.3,0-6,2.7-6,6c0,3.3,2.7,6,6,6c3.3,0,6-2.7,6-6C696,62.7,693.3,60,690,60
				z"/>
		</g>
	</g>
	<g id="Dots_58_">
		<g>
			<path class="st3" d="M750,0c-3.3,0-6,2.7-6,6c0,3.3,2.7,6,6,6c3.3,0,6-2.7,6-6C756,2.7,753.3,0,750,0z M726,0c-3.3,0-6,2.7-6,6
				c0,3.3,2.7,6,6,6c3.3,0,6-2.7,6-6C732,2.7,729.3,0,726,0z M762,20c-3.3,0-6,2.7-6,6c0,3.3,2.7,6,6,6c3.3,0,6-2.7,6-6
				C768,22.7,765.3,20,762,20z M738,20c-3.3,0-6,2.7-6,6c0,3.3,2.7,6,6,6c3.3,0,6-2.7,6-6C744,22.7,741.3,20,738,20z"/>
		</g>
	</g>
	<g id="Dots_56_">
		<g>
			<path class="st3" d="M750,40c-3.3,0-6,2.7-6,6c0,3.3,2.7,6,6,6c3.3,0,6-2.7,6-6C756,42.7,753.3,40,750,40z M726,40
				c-3.3,0-6,2.7-6,6c0,3.3,2.7,6,6,6c3.3,0,6-2.7,6-6C732,42.7,729.3,40,726,40z M762,60c-3.3,0-6,2.7-6,6c0,3.3,2.7,6,6,6
				c3.3,0,6-2.7,6-6C768,62.7,765.3,60,762,60z M738,60c-3.3,0-6,2.7-6,6c0,3.3,2.7,6,6,6c3.3,0,6-2.7,6-6C744,62.7,741.3,60,738,60
				z"/>
		</g>
	</g>
	<g id="Dots_70_">
		<g>
			<path class="st3" d="M798,0c-3.3,0-6,2.7-6,6c0,3.3,2.7,6,6,6c3.3,0,6-2.7,6-6C804,2.7,801.3,0,798,0z M774,0c-3.3,0-6,2.7-6,6
				c0,3.3,2.7,6,6,6c3.3,0,6-2.7,6-6C780,2.7,777.3,0,774,0z M810,20c-3.3,0-6,2.7-6,6c0,3.3,2.7,6,6,6c3.3,0,6-2.7,6-6
				C816,22.7,813.3,20,810,20z M786,20c-3.3,0-6,2.7-6,6c0,3.3,2.7,6,6,6c3.3,0,6-2.7,6-6C792,22.7,789.3,20,786,20z"/>
		</g>
	</g>
	<g id="Dots_68_">
		<g>
			<path class="st3" d="M798,40c-3.3,0-6,2.7-6,6c0,3.3,2.7,6,6,6c3.3,0,6-2.7,6-6C804,42.7,801.3,40,798,40z M774,40
				c-3.3,0-6,2.7-6,6c0,3.3,2.7,6,6,6c3.3,0,6-2.7,6-6C780,42.7,777.3,40,774,40z M810,60c-3.3,0-6,2.7-6,6c0,3.3,2.7,6,6,6
				c3.3,0,6-2.7,6-6C816,62.7,813.3,60,810,60z M786,60c-3.3,0-6,2.7-6,6c0,3.3,2.7,6,6,6c3.3,0,6-2.7,6-6C792,62.7,789.3,60,786,60
				z"/>
		</g>
	</g>
	<g id="Dots_66_">
		<g>
			<path class="st3" d="M846,0c-3.3,0-6,2.7-6,6c0,3.3,2.7,6,6,6c3.3,0,6-2.7,6-6C852,2.7,849.3,0,846,0z M822,0c-3.3,0-6,2.7-6,6
				c0,3.3,2.7,6,6,6c3.3,0,6-2.7,6-6C828,2.7,825.3,0,822,0z M858,20c-3.3,0-6,2.7-6,6c0,3.3,2.7,6,6,6c3.3,0,6-2.7,6-6
				C864,22.7,861.3,20,858,20z M834,20c-3.3,0-6,2.7-6,6c0,3.3,2.7,6,6,6c3.3,0,6-2.7,6-6C840,22.7,837.3,20,834,20z"/>
		</g>
	</g>
	<g id="Dots_64_">
		<g>
			<path class="st3" d="M846,40c-3.3,0-6,2.7-6,6c0,3.3,2.7,6,6,6c3.3,0,6-2.7,6-6C852,42.7,849.3,40,846,40z M822,40
				c-3.3,0-6,2.7-6,6c0,3.3,2.7,6,6,6c3.3,0,6-2.7,6-6C828,42.7,825.3,40,822,40z M858,60c-3.3,0-6,2.7-6,6c0,3.3,2.7,6,6,6
				c3.3,0,6-2.7,6-6C864,62.7,861.3,60,858,60z M834,60c-3.3,0-6,2.7-6,6c0,3.3,2.7,6,6,6c3.3,0,6-2.7,6-6C840,62.7,837.3,60,834,60
				z"/>
		</g>
	</g>
	<g id="Dots_78_">
		<g>
			<path class="st3" d="M894,0c-3.3,0-6,2.7-6,6c0,3.3,2.7,6,6,6c3.3,0,6-2.7,6-6C900,2.7,897.3,0,894,0z M870,0c-3.3,0-6,2.7-6,6
				c0,3.3,2.7,6,6,6c3.3,0,6-2.7,6-6C876,2.7,873.3,0,870,0z M906,20c-3.3,0-6,2.7-6,6c0,3.3,2.7,6,6,6c3.3,0,6-2.7,6-6
				C912,22.7,909.3,20,906,20z M882,20c-3.3,0-6,2.7-6,6c0,3.3,2.7,6,6,6c3.3,0,6-2.7,6-6C888,22.7,885.3,20,882,20z"/>
		</g>
	</g>
	<g id="Dots_76_">
		<g>
			<path class="st3" d="M894,40c-3.3,0-6,2.7-6,6c0,3.3,2.7,6,6,6c3.3,0,6-2.7,6-6C900,42.7,897.3,40,894,40z M870,40
				c-3.3,0-6,2.7-6,6c0,3.3,2.7,6,6,6c3.3,0,6-2.7,6-6C876,42.7,873.3,40,870,40z M906,60c-3.3,0-6,2.7-6,6c0,3.3,2.7,6,6,6
				c3.3,0,6-2.7,6-6C912,62.7,909.3,60,906,60z M882,60c-3.3,0-6,2.7-6,6c0,3.3,2.7,6,6,6c3.3,0,6-2.7,6-6C888,62.7,885.3,60,882,60
				z"/>
		</g>
	</g>
	<g id="Dots_74_">
		<g>
			<path class="st3" d="M942,0c-3.3,0-6,2.7-6,6c0,3.3,2.7,6,6,6c3.3,0,6-2.7,6-6C948,2.7,945.3,0,942,0z M918,0c-3.3,0-6,2.7-6,6
				c0,3.3,2.7,6,6,6c3.3,0,6-2.7,6-6C924,2.7,921.3,0,918,0z M954,20c-3.3,0-6,2.7-6,6c0,3.3,2.7,6,6,6c3.3,0,6-2.7,6-6
				C960,22.7,957.3,20,954,20z M930,20c-3.3,0-6,2.7-6,6c0,3.3,2.7,6,6,6c3.3,0,6-2.7,6-6C936,22.7,933.3,20,930,20z"/>
		</g>
	</g>
	<g id="Dots_72_">
		<g>
			<path class="st3" d="M942,40c-3.3,0-6,2.7-6,6c0,3.3,2.7,6,6,6c3.3,0,6-2.7,6-6C948,42.7,945.3,40,942,40z M918,40
				c-3.3,0-6,2.7-6,6c0,3.3,2.7,6,6,6c3.3,0,6-2.7,6-6C924,42.7,921.3,40,918,40z M954,60c-3.3,0-6,2.7-6,6c0,3.3,2.7,6,6,6
				c3.3,0,6-2.7,6-6C960,62.7,957.3,60,954,60z M930,60c-3.3,0-6,2.7-6,6c0,3.3,2.7,6,6,6c3.3,0,6-2.7,6-6C936,62.7,933.3,60,930,60
				z"/>
		</g>
	</g>
	<g id="Dots_86_">
		<g>
			<path class="st3" d="M990,0c-3.3,0-6,2.7-6,6c0,3.3,2.7,6,6,6c3.3,0,6-2.7,6-6C996,2.7,993.3,0,990,0z M966,0c-3.3,0-6,2.7-6,6
				c0,3.3,2.7,6,6,6c3.3,0,6-2.7,6-6C972,2.7,969.3,0,966,0z M1002,20c-3.3,0-6,2.7-6,6c0,3.3,2.7,6,6,6c3.3,0,6-2.7,6-6
				C1008,22.7,1005.3,20,1002,20z M978,20c-3.3,0-6,2.7-6,6c0,3.3,2.7,6,6,6c3.3,0,6-2.7,6-6C984,22.7,981.3,20,978,20z"/>
		</g>
	</g>
	<g id="Dots_84_">
		<g>
			<path class="st3" d="M990,40c-3.3,0-6,2.7-6,6c0,3.3,2.7,6,6,6c3.3,0,6-2.7,6-6C996,42.7,993.3,40,990,40z M966,40
				c-3.3,0-6,2.7-6,6c0,3.3,2.7,6,6,6c3.3,0,6-2.7,6-6C972,42.7,969.3,40,966,40z M1002,60c-3.3,0-6,2.7-6,6c0,3.3,2.7,6,6,6
				c3.3,0,6-2.7,6-6C1008,62.7,1005.3,60,1002,60z M978,60c-3.3,0-6,2.7-6,6c0,3.3,2.7,6,6,6c3.3,0,6-2.7,6-6
				C984,62.7,981.3,60,978,60z"/>
		</g>
	</g>
	<g id="Dots_82_">
		<g>
			<path class="st3" d="M1038,0c-3.3,0-6,2.7-6,6c0,3.3,2.7,6,6,6s6-2.7,6-6C1044,2.7,1041.3,0,1038,0z M1014,0c-3.3,0-6,2.7-6,6
				c0,3.3,2.7,6,6,6c3.3,0,6-2.7,6-6C1020,2.7,1017.3,0,1014,0z M1050,20c-3.3,0-6,2.7-6,6c0,3.3,2.7,6,6,6s6-2.7,6-6
				C1056,22.7,1053.3,20,1050,20z M1026,20c-3.3,0-6,2.7-6,6c0,3.3,2.7,6,6,6c3.3,0,6-2.7,6-6C1032,22.7,1029.3,20,1026,20z"/>
		</g>
	</g>
	<g id="Dots_80_">
		<g>
			<path class="st3" d="M1038,40c-3.3,0-6,2.7-6,6c0,3.3,2.7,6,6,6s6-2.7,6-6C1044,42.7,1041.3,40,1038,40z M1014,40
				c-3.3,0-6,2.7-6,6c0,3.3,2.7,6,6,6c3.3,0,6-2.7,6-6C1020,42.7,1017.3,40,1014,40z M1050,60c-3.3,0-6,2.7-6,6c0,3.3,2.7,6,6,6
				s6-2.7,6-6C1056,62.7,1053.3,60,1050,60z M1026,60c-3.3,0-6,2.7-6,6c0,3.3,2.7,6,6,6c3.3,0,6-2.7,6-6
				C1032,62.7,1029.3,60,1026,60z"/>
		</g>
	</g>
	<g id="Dots_94_">
		<g>
			<path class="st3" d="M1086,0c-3.3,0-6,2.7-6,6c0,3.3,2.7,6,6,6s6-2.7,6-6C1092,2.7,1089.3,0,1086,0z M1062,0c-3.3,0-6,2.7-6,6
				c0,3.3,2.7,6,6,6s6-2.7,6-6C1068,2.7,1065.3,0,1062,0z M1098,20c-3.3,0-6,2.7-6,6c0,3.3,2.7,6,6,6s6-2.7,6-6
				C1104,22.7,1101.3,20,1098,20z M1074,20c-3.3,0-6,2.7-6,6c0,3.3,2.7,6,6,6s6-2.7,6-6C1080,22.7,1077.3,20,1074,20z"/>
		</g>
	</g>
	<g id="Dots_92_">
		<g>
			<path class="st3" d="M1086,40c-3.3,0-6,2.7-6,6c0,3.3,2.7,6,6,6s6-2.7,6-6C1092,42.7,1089.3,40,1086,40z M1062,40
				c-3.3,0-6,2.7-6,6c0,3.3,2.7,6,6,6s6-2.7,6-6C1068,42.7,1065.3,40,1062,40z M1098,60c-3.3,0-6,2.7-6,6c0,3.3,2.7,6,6,6s6-2.7,6-6
				C1104,62.7,1101.3,60,1098,60z M1074,60c-3.3,0-6,2.7-6,6c0,3.3,2.7,6,6,6s6-2.7,6-6C1080,62.7,1077.3,60,1074,60z"/>
		</g>
	</g>
	<g id="Dots_90_">
		<g>
			<path class="st3" d="M1134,0c-3.3,0-6,2.7-6,6c0,3.3,2.7,6,6,6s6-2.7,6-6C1140,2.7,1137.3,0,1134,0z M1110,0c-3.3,0-6,2.7-6,6
				c0,3.3,2.7,6,6,6s6-2.7,6-6C1116,2.7,1113.3,0,1110,0z M1146,20c-3.3,0-6,2.7-6,6c0,3.3,2.7,6,6,6s6-2.7,6-6
				C1152,22.7,1149.3,20,1146,20z M1122,20c-3.3,0-6,2.7-6,6c0,3.3,2.7,6,6,6s6-2.7,6-6C1128,22.7,1125.3,20,1122,20z"/>
		</g>
	</g>
	<g id="Dots_88_">
		<g>
			<path class="st3" d="M1134,40c-3.3,0-6,2.7-6,6c0,3.3,2.7,6,6,6s6-2.7,6-6C1140,42.7,1137.3,40,1134,40z M1110,40
				c-3.3,0-6,2.7-6,6c0,3.3,2.7,6,6,6s6-2.7,6-6C1116,42.7,1113.3,40,1110,40z M1146,60c-3.3,0-6,2.7-6,6c0,3.3,2.7,6,6,6s6-2.7,6-6
				C1152,62.7,1149.3,60,1146,60z M1122,60c-3.3,0-6,2.7-6,6c0,3.3,2.7,6,6,6s6-2.7,6-6C1128,62.7,1125.3,60,1122,60z"/>
		</g>
	</g>
	<g id="Dots_102_">
		<g>
			<path class="st3" d="M1182,0c-3.3,0-6,2.7-6,6c0,3.3,2.7,6,6,6s6-2.7,6-6C1188,2.7,1185.3,0,1182,0z M1158,0c-3.3,0-6,2.7-6,6
				c0,3.3,2.7,6,6,6s6-2.7,6-6C1164,2.7,1161.3,0,1158,0z M1194,20c-3.3,0-6,2.7-6,6c0,3.3,2.7,6,6,6s6-2.7,6-6
				C1200,22.7,1197.3,20,1194,20z M1170,20c-3.3,0-6,2.7-6,6c0,3.3,2.7,6,6,6s6-2.7,6-6C1176,22.7,1173.3,20,1170,20z"/>
		</g>
	</g>
	<g id="Dots_100_">
		<g>
			<path class="st3" d="M1182,40c-3.3,0-6,2.7-6,6c0,3.3,2.7,6,6,6s6-2.7,6-6C1188,42.7,1185.3,40,1182,40z M1158,40
				c-3.3,0-6,2.7-6,6c0,3.3,2.7,6,6,6s6-2.7,6-6C1164,42.7,1161.3,40,1158,40z M1194,60c-3.3,0-6,2.7-6,6c0,3.3,2.7,6,6,6s6-2.7,6-6
				C1200,62.7,1197.3,60,1194,60z M1170,60c-3.3,0-6,2.7-6,6c0,3.3,2.7,6,6,6s6-2.7,6-6C1176,62.7,1173.3,60,1170,60z"/>
		</g>
	</g>
	<g id="Dots_98_">
		<g>
			<path class="st3" d="M1230,0c-3.3,0-6,2.7-6,6c0,3.3,2.7,6,6,6s6-2.7,6-6C1236,2.7,1233.3,0,1230,0z M1206,0c-3.3,0-6,2.7-6,6
				c0,3.3,2.7,6,6,6s6-2.7,6-6C1212,2.7,1209.3,0,1206,0z M1242,20c-3.3,0-6,2.7-6,6c0,3.3,2.7,6,6,6s6-2.7,6-6
				C1248,22.7,1245.3,20,1242,20z M1218,20c-3.3,0-6,2.7-6,6c0,3.3,2.7,6,6,6s6-2.7,6-6C1224,22.7,1221.3,20,1218,20z"/>
		</g>
	</g>
	<g id="Dots_96_">
		<g>
			<path class="st3" d="M1230,40c-3.3,0-6,2.7-6,6c0,3.3,2.7,6,6,6s6-2.7,6-6C1236,42.7,1233.3,40,1230,40z M1206,40
				c-3.3,0-6,2.7-6,6c0,3.3,2.7,6,6,6s6-2.7,6-6C1212,42.7,1209.3,40,1206,40z M1242,60c-3.3,0-6,2.7-6,6c0,3.3,2.7,6,6,6s6-2.7,6-6
				C1248,62.7,1245.3,60,1242,60z M1218,60c-3.3,0-6,2.7-6,6c0,3.3,2.7,6,6,6s6-2.7,6-6C1224,62.7,1221.3,60,1218,60z"/>
		</g>
	</g>
	<g id="Dots_110_">
		<g>
			<path class="st3" d="M1278,0c-3.3,0-6,2.7-6,6c0,3.3,2.7,6,6,6s6-2.7,6-6C1284,2.7,1281.3,0,1278,0z M1254,0c-3.3,0-6,2.7-6,6
				c0,3.3,2.7,6,6,6s6-2.7,6-6C1260,2.7,1257.3,0,1254,0z M1290,20c-3.3,0-6,2.7-6,6c0,3.3,2.7,6,6,6s6-2.7,6-6
				C1296,22.7,1293.3,20,1290,20z M1266,20c-3.3,0-6,2.7-6,6c0,3.3,2.7,6,6,6s6-2.7,6-6C1272,22.7,1269.3,20,1266,20z"/>
		</g>
	</g>
	<g id="Dots_108_">
		<g>
			<path class="st3" d="M1278,40c-3.3,0-6,2.7-6,6c0,3.3,2.7,6,6,6s6-2.7,6-6C1284,42.7,1281.3,40,1278,40z M1254,40
				c-3.3,0-6,2.7-6,6c0,3.3,2.7,6,6,6s6-2.7,6-6C1260,42.7,1257.3,40,1254,40z M1290,60c-3.3,0-6,2.7-6,6c0,3.3,2.7,6,6,6s6-2.7,6-6
				C1296,62.7,1293.3,60,1290,60z M1266,60c-3.3,0-6,2.7-6,6c0,3.3,2.7,6,6,6s6-2.7,6-6C1272,62.7,1269.3,60,1266,60z"/>
		</g>
	</g>
	<g id="Dots_106_">
		<g>
			<path class="st3" d="M1326,0c-3.3,0-6,2.7-6,6c0,3.3,2.7,6,6,6s6-2.7,6-6C1332,2.7,1329.3,0,1326,0z M1302,0c-3.3,0-6,2.7-6,6
				c0,3.3,2.7,6,6,6s6-2.7,6-6C1308,2.7,1305.3,0,1302,0z M1338,20c-3.3,0-6,2.7-6,6c0,3.3,2.7,6,6,6s6-2.7,6-6
				C1344,22.7,1341.3,20,1338,20z M1314,20c-3.3,0-6,2.7-6,6c0,3.3,2.7,6,6,6s6-2.7,6-6C1320,22.7,1317.3,20,1314,20z"/>
		</g>
	</g>
	<g id="Dots_104_">
		<g>
			<path class="st3" d="M1326,40c-3.3,0-6,2.7-6,6c0,3.3,2.7,6,6,6s6-2.7,6-6C1332,42.7,1329.3,40,1326,40z M1302,40
				c-3.3,0-6,2.7-6,6c0,3.3,2.7,6,6,6s6-2.7,6-6C1308,42.7,1305.3,40,1302,40z M1338,60c-3.3,0-6,2.7-6,6c0,3.3,2.7,6,6,6s6-2.7,6-6
				C1344,62.7,1341.3,60,1338,60z M1314,60c-3.3,0-6,2.7-6,6c0,3.3,2.7,6,6,6s6-2.7,6-6C1320,62.7,1317.3,60,1314,60z"/>
		</g>
	</g>
	<g id="Dots_118_">
		<g>
			<path class="st3" d="M1374,0c-3.3,0-6,2.7-6,6c0,3.3,2.7,6,6,6s6-2.7,6-6C1380,2.7,1377.3,0,1374,0z M1350,0c-3.3,0-6,2.7-6,6
				c0,3.3,2.7,6,6,6s6-2.7,6-6C1356,2.7,1353.3,0,1350,0z M1386,20c-3.3,0-6,2.7-6,6c0,3.3,2.7,6,6,6s6-2.7,6-6
				C1392,22.7,1389.3,20,1386,20z M1362,20c-3.3,0-6,2.7-6,6c0,3.3,2.7,6,6,6s6-2.7,6-6C1368,22.7,1365.3,20,1362,20z"/>
		</g>
	</g>
	<g id="Dots_116_">
		<g>
			<path class="st3" d="M1374,40c-3.3,0-6,2.7-6,6c0,3.3,2.7,6,6,6s6-2.7,6-6C1380,42.7,1377.3,40,1374,40z M1350,40
				c-3.3,0-6,2.7-6,6c0,3.3,2.7,6,6,6s6-2.7,6-6C1356,42.7,1353.3,40,1350,40z M1386,60c-3.3,0-6,2.7-6,6c0,3.3,2.7,6,6,6s6-2.7,6-6
				C1392,62.7,1389.3,60,1386,60z M1362,60c-3.3,0-6,2.7-6,6c0,3.3,2.7,6,6,6s6-2.7,6-6C1368,62.7,1365.3,60,1362,60z"/>
		</g>
	</g>
	<g id="Dots_114_">
		<g>
			<path class="st3" d="M1422,0c-3.3,0-6,2.7-6,6c0,3.3,2.7,6,6,6s6-2.7,6-6C1428,2.7,1425.3,0,1422,0z M1398,0c-3.3,0-6,2.7-6,6
				c0,3.3,2.7,6,6,6s6-2.7,6-6C1404,2.7,1401.3,0,1398,0z M1434,20c-3.3,0-6,2.7-6,6c0,3.3,2.7,6,6,6s6-2.7,6-6
				C1440,22.7,1437.3,20,1434,20z M1410,20c-3.3,0-6,2.7-6,6c0,3.3,2.7,6,6,6s6-2.7,6-6C1416,22.7,1413.3,20,1410,20z"/>
		</g>
	</g>
	<g id="Dots_112_">
		<g>
			<path class="st3" d="M1422,40c-3.3,0-6,2.7-6,6c0,3.3,2.7,6,6,6s6-2.7,6-6C1428,42.7,1425.3,40,1422,40z M1398,40
				c-3.3,0-6,2.7-6,6c0,3.3,2.7,6,6,6s6-2.7,6-6C1404,42.7,1401.3,40,1398,40z M1434,60c-3.3,0-6,2.7-6,6c0,3.3,2.7,6,6,6s6-2.7,6-6
				C1440,62.7,1437.3,60,1434,60z M1410,60c-3.3,0-6,2.7-6,6c0,3.3,2.7,6,6,6s6-2.7,6-6C1416,62.7,1413.3,60,1410,60z"/>
		</g>
	</g>
	<g id="Dots_126_">
		<g>
			<path class="st3" d="M1470,0c-3.3,0-6,2.7-6,6c0,3.3,2.7,6,6,6s6-2.7,6-6C1476,2.7,1473.3,0,1470,0z M1446,0c-3.3,0-6,2.7-6,6
				c0,3.3,2.7,6,6,6s6-2.7,6-6C1452,2.7,1449.3,0,1446,0z M1482,20c-3.3,0-6,2.7-6,6c0,3.3,2.7,6,6,6s6-2.7,6-6
				C1488,22.7,1485.3,20,1482,20z M1458,20c-3.3,0-6,2.7-6,6c0,3.3,2.7,6,6,6s6-2.7,6-6C1464,22.7,1461.3,20,1458,20z"/>
		</g>
	</g>
	<g id="Dots_124_">
		<g>
			<path class="st3" d="M1470,40c-3.3,0-6,2.7-6,6c0,3.3,2.7,6,6,6s6-2.7,6-6C1476,42.7,1473.3,40,1470,40z M1446,40
				c-3.3,0-6,2.7-6,6c0,3.3,2.7,6,6,6s6-2.7,6-6C1452,42.7,1449.3,40,1446,40z M1482,60c-3.3,0-6,2.7-6,6c0,3.3,2.7,6,6,6s6-2.7,6-6
				C1488,62.7,1485.3,60,1482,60z M1458,60c-3.3,0-6,2.7-6,6c0,3.3,2.7,6,6,6s6-2.7,6-6C1464,62.7,1461.3,60,1458,60z"/>
		</g>
	</g>
	<g id="Dots_122_">
		<g>
			<path class="st3" d="M1518,0c-3.3,0-6,2.7-6,6c0,3.3,2.7,6,6,6s6-2.7,6-6C1524,2.7,1521.3,0,1518,0z M1494,0c-3.3,0-6,2.7-6,6
				c0,3.3,2.7,6,6,6s6-2.7,6-6C1500,2.7,1497.3,0,1494,0z M1530,20c-3.3,0-6,2.7-6,6c0,3.3,2.7,6,6,6s6-2.7,6-6
				C1536,22.7,1533.3,20,1530,20z M1506,20c-3.3,0-6,2.7-6,6c0,3.3,2.7,6,6,6s6-2.7,6-6C1512,22.7,1509.3,20,1506,20z"/>
		</g>
	</g>
	<g id="Dots_120_">
		<g>
			<path class="st3" d="M1518,40c-3.3,0-6,2.7-6,6c0,3.3,2.7,6,6,6s6-2.7,6-6C1524,42.7,1521.3,40,1518,40z M1494,40
				c-3.3,0-6,2.7-6,6c0,3.3,2.7,6,6,6s6-2.7,6-6C1500,42.7,1497.3,40,1494,40z M1530,60c-3.3,0-6,2.7-6,6c0,3.3,2.7,6,6,6s6-2.7,6-6
				C1536,62.7,1533.3,60,1530,60z M1506,60c-3.3,0-6,2.7-6,6c0,3.3,2.7,6,6,6s6-2.7,6-6C1512,62.7,1509.3,60,1506,60z"/>
		</g>
	</g>
	<g id="Dots_134_">
		<g>
			<path class="st3" d="M1566,0c-3.3,0-6,2.7-6,6c0,3.3,2.7,6,6,6s6-2.7,6-6C1572,2.7,1569.3,0,1566,0z M1542,0c-3.3,0-6,2.7-6,6
				c0,3.3,2.7,6,6,6s6-2.7,6-6C1548,2.7,1545.3,0,1542,0z M1578,20c-3.3,0-6,2.7-6,6c0,3.3,2.7,6,6,6s6-2.7,6-6
				C1584,22.7,1581.3,20,1578,20z M1554,20c-3.3,0-6,2.7-6,6c0,3.3,2.7,6,6,6s6-2.7,6-6C1560,22.7,1557.3,20,1554,20z"/>
		</g>
	</g>
	<g id="Dots_132_">
		<g>
			<path class="st3" d="M1566,40c-3.3,0-6,2.7-6,6c0,3.3,2.7,6,6,6s6-2.7,6-6C1572,42.7,1569.3,40,1566,40z M1542,40
				c-3.3,0-6,2.7-6,6c0,3.3,2.7,6,6,6s6-2.7,6-6C1548,42.7,1545.3,40,1542,40z M1578,60c-3.3,0-6,2.7-6,6c0,3.3,2.7,6,6,6s6-2.7,6-6
				C1584,62.7,1581.3,60,1578,60z M1554,60c-3.3,0-6,2.7-6,6c0,3.3,2.7,6,6,6s6-2.7,6-6C1560,62.7,1557.3,60,1554,60z"/>
		</g>
	</g>
	<g id="Dots_130_">
		<g>
			<path class="st3" d="M1614,0c-3.3,0-6,2.7-6,6c0,3.3,2.7,6,6,6s6-2.7,6-6C1620,2.7,1617.3,0,1614,0z M1590,0c-3.3,0-6,2.7-6,6
				c0,3.3,2.7,6,6,6s6-2.7,6-6C1596,2.7,1593.3,0,1590,0z M1626,20c-3.3,0-6,2.7-6,6c0,3.3,2.7,6,6,6s6-2.7,6-6
				C1632,22.7,1629.3,20,1626,20z M1602,20c-3.3,0-6,2.7-6,6c0,3.3,2.7,6,6,6s6-2.7,6-6C1608,22.7,1605.3,20,1602,20z"/>
		</g>
	</g>
	<g id="Dots_128_">
		<g>
			<path class="st3" d="M1614,40c-3.3,0-6,2.7-6,6c0,3.3,2.7,6,6,6s6-2.7,6-6C1620,42.7,1617.3,40,1614,40z M1590,40
				c-3.3,0-6,2.7-6,6c0,3.3,2.7,6,6,6s6-2.7,6-6C1596,42.7,1593.3,40,1590,40z M1626,60c-3.3,0-6,2.7-6,6c0,3.3,2.7,6,6,6s6-2.7,6-6
				C1632,62.7,1629.3,60,1626,60z M1602,60c-3.3,0-6,2.7-6,6c0,3.3,2.7,6,6,6s6-2.7,6-6C1608,62.7,1605.3,60,1602,60z"/>
		</g>
	</g>
	<g id="Dots_142_">
		<g>
			<path class="st3" d="M1662,0c-3.3,0-6,2.7-6,6c0,3.3,2.7,6,6,6s6-2.7,6-6C1668,2.7,1665.3,0,1662,0z M1638,0c-3.3,0-6,2.7-6,6
				c0,3.3,2.7,6,6,6s6-2.7,6-6C1644,2.7,1641.3,0,1638,0z M1674,20c-3.3,0-6,2.7-6,6c0,3.3,2.7,6,6,6s6-2.7,6-6
				C1680,22.7,1677.3,20,1674,20z M1650,20c-3.3,0-6,2.7-6,6c0,3.3,2.7,6,6,6s6-2.7,6-6C1656,22.7,1653.3,20,1650,20z"/>
		</g>
	</g>
	<g id="Dots_140_">
		<g>
			<path class="st3" d="M1662,40c-3.3,0-6,2.7-6,6c0,3.3,2.7,6,6,6s6-2.7,6-6C1668,42.7,1665.3,40,1662,40z M1638,40
				c-3.3,0-6,2.7-6,6c0,3.3,2.7,6,6,6s6-2.7,6-6C1644,42.7,1641.3,40,1638,40z M1674,60c-3.3,0-6,2.7-6,6c0,3.3,2.7,6,6,6s6-2.7,6-6
				C1680,62.7,1677.3,60,1674,60z M1650,60c-3.3,0-6,2.7-6,6c0,3.3,2.7,6,6,6s6-2.7,6-6C1656,62.7,1653.3,60,1650,60z"/>
		</g>
	</g>
	<g id="Dots_138_">
		<g>
			<path class="st3" d="M1710,0c-3.3,0-6,2.7-6,6c0,3.3,2.7,6,6,6s6-2.7,6-6C1716,2.7,1713.3,0,1710,0z M1686,0c-3.3,0-6,2.7-6,6
				c0,3.3,2.7,6,6,6s6-2.7,6-6C1692,2.7,1689.3,0,1686,0z M1722,20c-3.3,0-6,2.7-6,6c0,3.3,2.7,6,6,6s6-2.7,6-6
				C1728,22.7,1725.3,20,1722,20z M1698,20c-3.3,0-6,2.7-6,6c0,3.3,2.7,6,6,6s6-2.7,6-6C1704,22.7,1701.3,20,1698,20z"/>
		</g>
	</g>
	<g id="Dots_136_">
		<g>
			<path class="st3" d="M1710,40c-3.3,0-6,2.7-6,6c0,3.3,2.7,6,6,6s6-2.7,6-6C1716,42.7,1713.3,40,1710,40z M1686,40
				c-3.3,0-6,2.7-6,6c0,3.3,2.7,6,6,6s6-2.7,6-6C1692,42.7,1689.3,40,1686,40z M1722,60c-3.3,0-6,2.7-6,6c0,3.3,2.7,6,6,6s6-2.7,6-6
				C1728,62.7,1725.3,60,1722,60z M1698,60c-3.3,0-6,2.7-6,6c0,3.3,2.7,6,6,6s6-2.7,6-6C1704,62.7,1701.3,60,1698,60z"/>
		</g>
	</g>
	<g id="Dots_150_">
		<g>
			<path class="st3" d="M1758,0c-3.3,0-6,2.7-6,6c0,3.3,2.7,6,6,6s6-2.7,6-6C1764,2.7,1761.3,0,1758,0z M1734,0c-3.3,0-6,2.7-6,6
				c0,3.3,2.7,6,6,6s6-2.7,6-6C1740,2.7,1737.3,0,1734,0z M1770,20c-3.3,0-6,2.7-6,6c0,3.3,2.7,6,6,6s6-2.7,6-6
				C1776,22.7,1773.3,20,1770,20z M1746,20c-3.3,0-6,2.7-6,6c0,3.3,2.7,6,6,6s6-2.7,6-6C1752,22.7,1749.3,20,1746,20z"/>
		</g>
	</g>
	<g id="Dots_148_">
		<g>
			<path class="st3" d="M1758,40c-3.3,0-6,2.7-6,6c0,3.3,2.7,6,6,6s6-2.7,6-6C1764,42.7,1761.3,40,1758,40z M1734,40
				c-3.3,0-6,2.7-6,6c0,3.3,2.7,6,6,6s6-2.7,6-6C1740,42.7,1737.3,40,1734,40z M1770,60c-3.3,0-6,2.7-6,6c0,3.3,2.7,6,6,6s6-2.7,6-6
				C1776,62.7,1773.3,60,1770,60z M1746,60c-3.3,0-6,2.7-6,6c0,3.3,2.7,6,6,6s6-2.7,6-6C1752,62.7,1749.3,60,1746,60z"/>
		</g>
	</g>
	<g id="Dots_146_">
		<g>
			<path class="st3" d="M1806,0c-3.3,0-6,2.7-6,6c0,3.3,2.7,6,6,6s6-2.7,6-6C1812,2.7,1809.3,0,1806,0z M1782,0c-3.3,0-6,2.7-6,6
				c0,3.3,2.7,6,6,6s6-2.7,6-6C1788,2.7,1785.3,0,1782,0z M1818,20c-3.3,0-6,2.7-6,6c0,3.3,2.7,6,6,6s6-2.7,6-6
				C1824,22.7,1821.3,20,1818,20z M1794,20c-3.3,0-6,2.7-6,6c0,3.3,2.7,6,6,6s6-2.7,6-6C1800,22.7,1797.3,20,1794,20z"/>
		</g>
	</g>
	<g id="Dots_144_">
		<g>
			<path class="st3" d="M1806,40c-3.3,0-6,2.7-6,6c0,3.3,2.7,6,6,6s6-2.7,6-6C1812,42.7,1809.3,40,1806,40z M1782,40
				c-3.3,0-6,2.7-6,6c0,3.3,2.7,6,6,6s6-2.7,6-6C1788,42.7,1785.3,40,1782,40z M1818,60c-3.3,0-6,2.7-6,6c0,3.3,2.7,6,6,6s6-2.7,6-6
				C1824,62.7,1821.3,60,1818,60z M1794,60c-3.3,0-6,2.7-6,6c0,3.3,2.7,6,6,6s6-2.7,6-6C1800,62.7,1797.3,60,1794,60z"/>
		</g>
	</g>
	<g id="Dots_158_">
		<g>
			<path class="st3" d="M1854,0c-3.3,0-6,2.7-6,6c0,3.3,2.7,6,6,6s6-2.7,6-6C1860,2.7,1857.3,0,1854,0z M1830,0c-3.3,0-6,2.7-6,6
				c0,3.3,2.7,6,6,6s6-2.7,6-6C1836,2.7,1833.3,0,1830,0z M1866,20c-3.3,0-6,2.7-6,6c0,3.3,2.7,6,6,6s6-2.7,6-6
				C1872,22.7,1869.3,20,1866,20z M1842,20c-3.3,0-6,2.7-6,6c0,3.3,2.7,6,6,6s6-2.7,6-6C1848,22.7,1845.3,20,1842,20z"/>
		</g>
	</g>
	<g id="Dots_156_">
		<g>
			<path class="st3" d="M1854,40c-3.3,0-6,2.7-6,6c0,3.3,2.7,6,6,6s6-2.7,6-6C1860,42.7,1857.3,40,1854,40z M1830,40
				c-3.3,0-6,2.7-6,6c0,3.3,2.7,6,6,6s6-2.7,6-6C1836,42.7,1833.3,40,1830,40z M1866,60c-3.3,0-6,2.7-6,6c0,3.3,2.7,6,6,6s6-2.7,6-6
				C1872,62.7,1869.3,60,1866,60z M1842,60c-3.3,0-6,2.7-6,6c0,3.3,2.7,6,6,6s6-2.7,6-6C1848,62.7,1845.3,60,1842,60z"/>
		</g>
	</g>
	<g id="Dots_154_">
		<g>
			<path class="st3" d="M1902,0c-3.3,0-6,2.7-6,6c0,3.3,2.7,6,6,6s6-2.7,6-6C1908,2.7,1905.3,0,1902,0z M1878,0c-3.3,0-6,2.7-6,6
				c0,3.3,2.7,6,6,6s6-2.7,6-6C1884,2.7,1881.3,0,1878,0z M1914,20c-3.3,0-6,2.7-6,6c0,3.3,2.7,6,6,6s6-2.7,6-6
				C1920,22.7,1917.3,20,1914,20z M1890,20c-3.3,0-6,2.7-6,6c0,3.3,2.7,6,6,6s6-2.7,6-6C1896,22.7,1893.3,20,1890,20z"/>
		</g>
	</g>
	<g id="Dots_152_">
		<g>
			<path class="st3" d="M1902,40c-3.3,0-6,2.7-6,6c0,3.3,2.7,6,6,6s6-2.7,6-6C1908,42.7,1905.3,40,1902,40z M1878,40
				c-3.3,0-6,2.7-6,6c0,3.3,2.7,6,6,6s6-2.7,6-6C1884,42.7,1881.3,40,1878,40z M1914,60c-3.3,0-6,2.7-6,6c0,3.3,2.7,6,6,6s6-2.7,6-6
				C1920,62.7,1917.3,60,1914,60z M1890,60c-3.3,0-6,2.7-6,6c0,3.3,2.7,6,6,6s6-2.7,6-6C1896,62.7,1893.3,60,1890,60z"/>
		</g>
	</g>
	<g id="Dots_166_">
		<g>
			<path class="st3" d="M1950,0c-3.3,0-6,2.7-6,6c0,3.3,2.7,6,6,6s6-2.7,6-6C1956,2.7,1953.3,0,1950,0z M1926,0c-3.3,0-6,2.7-6,6
				c0,3.3,2.7,6,6,6s6-2.7,6-6C1932,2.7,1929.3,0,1926,0z M1962,20c-3.3,0-6,2.7-6,6c0,3.3,2.7,6,6,6s6-2.7,6-6
				C1968,22.7,1965.3,20,1962,20z M1938,20c-3.3,0-6,2.7-6,6c0,3.3,2.7,6,6,6s6-2.7,6-6C1944,22.7,1941.3,20,1938,20z"/>
		</g>
	</g>
	<g id="Dots_164_">
		<g>
			<path class="st3" d="M1950,40c-3.3,0-6,2.7-6,6c0,3.3,2.7,6,6,6s6-2.7,6-6C1956,42.7,1953.3,40,1950,40z M1926,40
				c-3.3,0-6,2.7-6,6c0,3.3,2.7,6,6,6s6-2.7,6-6C1932,42.7,1929.3,40,1926,40z M1962,60c-3.3,0-6,2.7-6,6c0,3.3,2.7,6,6,6s6-2.7,6-6
				C1968,62.7,1965.3,60,1962,60z M1938,60c-3.3,0-6,2.7-6,6c0,3.3,2.7,6,6,6s6-2.7,6-6C1944,62.7,1941.3,60,1938,60z"/>
		</g>
	</g>
	<g id="Dots_162_">
		<g>
			<path class="st3" d="M1998,0c-3.3,0-6,2.7-6,6c0,3.3,2.7,6,6,6s6-2.7,6-6C2004,2.7,2001.3,0,1998,0z M1974,0c-3.3,0-6,2.7-6,6
				c0,3.3,2.7,6,6,6s6-2.7,6-6C1980,2.7,1977.3,0,1974,0z M2010,20c-3.3,0-6,2.7-6,6c0,3.3,2.7,6,6,6s6-2.7,6-6
				C2016,22.7,2013.3,20,2010,20z M1986,20c-3.3,0-6,2.7-6,6c0,3.3,2.7,6,6,6s6-2.7,6-6C1992,22.7,1989.3,20,1986,20z"/>
		</g>
	</g>
	<g id="Dots_160_">
		<g>
			<path class="st3" d="M1998,40c-3.3,0-6,2.7-6,6c0,3.3,2.7,6,6,6s6-2.7,6-6C2004,42.7,2001.3,40,1998,40z M1974,40
				c-3.3,0-6,2.7-6,6c0,3.3,2.7,6,6,6s6-2.7,6-6C1980,42.7,1977.3,40,1974,40z M2010,60c-3.3,0-6,2.7-6,6c0,3.3,2.7,6,6,6s6-2.7,6-6
				C2016,62.7,2013.3,60,2010,60z M1986,60c-3.3,0-6,2.7-6,6c0,3.3,2.7,6,6,6s6-2.7,6-6C1992,62.7,1989.3,60,1986,60z"/>
		</g>
	</g>
</g>
<g id="Layer_3">
	<path class="st4" d="M258,20c3.3,0,6,2.7,6,6s-2.7,6-6,6c-3.3,0-6-2.7-6-6S254.7,20,258,20z"/>
</g>
</svg>
