<?xml version="1.0" encoding="utf-8"?>
<!-- Generator: Adobe Illustrator 23.0.1, SVG Export Plug-In . SVG Version: 6.00 Build 0)  -->
<svg version="1.1" id="Layer_1" xmlns="http://www.w3.org/2000/svg" xmlns:xlink="http://www.w3.org/1999/xlink" x="0px" y="0px"
	 viewBox="0 0 157 30" style="enable-background:new 0 0 157 30;" xml:space="preserve">
<style type="text/css">
	.st0{fill:url(#SVGID_1_);}
	.st1{fill:#5A5E5A;}
</style>
<linearGradient id="SVGID_1_" gradientUnits="userSpaceOnUse" x1="0.2752" y1="12.3763" x2="44.9616" y2="12.3763">
	<stop  offset="0" style="stop-color:#81BE40"/>
	<stop  offset="1" style="stop-color:#2A9845"/>
</linearGradient>
<path class="st0" d="M32.6,0c-1.7,0-3.3,0.4-4.8,1c-3.2,1.3-5.4,4.6-6.1,5.6c-0.4,0.6-8.1,11.5-8.1,11.5c-0.6,0.9-1.4,1.5-2.4,1.8
	c0,0-0.1,0-0.1,0c-0.7,0.2-1.4,0.3-2.2,0.3c-2.2-0.2-4.1-2-4.4-4.2c-0.3-2.3,1-4.3,3-5.2c0,0,0,0,0,0c0.1-0.1,0.3-0.1,0.4-0.2
	c0.2-0.1,0.5-0.1,0.7-0.2c0.4-0.1,0.8-0.1,1.3-0.1l0.4,0l-0.1,0.2c0,0-0.5,0.7-0.7,1.1c-0.4,0.6-1,1.5-1.6,2.4
	c-0.3,0.4-0.1,1.1,0.2,1.5l1.5,1.9c0.3,0.5,1.1,0.2,1.4-0.2l5.8-8.4l-1.8-1.2c-1.1-0.7-2.2-1.2-3.4-1.4C10.2,6,9,6,7.9,6.2
	C6.7,6.4,5.6,6.9,4.5,7.5c-1,0.7-1.9,1.5-2.7,2.6c-0.7,1.1-1.2,2.2-1.4,3.4c-0.2,1.2-0.2,2.4,0,3.5c0.2,1.2,0.6,2.3,1.3,3.3
	c0.6,1,1.5,1.9,2.6,2.7c1,0.7,2.1,1.2,3.3,1.4c1.2,0.3,2.4,0.3,3.6,0c1.2-0.2,2.3-0.7,3.4-1.3c0.9-0.6,1.8-1.4,2.5-2.3l0,0l1.6-2.4
	c7.1-10,7-9.9,7.1-10c1.1-1.8,2.8-3,3.6-3.3c1-0.4,2-0.6,3.1-0.6c1.1,0,2.2,0.2,3.1,0.6c1,0.4,1.8,1,2.6,1.7C39,7.4,39.6,8.3,40,9.2
	c0.4,1,0.6,2,0.6,3.1c0,1.1-0.2,2.2-0.6,3.1c-0.4,1-1,1.8-1.7,2.6c-0.7,0.7-1.6,1.3-2.6,1.7c-1,0.4-2,0.6-3.1,0.6
	c-1.1,0-2.2-0.2-3.1-0.6c-1-0.4-1.8-1-2.6-1.7c-0.7-0.7-1.7-2.7-1.8-3c-0.1-0.3-0.7-0.3-0.9,0.1c-0.1,0.2-1.8,2.6-1.8,2.6
	c-0.3,0.4-0.3,0.9,0,1.3c0.4,0.7,1,1.4,1.6,2c1.1,1.1,2.4,2,3.9,2.7c1.5,0.6,3.1,1,4.8,1c1.7,0,3.3-0.3,4.8-1
	c0.6-0.2,1.1-0.5,1.6-0.8c2.8-1.7,4.8-4.4,5.6-7.5c0-0.1,0-0.1,0-0.2l0-0.2c0-0.1,0-0.1,0-0.2c0-0.1,0-0.2,0-0.3l0-0.2
	c0-0.1,0-0.1,0-0.2c0-0.1,0-0.1,0-0.2l0-0.2c0-0.1,0-0.2,0-0.2c0,0,0-0.1,0-0.1l0-0.1c0-0.1,0-0.3,0-0.4c0,0,0-0.3,0-0.3
	c0-0.1,0-0.2,0-0.4c0-1.7-0.3-3.3-1-4.8c-0.5-1.3-1.3-2.4-2.2-3.4L41.7,4c-1.3-1.5-3-2.6-4.9-3.3C36,0.4,35,0.2,34,0.1
	c0,0-0.1,0-0.2,0c0,0-0.2,0-0.2,0c-0.1,0-0.3,0-0.4,0C33,0,32.8,0,32.6,0L32.6,0z"/>
<g>
	<g>
		<path class="st1" d="M57.1,11c-3.8,0-6.4,2.8-6.4,6.9c0,4.4,2.6,6.7,6.5,6.7c1.8,0,3.9-0.4,5.2-0.9v-2.5c-1.4,0.4-3.2,0.7-4.5,0.7
			c-2.6,0-3.5-1-3.8-2.9h9c0-0.4,0.1-1,0.1-1.4C63.4,13.6,60.9,11,57.1,11z M54.3,16.8c0.2-2,1.1-3.3,2.9-3.3c1.7,0,2.6,1.3,2.9,3.3
			H54.3z M74.8,6.1c-5.7,0-9.5,3.7-9.5,9.3c0,5.6,3.8,9.3,9.5,9.3c5.7,0,9.5-3.7,9.5-9.3C84.3,9.8,80.5,6.1,74.8,6.1z M74.8,21.7
			c-3.5,0-5.9-2.5-5.9-6.3c0-3.8,2.3-6.3,5.9-6.3c3.5,0,5.8,2.5,5.8,6.3C80.7,19.2,78.3,21.7,74.8,21.7z M87,11.1v13.3h3.4v-9.6
			c1.1-0.4,2.5-0.6,4.3-0.6V11c-1.7,0-3.1,0.3-4.6,0.9C89.3,11.4,88.2,11.1,87,11.1z M96.5,24.4h3.4V11.2h-3.4V24.4z M98.2,5.1
			c-1.2,0-2,0.9-2,2c0,1.2,0.9,2,2,2c1.2,0,2-0.9,2-2C100.3,6,99.4,5.1,98.2,5.1z M105.3,20.3c0-0.4,0.1-0.8,0.4-1.1
			c0.9,0.4,1.9,0.6,3,0.6c3.4,0,5.7-1.7,5.7-4.3c0-1.5-0.8-2.8-2.1-3.6l2.3-0.5L113.9,9l-7.6,2.2c0,0,0,0-0.1,0
			c-2,0.6-3.2,2.1-3.2,4.1c0,1.1,0.4,2,1.1,2.8c-1.1,1-1.8,2.2-1.8,3.4c0,5,9.6,2.2,9.6,4.8c0,0.9-1,1.2-3.5,1.2
			c-2.1,0-4-0.2-5.4-0.8v2.3c1.2,0.6,3.3,0.9,5.1,0.9c5.1,0,7.1-1.2,7.1-4.1C115.2,20.1,105.3,23.2,105.3,20.3z M108.7,13.2
			c1.4,0,2.3,0.9,2.3,2.2c0,1.3-1,2.2-2.3,2.2c-1.4,0-2.3-0.9-2.3-2.2C106.4,14,107.3,13.2,108.7,13.2z M118.7,5.1c-1.2,0-2,0.9-2,2
			c0,1.2,0.9,2,2,2c1.2,0,2-0.9,2-2C120.8,6,119.9,5.1,118.7,5.1z M117,24.4h3.4V11.2H117V24.4z M131.5,11c-1.5,0-3.1,0.4-4.6,1
			c-0.9-0.6-2-0.9-3.3-0.9v13.3h3.4v-9.9c1-0.5,2-0.8,3-0.8c1.9,0,2.9,0.9,2.9,2.8v8h3.4v-8.3C136.4,12.6,134.6,11,131.5,11z
			 M144.9,11c-1.9,0-3.8,0.3-5.1,0.8v2.5c1.4-0.4,3.1-0.6,4.4-0.6c1.9,0,3,0.9,3,2.5V17c-1.1-0.3-2.1-0.5-3.1-0.5
			c-3.4,0-5.4,1.5-5.4,4.1c0,2.6,1.8,4.1,4.9,4.1c1.4,0,2.8-0.3,4-0.8c0.8,0.4,1.9,0.7,3,0.7v-8.7C150.5,12.8,148.4,11,144.9,11z
			 M147.1,21.8c-0.7,0.3-1.5,0.4-2.2,0.4c-1.7,0-2.7-0.6-2.7-1.7c0-1.1,1-1.8,2.7-1.8c0.7,0,1.5,0.1,2.2,0.5V21.8z M153.6,6.1v18.3
			h3.4V5.1L153.6,6.1z"/>
	</g>
</g>
</svg>
