<?xml version="1.0" encoding="utf-8"?>
<!-- Generator: Adobe Illustrator 23.0.1, SVG Export Plug-In . SVG Version: 6.00 Build 0)  -->
<svg version="1.1" id="Layer_1" xmlns="http://www.w3.org/2000/svg" xmlns:xlink="http://www.w3.org/1999/xlink" x="0px" y="0px"
	 viewBox="0 0 14 14" style="enable-background:new 0 0 14 14;" xml:space="preserve">
<style type="text/css">
	.st0{fill-rule:evenodd;clip-rule:evenodd;fill:url(#SVGID_1_);}
</style>
<g>
	<g>
		<linearGradient id="SVGID_1_" gradientUnits="userSpaceOnUse" x1="7.5624" y1="-2.498424e-05" x2="7.5624" y2="14">
			<stop  offset="0" style="stop-color:#81BE40"/>
			<stop  offset="1" style="stop-color:#2A9845"/>
		</linearGradient>
		<path class="st0" d="M14,6V0l-2.1,2.1C10.7,0.8,8.9,0,7,0C3.1,0,0,3.1,0,7c0,3.9,3.1,7,7,7c3.5,0,6.4-2.6,6.9-5.9h-2
			C11.4,10.3,9.4,12,7,12c-2.8,0-5-2.2-5-5c0-2.8,2.2-5,5-5c1.4,0,2.6,0.6,3.5,1.5L8,6L14,6z"/>
	</g>
</g>
</svg>
