<?xml version="1.0" encoding="utf-8"?>
<!-- Generator: Adobe Illustrator 23.0.1, SVG Export Plug-In . SVG Version: 6.00 Build 0)  -->
<svg version="1.1" id="Layer_1" xmlns="http://www.w3.org/2000/svg" xmlns:xlink="http://www.w3.org/1999/xlink" x="0px" y="0px"
	 viewBox="0 0 15 15" style="enable-background:new 0 0 15 15;" xml:space="preserve">
<style type="text/css">
	.st0{fill-rule:evenodd;clip-rule:evenodd;fill:#57A40A;}
</style>
<g>
	<g>
		<path class="st0" d="M15,5.4C15,5,14.4,5,14.4,5H10L8.4,1c0,0-0.4-1-0.9-1S6.6,1,6.6,1L5,5H0.5C0.5,5,0,5,0,5.4
			C0,6,0.2,6.1,0.2,6.1l3.4,3.4L2,13.8c0,0-0.2,0.8,0.3,1.1c0.4,0.2,1.5-0.2,1.5-0.2l3.8-2.4l4,2.4c0,0,0.8,0.4,1.2,0.2
			c0.5-0.4,0.3-1.1,0.3-1.1l-1.4-4.4L14.8,6C14.8,6,15,5.8,15,5.4z M9.4,9l1.2,3.3l-3.1-1.9l-2.9,2l1-3.4L3.4,7h2.8l1.4-3.1L9,7h3
			L9.4,9z"/>
	</g>
</g>
</svg>
