<?xml version="1.0" encoding="utf-8"?>
<!-- Generator: Adobe Illustrator 23.0.1, SVG Export Plug-In . SVG Version: 6.00 Build 0)  -->
<svg version="1.1" id="Layer_1" xmlns="http://www.w3.org/2000/svg" xmlns:xlink="http://www.w3.org/1999/xlink" x="0px" y="0px"
	 viewBox="0 0 14 16" style="enable-background:new 0 0 14 16;" xml:space="preserve">
<style type="text/css">
	.st0{fill-rule:evenodd;clip-rule:evenodd;fill:#8D939A;}
</style>
<g>
	<g>
		<path class="st0" d="M10.9,6.2c0.1-0.5,0.2-1,0.3-1.6c0.2-2.8-1-4.6-4.1-4.6c-3,0-4.4,1.7-4.3,4.5c0,0.5,0.1,1.1,0.3,1.6
			C0.7,7.2,0,9.2,0,10.2c0,0.4,0,3.6,0,3.6S1.5,16,7,16s7-2.1,7-2.1s0-3.3,0-3.7C14,9.2,13.2,7.3,10.9,6.2z M7.1,1.8
			c1.3,0,2.5,1.1,2.2,2.8C9.1,6.2,8.3,7,7.1,7C5.8,7,4.9,6.3,4.7,4.6C4.5,2.7,5.8,1.8,7.1,1.8z M12.1,10.3v2.3c0,0-0.6,1.5-5,1.5
			c-4.8,0-5.2-1.4-5.2-1.4v-2.4c0,0,0-1.4,2.5-2.1C5,8.7,5.9,9.1,7.1,9c1.3,0,2.2-0.4,2.8-1C12.3,8.6,12.1,10.3,12.1,10.3z"/>
	</g>
</g>
</svg>
