<?xml version="1.0" encoding="utf-8"?>
<!-- Generator: Adobe Illustrator 23.0.1, SVG Export Plug-In . SVG Version: 6.00 Build 0)  -->
<svg version="1.1" id="Layer_1" xmlns="http://www.w3.org/2000/svg" xmlns:xlink="http://www.w3.org/1999/xlink" x="0px" y="0px"
	 viewBox="0 0 19 19" style="enable-background:new 0 0 19 19;" xml:space="preserve">
<style type="text/css">
	.st0{fill-rule:evenodd;clip-rule:evenodd;fill:#5A5E5A;}
	.st1{fill-rule:evenodd;clip-rule:evenodd;fill:#FFFFFF;}
</style>
<g>
	<g>
		<path class="st0" d="M15,2h-4.9v2h5C16.2,4,17,5,17,6.1v5c0,1.1-0.8,1.9-1.9,1.9L13,13v3.1L10,13H7c-1.1,0-2-0.8-2-1.9V10H3v1
			c0,2.2,1.8,4,4,4h2l4.1,4l1.9,0v-4h0.5c2.2,0,3.5-1.8,3.5-4V6C19,3.8,17.2,2,15,2z M3,8l2,0l0-3l3,0V3L5,3l0-3H3v3l-3,0v2l3,0V8z"
			/>
	</g>
</g>
</svg>
