<?xml version="1.0" encoding="utf-8"?>
<!-- Generator: Adobe Illustrator 23.0.1, SVG Export Plug-In . SVG Version: 6.00 Build 0)  -->
<svg version="1.1" id="Layer_1" xmlns="http://www.w3.org/2000/svg" xmlns:xlink="http://www.w3.org/1999/xlink" x="0px" y="0px"
	 viewBox="0 0 34 36" style="enable-background:new 0 0 34 36;" xml:space="preserve">
<style type="text/css">
	.st0{fill-rule:evenodd;clip-rule:evenodd;fill:url(#SVGID_1_);}
	.st1{fill-rule:evenodd;clip-rule:evenodd;fill:url(#SVGID_2_);}
	.st2{fill-rule:evenodd;clip-rule:evenodd;fill:url(#SVGID_3_);}
	.st3{fill-rule:evenodd;clip-rule:evenodd;fill:#80878F;}
	.st4{fill-rule:evenodd;clip-rule:evenodd;fill:#BFC6C7;}
</style>
<g>
	<g>
		<path class="st4" d="M17,2C8.2,2,1,9.2,1,18c0,8.8,7.2,16,16,16s16-7.2,16-16C33,9.2,25.8,2,17,2z M17,31.1c-7.2,0-13-5.8-13-13
			c0-7.2,5.8-13,13-13s13,5.8,13,13C30,25.3,24.2,31.1,17,31.1z M24.4,12.8l-2.1-2.1L17,16l-5.4-5.3l-2.1,2.1l5.3,5.3l-5.3,5.3
			l2.1,2.1l5.3-5.3l5.3,5.3l2.1-2.1l-5.3-5.3L24.4,12.8z"/>
	</g>
</g>
</svg>
