<?xml version="1.0" encoding="utf-8"?>
<!-- Generator: Adobe Illustrator 23.0.1, SVG Export Plug-In . SVG Version: 6.00 Build 0)  -->
<svg version="1.1" id="Layer_1" xmlns="http://www.w3.org/2000/svg" xmlns:xlink="http://www.w3.org/1999/xlink" x="0px" y="0px"
	 viewBox="0 0 21 21" style="enable-background:new 0 0 21 21;" xml:space="preserve">
<style type="text/css">
	.st0{fill:url(#SVGID_1_);}
	.st1{fill:url(#SVGID_2_);}
</style>
<g>
	<g>
		<g>
			<linearGradient id="SVGID_1_" gradientUnits="userSpaceOnUse" x1="10.5" y1="0.736" x2="10.5" y2="19.736">
				<stop  offset="0" style="stop-color:#81BE40"/>
				<stop  offset="1" style="stop-color:#2A9845"/>
			</linearGradient>
			<path class="st0" d="M12.7,20.7H8.4l-0.5-2.7l-0.8-0.3l-2.7,1.7l-2.9-3L3.3,14L3,13.1l-3-0.5V8.3l2.9-0.5l0.4-1L1.6,4.6l3-3
				L7,3.2l0.9-0.5l0.4-3h4.6l0.1,3l1,0.5l2.5-1.5l2.9,2.9l-1.5,2.2l0.4,0.9L21,8.1v4.5l-2.6,0.3l-0.7,1.3l1.7,2.4l-3,2.9l-2.5-1.7
				l-0.7,0.3L12.7,20.7z M10.1,18.7h1l0.4-2l2.7-1.1l2,1.3l0.6-0.6l-1.5-2.1l1.9-3.2l1.9-0.2v-1l-2.1-0.2l-1.3-3l1.2-1.7l-0.6-0.6
				l-2.2,1.3L11,4l-0.1-2.2H10L9.7,4L6.9,5.6l-2-1.4L4.3,4.8l1.4,1.7L4.3,9.6L2,10v0.9l2.4,0.4l1.2,2.9l-1.5,2l0.6,0.6l2.2-1.4
				l2.7,1.2L10.1,18.7z M10.4,14.7c-0.5,0-1-0.1-1.6-0.3c-2-0.9-3-3.2-2.1-5.2c0.9-2,3.2-3,5.2-2.1c2,0.9,3,3.2,2.1,5.2l0,0
				C13.4,13.8,11.9,14.7,10.4,14.7z M10.4,8.7c-0.8,0-1.5,0.5-1.8,1.2c-0.4,1,0,2.2,1.1,2.6c1,0.4,2.2,0,2.6-1.1
				c0.4-1,0-2.2-1.1-2.6C10.9,8.7,10.6,8.7,10.4,8.7z"/>
		</g>
	</g>
</g>
</svg>
